<ttFont>
    <TTGlyph name="A" xMin="10" yMin="-1" xMax="728" yMax="710">
      <contour>
        <pt x="314" y="22" on="0"/>
        <pt x="257" y="0" on="0"/>
        <pt x="109" y="0" on="0"/>
        <pt x="10" y="27" on="0"/>
        <pt x="10" y="48" on="1"/>
        <pt x="10" y="72" on="0"/>
        <pt x="188" y="637" on="0"/>
        <pt x="201" y="680" on="1"/>
        <pt x="206" y="693" on="0"/>
        <pt x="357" y="710" on="0"/>
        <pt x="530" y="710" on="0"/>
        <pt x="539" y="680" on="1"/>
        <pt x="728" y="52" on="0"/>
        <pt x="728" y="32" on="0"/>
        <pt x="716" y="22" on="1"/>
        <pt x="688" y="0" on="0"/>
        <pt x="605" y="0" on="1"/>
        <pt x="428" y="0" on="0"/>
        <pt x="424" y="42" on="1"/>
        <pt x="417" y="107" on="1"/>
        <pt x="321" y="107" on="1"/>
        <pt x="316" y="51" on="1"/>
      </contour>
      <contour>
        <pt x="396" y="297" on="1"/>
        <pt x="381" y="477" on="1"/>
        <pt x="359" y="477" on="1"/>
        <pt x="342" y="297" on="1"/>
      </contour>
    </TTGlyph>
    <TTGlyph name="A.sc" xMin="20" yMin="0" xMax="737" yMax="600">
      <contour>
        <pt x="324" y="19" on="0"/>
        <pt x="268" y="0" on="0"/>
        <pt x="150" y="0" on="0"/>
        <pt x="106" y="6" on="1"/>
        <pt x="20" y="19" on="0"/>
        <pt x="20" y="40" on="1"/>
        <pt x="20" y="54" on="0"/>
        <pt x="165" y="454" on="0"/>
        <pt x="211" y="575" on="1"/>
        <pt x="215" y="586" on="0"/>
        <pt x="366" y="600" on="0"/>
        <pt x="538" y="600" on="0"/>
        <pt x="549" y="575" on="1"/>
        <pt x="618" y="389" on="0"/>
        <pt x="737" y="50" on="0"/>
        <pt x="737" y="41" on="1"/>
        <pt x="737" y="0" on="0"/>
        <pt x="605" y="0" on="1"/>
        <pt x="533" y="0" on="0"/>
        <pt x="436" y="19" on="0"/>
        <pt x="434" y="36" on="1"/>
        <pt x="427" y="92" on="1"/>
        <pt x="331" y="92" on="1"/>
        <pt x="326" y="44" on="1"/>
      </contour>
      <contour>
        <pt x="406" y="254" on="1"/>
        <pt x="391" y="402" on="1"/>
        <pt x="369" y="402" on="1"/>
        <pt x="352" y="254" on="1"/>
      </contour>
    </TTGlyph>
    <TTGlyph name="AE" xMin="15" yMin="0" xMax="974" yMax="702">
      <contour>
        <pt x="941" y="0" on="1"/>
        <pt x="517" y="0" on="1"/>
        <pt x="468" y="0" on="0"/>
        <pt x="434" y="14" on="0"/>
        <pt x="434" y="29" on="1"/>
        <pt x="434" y="107" on="1"/>
        <pt x="320" y="107" on="1"/>
        <pt x="303" y="51" on="1"/>
        <pt x="294" y="22" on="0"/>
        <pt x="232" y="0" on="0"/>
        <pt x="115" y="0" on="0"/>
        <pt x="78" y="8" on="1"/>
        <pt x="15" y="21" on="0"/>
        <pt x="15" y="48" on="1"/>
        <pt x="15" y="67" on="0"/>
        <pt x="241" y="570" on="0"/>
        <pt x="297" y="672" on="1"/>
        <pt x="304" y="685" on="0"/>
        <pt x="433" y="702" on="0"/>
        <pt x="528" y="702" on="1"/>
        <pt x="944" y="702" on="1"/>
        <pt x="965" y="702" on="0"/>
        <pt x="965" y="563" on="0"/>
        <pt x="947" y="493" on="0"/>
        <pt x="932" y="493" on="1"/>
        <pt x="893" y="493" on="0"/>
        <pt x="713" y="506" on="1"/>
        <pt x="713" y="439" on="1"/>
        <pt x="861" y="445" on="0"/>
        <pt x="906" y="445" on="1"/>
        <pt x="933" y="445" on="0"/>
        <pt x="933" y="319" on="0"/>
        <pt x="912" y="254" on="0"/>
        <pt x="894" y="254" on="1"/>
        <pt x="713" y="258" on="1"/>
        <pt x="713" y="194" on="1"/>
        <pt x="887" y="207" on="0"/>
        <pt x="953" y="207" on="1"/>
        <pt x="974" y="207" on="0"/>
        <pt x="974" y="138" on="1"/>
        <pt x="974" y="0" on="0"/>
      </contour>
      <contour>
        <pt x="434" y="297" on="1"/>
        <pt x="434" y="466" on="1"/>
        <pt x="375" y="297" on="1"/>
      </contour>
    </TTGlyph>
    <TTGlyph name="Aacute" xMin="15" yMin="-1" xMax="733" yMax="910">
      <contour>
        <pt x="319" y="22" on="0"/>
        <pt x="262" y="0" on="0"/>
        <pt x="114" y="0" on="0"/>
        <pt x="15" y="27" on="0"/>
        <pt x="15" y="48" on="1"/>
        <pt x="15" y="72" on="0"/>
        <pt x="193" y="637" on="0"/>
        <pt x="206" y="680" on="1"/>
        <pt x="211" y="693" on="0"/>
        <pt x="362" y="710" on="0"/>
        <pt x="535" y="710" on="0"/>
        <pt x="544" y="680" on="1"/>
        <pt x="733" y="52" on="0"/>
        <pt x="733" y="32" on="0"/>
        <pt x="721" y="22" on="1"/>
        <pt x="693" y="0" on="0"/>
        <pt x="610" y="0" on="1"/>
        <pt x="433" y="0" on="0"/>
        <pt x="429" y="42" on="1"/>
        <pt x="422" y="107" on="1"/>
        <pt x="326" y="107" on="1"/>
        <pt x="321" y="51" on="1"/>
      </contour>
      <contour>
        <pt x="401" y="297" on="1"/>
        <pt x="386" y="477" on="1"/>
        <pt x="364" y="477" on="1"/>
        <pt x="347" y="297" on="1"/>
      </contour>
      <contour>
        <pt x="484" y="910" on="1"/>
        <pt x="507" y="910" on="0"/>
        <pt x="554" y="834" on="0"/>
        <pt x="554" y="778" on="1"/>
        <pt x="554" y="763" on="0"/>
        <pt x="381" y="740" on="0"/>
        <pt x="324" y="740" on="1"/>
        <pt x="305" y="740" on="0"/>
        <pt x="274" y="788" on="0"/>
        <pt x="274" y="851" on="0"/>
        <pt x="423" y="910" on="0"/>
      </contour>
    </TTGlyph>
    <TTGlyph name="Abreve" xMin="15" yMin="-1" xMax="733" yMax="900">
      <contour>
        <pt x="319" y="22" on="0"/>
        <pt x="262" y="0" on="0"/>
        <pt x="114" y="0" on="0"/>
        <pt x="15" y="27" on="0"/>
        <pt x="15" y="48" on="1"/>
        <pt x="15" y="72" on="0"/>
        <pt x="193" y="637" on="0"/>
        <pt x="206" y="680" on="1"/>
        <pt x="211" y="693" on="0"/>
        <pt x="362" y="710" on="0"/>
        <pt x="535" y="710" on="0"/>
        <pt x="544" y="680" on="1"/>
        <pt x="733" y="52" on="0"/>
        <pt x="733" y="32" on="0"/>
        <pt x="721" y="22" on="1"/>
        <pt x="693" y="0" on="0"/>
        <pt x="610" y="0" on="1"/>
        <pt x="433" y="0" on="0"/>
        <pt x="429" y="42" on="1"/>
        <pt x="422" y="107" on="1"/>
        <pt x="326" y="107" on="1"/>
        <pt x="321" y="51" on="1"/>
      </contour>
      <contour>
        <pt x="401" y="297" on="1"/>
        <pt x="386" y="477" on="1"/>
        <pt x="364" y="477" on="1"/>
        <pt x="347" y="297" on="1"/>
      </contour>
      <contour>
        <pt x="350" y="868" on="1"/>
        <pt x="350" y="821" on="0"/>
        <pt x="397" y="821" on="0"/>
        <pt x="397" y="868" on="1"/>
        <pt x="397" y="900" on="0"/>
        <pt x="516" y="900" on="0"/>
        <pt x="516" y="870" on="1"/>
        <pt x="516" y="795" on="0"/>
        <pt x="441" y="740" on="0"/>
        <pt x="305" y="740" on="0"/>
        <pt x="232" y="793" on="0"/>
        <pt x="232" y="870" on="1"/>
        <pt x="232" y="900" on="0"/>
        <pt x="350" y="900" on="0"/>
      </contour>
    </TTGlyph>
    <TTGlyph name="Acircumflex" xMin="15" yMin="-1" xMax="733" yMax="900">
      <contour>
        <pt x="319" y="22" on="0"/>
        <pt x="262" y="0" on="0"/>
        <pt x="114" y="0" on="0"/>
        <pt x="15" y="27" on="0"/>
        <pt x="15" y="48" on="1"/>
        <pt x="15" y="72" on="0"/>
        <pt x="193" y="637" on="0"/>
        <pt x="206" y="680" on="1"/>
        <pt x="211" y="693" on="0"/>
        <pt x="362" y="710" on="0"/>
        <pt x="535" y="710" on="0"/>
        <pt x="544" y="680" on="1"/>
        <pt x="733" y="52" on="0"/>
        <pt x="733" y="32" on="0"/>
        <pt x="721" y="22" on="1"/>
        <pt x="693" y="0" on="0"/>
        <pt x="610" y="0" on="1"/>
        <pt x="433" y="0" on="0"/>
        <pt x="429" y="42" on="1"/>
        <pt x="422" y="107" on="1"/>
        <pt x="326" y="107" on="1"/>
        <pt x="321" y="51" on="1"/>
      </contour>
      <contour>
        <pt x="401" y="297" on="1"/>
        <pt x="386" y="477" on="1"/>
        <pt x="364" y="477" on="1"/>
        <pt x="347" y="297" on="1"/>
      </contour>
      <contour>
        <pt x="194" y="831" on="0"/>
        <pt x="341" y="900" on="0"/>
        <pt x="412" y="900" on="0"/>
        <pt x="554" y="832" on="0"/>
        <pt x="554" y="820" on="1"/>
        <pt x="554" y="785" on="0"/>
        <pt x="532" y="730" on="0"/>
        <pt x="514" y="730" on="1"/>
        <pt x="500" y="730" on="0"/>
        <pt x="374" y="769" on="1"/>
        <pt x="247" y="730" on="0"/>
        <pt x="234" y="730" on="1"/>
        <pt x="216" y="730" on="0"/>
        <pt x="194" y="785" on="0"/>
        <pt x="194" y="820" on="1"/>
      </contour>
    </TTGlyph>
    <TTGlyph name="Adieresis" xMin="15" yMin="-1" xMax="733" yMax="910">
      <contour>
        <pt x="319" y="22" on="0"/>
        <pt x="262" y="0" on="0"/>
        <pt x="114" y="0" on="0"/>
        <pt x="15" y="27" on="0"/>
        <pt x="15" y="48" on="1"/>
        <pt x="15" y="72" on="0"/>
        <pt x="193" y="637" on="0"/>
        <pt x="206" y="680" on="1"/>
        <pt x="211" y="693" on="0"/>
        <pt x="362" y="710" on="0"/>
        <pt x="535" y="710" on="0"/>
        <pt x="544" y="680" on="1"/>
        <pt x="733" y="52" on="0"/>
        <pt x="733" y="32" on="0"/>
        <pt x="721" y="22" on="1"/>
        <pt x="693" y="0" on="0"/>
        <pt x="610" y="0" on="1"/>
        <pt x="433" y="0" on="0"/>
        <pt x="429" y="42" on="1"/>
        <pt x="422" y="107" on="1"/>
        <pt x="326" y="107" on="1"/>
        <pt x="321" y="51" on="1"/>
      </contour>
      <contour>
        <pt x="401" y="297" on="1"/>
        <pt x="386" y="477" on="1"/>
        <pt x="364" y="477" on="1"/>
        <pt x="347" y="297" on="1"/>
      </contour>
      <contour>
        <pt x="292" y="730" on="0"/>
        <pt x="188" y="730" on="0"/>
        <pt x="134" y="769" on="0"/>
        <pt x="134" y="874" on="0"/>
        <pt x="189" y="910" on="0"/>
        <pt x="292" y="910" on="0"/>
        <pt x="347" y="874" on="0"/>
        <pt x="347" y="769" on="0"/>
      </contour>
      <contour>
        <pt x="569" y="730" on="0"/>
        <pt x="465" y="730" on="0"/>
        <pt x="411" y="769" on="0"/>
        <pt x="411" y="874" on="0"/>
        <pt x="466" y="910" on="0"/>
        <pt x="569" y="910" on="0"/>
        <pt x="624" y="874" on="0"/>
        <pt x="624" y="769" on="0"/>
      </contour>
    </TTGlyph>
    <TTGlyph name="Agrave" xMin="15" yMin="-1" xMax="733" yMax="910">
      <contour>
        <pt x="319" y="22" on="0"/>
        <pt x="262" y="0" on="0"/>
        <pt x="114" y="0" on="0"/>
        <pt x="15" y="27" on="0"/>
        <pt x="15" y="48" on="1"/>
        <pt x="15" y="72" on="0"/>
        <pt x="193" y="637" on="0"/>
        <pt x="206" y="680" on="1"/>
        <pt x="211" y="693" on="0"/>
        <pt x="362" y="710" on="0"/>
        <pt x="535" y="710" on="0"/>
        <pt x="544" y="680" on="1"/>
        <pt x="733" y="52" on="0"/>
        <pt x="733" y="32" on="0"/>
        <pt x="721" y="22" on="1"/>
        <pt x="693" y="0" on="0"/>
        <pt x="610" y="0" on="1"/>
        <pt x="433" y="0" on="0"/>
        <pt x="429" y="42" on="1"/>
        <pt x="422" y="107" on="1"/>
        <pt x="326" y="107" on="1"/>
        <pt x="321" y="51" on="1"/>
      </contour>
      <contour>
        <pt x="401" y="297" on="1"/>
        <pt x="386" y="477" on="1"/>
        <pt x="364" y="477" on="1"/>
        <pt x="347" y="297" on="1"/>
      </contour>
      <contour>
        <pt x="244" y="910" on="1"/>
        <pt x="305" y="910" on="0"/>
        <pt x="454" y="851" on="0"/>
        <pt x="454" y="788" on="0"/>
        <pt x="423" y="740" on="0"/>
        <pt x="404" y="740" on="1"/>
        <pt x="347" y="740" on="0"/>
        <pt x="174" y="763" on="0"/>
        <pt x="174" y="778" on="1"/>
        <pt x="174" y="834" on="0"/>
        <pt x="221" y="910" on="0"/>
      </contour>
    </TTGlyph>
    <TTGlyph name="Amacron" xMin="15" yMin="-1" xMax="733" yMax="890">
      <contour>
        <pt x="319" y="22" on="0"/>
        <pt x="262" y="0" on="0"/>
        <pt x="114" y="0" on="0"/>
        <pt x="15" y="27" on="0"/>
        <pt x="15" y="48" on="1"/>
        <pt x="15" y="72" on="0"/>
        <pt x="193" y="637" on="0"/>
        <pt x="206" y="680" on="1"/>
        <pt x="211" y="693" on="0"/>
        <pt x="362" y="710" on="0"/>
        <pt x="535" y="710" on="0"/>
        <pt x="544" y="680" on="1"/>
        <pt x="733" y="52" on="0"/>
        <pt x="733" y="32" on="0"/>
        <pt x="721" y="22" on="1"/>
        <pt x="693" y="0" on="0"/>
        <pt x="610" y="0" on="1"/>
        <pt x="433" y="0" on="0"/>
        <pt x="429" y="42" on="1"/>
        <pt x="422" y="107" on="1"/>
        <pt x="326" y="107" on="1"/>
        <pt x="321" y="51" on="1"/>
      </contour>
      <contour>
        <pt x="401" y="297" on="1"/>
        <pt x="386" y="477" on="1"/>
        <pt x="364" y="477" on="1"/>
        <pt x="347" y="297" on="1"/>
      </contour>
      <contour>
        <pt x="562" y="730" on="1"/>
        <pt x="157" y="730" on="1"/>
        <pt x="146" y="730" on="0"/>
        <pt x="130" y="767" on="0"/>
        <pt x="130" y="829" on="0"/>
        <pt x="175" y="890" on="0"/>
        <pt x="195" y="890" on="1"/>
        <pt x="597" y="890" on="1"/>
        <pt x="623" y="890" on="0"/>
        <pt x="623" y="825" on="1"/>
        <pt x="623" y="793" on="0"/>
        <pt x="581" y="730" on="0"/>
      </contour>
    </TTGlyph>
    <TTGlyph name="Aogonek" xMin="15" yMin="-155" xMax="733" yMax="710">
      <contour>
        <pt x="319" y="22" on="0"/>
        <pt x="262" y="0" on="0"/>
        <pt x="114" y="0" on="0"/>
        <pt x="15" y="27" on="0"/>
        <pt x="15" y="48" on="1"/>
        <pt x="15" y="72" on="0"/>
        <pt x="193" y="637" on="0"/>
        <pt x="206" y="680" on="1"/>
        <pt x="211" y="693" on="0"/>
        <pt x="362" y="710" on="0"/>
        <pt x="535" y="710" on="0"/>
        <pt x="544" y="680" on="1"/>
        <pt x="733" y="52" on="0"/>
        <pt x="733" y="32" on="0"/>
        <pt x="721" y="22" on="1"/>
        <pt x="693" y="0" on="0"/>
        <pt x="610" y="0" on="1"/>
        <pt x="433" y="0" on="0"/>
        <pt x="429" y="42" on="1"/>
        <pt x="422" y="107" on="1"/>
        <pt x="326" y="107" on="1"/>
        <pt x="321" y="51" on="1"/>
      </contour>
      <contour>
        <pt x="401" y="297" on="1"/>
        <pt x="386" y="477" on="1"/>
        <pt x="364" y="477" on="1"/>
        <pt x="347" y="297" on="1"/>
      </contour>
      <contour>
        <pt x="466" y="47" on="0"/>
        <pt x="608" y="30" on="0"/>
        <pt x="608" y="14" on="0"/>
        <pt x="570" y="-13" on="0"/>
        <pt x="570" y="-23" on="1"/>
        <pt x="570" y="-39" on="0"/>
        <pt x="620" y="-39" on="0"/>
        <pt x="672" y="-30" on="0"/>
        <pt x="682" y="-30" on="0"/>
        <pt x="690" y="-42" on="1"/>
        <pt x="711" y="-72" on="0"/>
        <pt x="711" y="-131" on="1"/>
        <pt x="711" y="-144" on="0"/>
        <pt x="613" y="-155" on="0"/>
        <pt x="577" y="-155" on="1"/>
        <pt x="501" y="-155" on="0"/>
        <pt x="402" y="-99" on="0"/>
        <pt x="402" y="-41" on="1"/>
        <pt x="402" y="-12" on="0"/>
        <pt x="426" y="32" on="0"/>
        <pt x="438" y="40" on="1"/>
        <pt x="449" y="47" on="1"/>
      </contour>
    </TTGlyph>
    <TTGlyph name="Aring" xMin="15" yMin="-1" xMax="733" yMax="900">
      <contour>
        <pt x="319" y="22" on="0"/>
        <pt x="262" y="0" on="0"/>
        <pt x="114" y="0" on="0"/>
        <pt x="15" y="27" on="0"/>
        <pt x="15" y="48" on="1"/>
        <pt x="15" y="72" on="0"/>
        <pt x="193" y="637" on="0"/>
        <pt x="206" y="680" on="1"/>
        <pt x="211" y="693" on="0"/>
        <pt x="362" y="710" on="0"/>
        <pt x="535" y="710" on="0"/>
        <pt x="544" y="680" on="1"/>
        <pt x="733" y="52" on="0"/>
        <pt x="733" y="32" on="0"/>
        <pt x="721" y="22" on="1"/>
        <pt x="693" y="0" on="0"/>
        <pt x="610" y="0" on="1"/>
        <pt x="433" y="0" on="0"/>
        <pt x="429" y="42" on="1"/>
        <pt x="422" y="107" on="1"/>
        <pt x="326" y="107" on="1"/>
        <pt x="321" y="51" on="1"/>
      </contour>
      <contour>
        <pt x="401" y="297" on="1"/>
        <pt x="386" y="477" on="1"/>
        <pt x="364" y="477" on="1"/>
        <pt x="347" y="297" on="1"/>
      </contour>
      <contour>
        <pt x="489" y="767" on="0"/>
        <pt x="433" y="730" on="0"/>
        <pt x="315" y="730" on="0"/>
        <pt x="259" y="767" on="0"/>
        <pt x="259" y="868" on="0"/>
        <pt x="315" y="900" on="0"/>
        <pt x="433" y="900" on="0"/>
        <pt x="489" y="868" on="0"/>
      </contour>
      <contour>
        <pt x="347" y="805" on="0"/>
        <pt x="358" y="797" on="0"/>
        <pt x="390" y="797" on="0"/>
        <pt x="401" y="805" on="0"/>
        <pt x="401" y="826" on="0"/>
        <pt x="389" y="833" on="0"/>
        <pt x="358" y="833" on="0"/>
        <pt x="347" y="826" on="0"/>
      </contour>
    </TTGlyph>
    <TTGlyph name="Atilde" xMin="15" yMin="-1" xMax="733" yMax="910">
      <contour>
        <pt x="319" y="22" on="0"/>
        <pt x="262" y="0" on="0"/>
        <pt x="114" y="0" on="0"/>
        <pt x="15" y="27" on="0"/>
        <pt x="15" y="48" on="1"/>
        <pt x="15" y="72" on="0"/>
        <pt x="193" y="637" on="0"/>
        <pt x="206" y="680" on="1"/>
        <pt x="211" y="693" on="0"/>
        <pt x="362" y="710" on="0"/>
        <pt x="535" y="710" on="0"/>
        <pt x="544" y="680" on="1"/>
        <pt x="733" y="52" on="0"/>
        <pt x="733" y="32" on="0"/>
        <pt x="721" y="22" on="1"/>
        <pt x="693" y="0" on="0"/>
        <pt x="610" y="0" on="1"/>
        <pt x="433" y="0" on="0"/>
        <pt x="429" y="42" on="1"/>
        <pt x="422" y="107" on="1"/>
        <pt x="326" y="107" on="1"/>
        <pt x="321" y="51" on="1"/>
      </contour>
      <contour>
        <pt x="401" y="297" on="1"/>
        <pt x="386" y="477" on="1"/>
        <pt x="364" y="477" on="1"/>
        <pt x="347" y="297" on="1"/>
      </contour>
      <contour>
        <pt x="623" y="804" on="0"/>
        <pt x="520" y="740" on="0"/>
        <pt x="443" y="740" on="0"/>
        <pt x="336" y="775" on="0"/>
        <pt x="305" y="775" on="0"/>
        <pt x="217" y="740" on="0"/>
        <pt x="181" y="740" on="0"/>
        <pt x="142" y="811" on="0"/>
        <pt x="142" y="830" on="1"/>
        <pt x="142" y="847" on="0"/>
        <pt x="251" y="910" on="0"/>
        <pt x="323" y="910" on="0"/>
        <pt x="428" y="876" on="0"/>
        <pt x="451" y="876" on="1"/>
        <pt x="458" y="876" on="0"/>
        <pt x="543" y="910" on="0"/>
        <pt x="582" y="910" on="0"/>
        <pt x="623" y="836" on="0"/>
        <pt x="623" y="819" on="1"/>
      </contour>
    </TTGlyph>
    <TTGlyph name="B" xMin="40" yMin="0" xMax="675" yMax="720">
      <contour>
        <pt x="343" y="0" on="1"/>
        <pt x="124" y="0" on="1"/>
        <pt x="74" y="0" on="0"/>
        <pt x="40" y="14" on="0"/>
        <pt x="40" y="29" on="1"/>
        <pt x="40" y="672" on="1"/>
        <pt x="40" y="720" on="0"/>
        <pt x="329" y="720" on="1"/>
        <pt x="495" y="720" on="0"/>
        <pt x="558" y="688" on="1"/>
        <pt x="622" y="655" on="0"/>
        <pt x="640" y="604" on="1"/>
        <pt x="650" y="574" on="0"/>
        <pt x="650" y="534" on="1"/>
        <pt x="650" y="456" on="0"/>
        <pt x="597" y="378" on="0"/>
        <pt x="566" y="373" on="1"/>
        <pt x="613" y="363" on="0"/>
        <pt x="675" y="291" on="0"/>
        <pt x="675" y="205" on="1"/>
        <pt x="675" y="105" on="0"/>
        <pt x="614" y="57" on="1"/>
        <pt x="561" y="15" on="0"/>
        <pt x="452" y="4" on="1"/>
        <pt x="406" y="0" on="0"/>
      </contour>
      <contour>
        <pt x="344" y="436" on="1"/>
        <pt x="395" y="436" on="0"/>
        <pt x="395" y="504" on="1"/>
        <pt x="395" y="538" on="0"/>
        <pt x="368" y="571" on="0"/>
        <pt x="351" y="571" on="1"/>
        <pt x="319" y="571" on="1"/>
        <pt x="319" y="436" on="1"/>
      </contour>
      <contour>
        <pt x="319" y="149" on="1"/>
        <pt x="344" y="149" on="1"/>
        <pt x="395" y="149" on="0"/>
        <pt x="395" y="217" on="1"/>
        <pt x="395" y="251" on="0"/>
        <pt x="368" y="284" on="0"/>
        <pt x="351" y="284" on="1"/>
        <pt x="319" y="284" on="1"/>
      </contour>
    </TTGlyph>
    <TTGlyph name="B.sc" xMin="50" yMin="0" xMax="684" yMax="607">
      <contour>
        <pt x="353" y="0" on="1"/>
        <pt x="134" y="0" on="1"/>
        <pt x="84" y="0" on="0"/>
        <pt x="50" y="11" on="0"/>
        <pt x="50" y="24" on="1"/>
        <pt x="50" y="566" on="1"/>
        <pt x="50" y="586" on="0"/>
        <pt x="212" y="607" on="0"/>
        <pt x="415" y="607" on="0"/>
        <pt x="520" y="596" on="0"/>
        <pt x="567" y="580" on="1"/>
        <pt x="660" y="547" on="0"/>
        <pt x="660" y="447" on="1"/>
        <pt x="660" y="382" on="0"/>
        <pt x="608" y="322" on="0"/>
        <pt x="576" y="319" on="1"/>
        <pt x="684" y="299" on="0"/>
        <pt x="684" y="171" on="1"/>
        <pt x="684" y="108" on="0"/>
        <pt x="652" y="64" on="1"/>
        <pt x="631" y="35" on="0"/>
        <pt x="565" y="15" on="1"/>
        <pt x="522" y="2" on="0"/>
        <pt x="403" y="0" on="0"/>
      </contour>
      <contour>
        <pt x="329" y="364" on="1"/>
        <pt x="354" y="364" on="1"/>
        <pt x="381" y="364" on="0"/>
        <pt x="405" y="383" on="0"/>
        <pt x="405" y="414" on="1"/>
        <pt x="405" y="463" on="0"/>
        <pt x="361" y="463" on="1"/>
        <pt x="329" y="463" on="1"/>
      </contour>
      <contour>
        <pt x="329" y="144" on="1"/>
        <pt x="354" y="144" on="1"/>
        <pt x="381" y="144" on="0"/>
        <pt x="405" y="162" on="0"/>
        <pt x="405" y="193" on="1"/>
        <pt x="405" y="243" on="0"/>
        <pt x="361" y="243" on="1"/>
        <pt x="329" y="243" on="1"/>
      </contour>
    </TTGlyph>
    <TTGlyph name="C" xMin="30" yMin="-9" xMax="626" yMax="720">
      <contour>
        <pt x="501" y="-2" on="0"/>
        <pt x="418" y="-9" on="0"/>
        <pt x="339" y="-9" on="0"/>
        <pt x="296" y="-5" on="0"/>
        <pt x="226" y="11" on="0"/>
        <pt x="168" y="39" on="0"/>
        <pt x="103" y="93" on="0"/>
        <pt x="81" y="130" on="1"/>
        <pt x="30" y="216" on="0"/>
        <pt x="30" y="352" on="1"/>
        <pt x="30" y="443" on="0"/>
        <pt x="87" y="583" on="0"/>
        <pt x="168" y="659" on="0"/>
        <pt x="220" y="682" on="1"/>
        <pt x="304" y="720" on="0"/>
        <pt x="389" y="720" on="1"/>
        <pt x="511" y="720" on="0"/>
        <pt x="564" y="700" on="1"/>
        <pt x="588" y="691" on="0"/>
        <pt x="626" y="653" on="0"/>
        <pt x="626" y="581" on="0"/>
        <pt x="591" y="471" on="0"/>
        <pt x="558" y="471" on="1"/>
        <pt x="548" y="471" on="0"/>
        <pt x="420" y="503" on="0"/>
        <pt x="397" y="503" on="1"/>
        <pt x="362" y="503" on="0"/>
        <pt x="313" y="425" on="0"/>
        <pt x="313" y="281" on="0"/>
        <pt x="356" y="201" on="0"/>
        <pt x="391" y="201" on="1"/>
        <pt x="416" y="201" on="0"/>
        <pt x="547" y="242" on="0"/>
        <pt x="558" y="242" on="1"/>
        <pt x="589" y="242" on="0"/>
        <pt x="624" y="128" on="0"/>
        <pt x="624" y="58" on="0"/>
        <pt x="581" y="17" on="0"/>
      </contour>
    </TTGlyph>
    <TTGlyph name="C.sc" xMin="40" yMin="-9" xMax="616" yMax="607">
      <contour>
        <pt x="366" y="-9" on="1"/>
        <pt x="264" y="-9" on="0"/>
        <pt x="204" y="16" on="1"/>
        <pt x="176" y="28" on="0"/>
        <pt x="112" y="73" on="0"/>
        <pt x="90" y="104" on="1"/>
        <pt x="40" y="178" on="0"/>
        <pt x="40" y="297" on="1"/>
        <pt x="40" y="366" on="0"/>
        <pt x="78" y="474" on="0"/>
        <pt x="144" y="538" on="0"/>
        <pt x="216" y="581" on="0"/>
        <pt x="260" y="590" on="1"/>
        <pt x="338" y="607" on="0"/>
        <pt x="445" y="607" on="0"/>
        <pt x="505" y="605" on="0"/>
        <pt x="566" y="596" on="0"/>
        <pt x="582" y="588" on="1"/>
        <pt x="616" y="569" on="0"/>
        <pt x="616" y="490" on="0"/>
        <pt x="582" y="384" on="0"/>
        <pt x="550" y="384" on="1"/>
        <pt x="540" y="384" on="0"/>
        <pt x="423" y="411" on="0"/>
        <pt x="401" y="411" on="1"/>
        <pt x="323" y="411" on="0"/>
        <pt x="323" y="182" on="0"/>
        <pt x="395" y="182" on="1"/>
        <pt x="419" y="182" on="0"/>
        <pt x="539" y="216" on="0"/>
        <pt x="550" y="216" on="1"/>
        <pt x="580" y="216" on="0"/>
        <pt x="614" y="111" on="0"/>
        <pt x="614" y="76" on="1"/>
        <pt x="614" y="-9" on="0"/>
      </contour>
    </TTGlyph>
    <TTGlyph name="Cacute" xMin="35" yMin="-9" xMax="631" yMax="910">
      <contour>
        <pt x="344" y="-9" on="0"/>
        <pt x="301" y="-5" on="0"/>
        <pt x="231" y="11" on="0"/>
        <pt x="173" y="39" on="0"/>
        <pt x="108" y="93" on="0"/>
        <pt x="64" y="167" on="0"/>
        <pt x="35" y="281" on="0"/>
        <pt x="35" y="443" on="0"/>
        <pt x="92" y="583" on="0"/>
        <pt x="173" y="659" on="0"/>
        <pt x="278" y="706" on="0"/>
        <pt x="358" y="720" on="0"/>
        <pt x="460" y="720" on="0"/>
        <pt x="506" y="714" on="1"/>
        <pt x="545" y="709" on="0"/>
        <pt x="593" y="691" on="0"/>
        <pt x="631" y="653" on="0"/>
        <pt x="631" y="581" on="0"/>
        <pt x="596" y="471" on="0"/>
        <pt x="563" y="471" on="1"/>
        <pt x="553" y="471" on="0"/>
        <pt x="425" y="503" on="0"/>
        <pt x="402" y="503" on="1"/>
        <pt x="367" y="503" on="0"/>
        <pt x="318" y="425" on="0"/>
        <pt x="318" y="281" on="0"/>
        <pt x="361" y="201" on="0"/>
        <pt x="396" y="201" on="1"/>
        <pt x="421" y="201" on="0"/>
        <pt x="552" y="242" on="0"/>
        <pt x="563" y="242" on="1"/>
        <pt x="594" y="242" on="0"/>
        <pt x="629" y="128" on="0"/>
        <pt x="629" y="88" on="1"/>
        <pt x="629" y="27" on="0"/>
        <pt x="546" y="8" on="1"/>
        <pt x="506" y="-2" on="0"/>
        <pt x="423" y="-9" on="0"/>
      </contour>
      <contour>
        <pt x="478" y="910" on="1"/>
        <pt x="501" y="910" on="0"/>
        <pt x="548" y="834" on="0"/>
        <pt x="548" y="778" on="1"/>
        <pt x="548" y="763" on="0"/>
        <pt x="375" y="740" on="0"/>
        <pt x="318" y="740" on="1"/>
        <pt x="299" y="740" on="0"/>
        <pt x="268" y="788" on="0"/>
        <pt x="268" y="851" on="0"/>
        <pt x="417" y="910" on="0"/>
      </contour>
    </TTGlyph>
    <TTGlyph name="Ccaron" xMin="35" yMin="-9" xMax="631" yMax="910">
      <contour>
        <pt x="506" y="-2" on="0"/>
        <pt x="423" y="-9" on="0"/>
        <pt x="344" y="-9" on="0"/>
        <pt x="301" y="-5" on="0"/>
        <pt x="231" y="11" on="0"/>
        <pt x="173" y="39" on="0"/>
        <pt x="108" y="93" on="0"/>
        <pt x="86" y="130" on="1"/>
        <pt x="35" y="216" on="0"/>
        <pt x="35" y="352" on="1"/>
        <pt x="35" y="443" on="0"/>
        <pt x="92" y="583" on="0"/>
        <pt x="173" y="659" on="0"/>
        <pt x="226" y="682" on="1"/>
        <pt x="309" y="720" on="0"/>
        <pt x="394" y="720" on="1"/>
        <pt x="516" y="720" on="0"/>
        <pt x="569" y="700" on="1"/>
        <pt x="593" y="691" on="0"/>
        <pt x="631" y="653" on="0"/>
        <pt x="631" y="581" on="0"/>
        <pt x="596" y="471" on="0"/>
        <pt x="563" y="471" on="1"/>
        <pt x="553" y="471" on="0"/>
        <pt x="425" y="503" on="0"/>
        <pt x="402" y="503" on="1"/>
        <pt x="367" y="503" on="0"/>
        <pt x="318" y="425" on="0"/>
        <pt x="318" y="281" on="0"/>
        <pt x="361" y="201" on="0"/>
        <pt x="396" y="201" on="1"/>
        <pt x="421" y="201" on="0"/>
        <pt x="552" y="242" on="0"/>
        <pt x="563" y="242" on="1"/>
        <pt x="594" y="242" on="0"/>
        <pt x="629" y="128" on="0"/>
        <pt x="629" y="58" on="0"/>
        <pt x="586" y="17" on="0"/>
      </contour>
      <contour>
        <pt x="573" y="808" on="0"/>
        <pt x="431" y="740" on="0"/>
        <pt x="360" y="740" on="0"/>
        <pt x="213" y="809" on="0"/>
        <pt x="213" y="820" on="1"/>
        <pt x="213" y="855" on="0"/>
        <pt x="235" y="910" on="0"/>
        <pt x="253" y="910" on="1"/>
        <pt x="266" y="910" on="0"/>
        <pt x="393" y="871" on="1"/>
        <pt x="519" y="910" on="0"/>
        <pt x="533" y="910" on="1"/>
        <pt x="551" y="910" on="0"/>
        <pt x="573" y="855" on="0"/>
        <pt x="573" y="820" on="1"/>
      </contour>
    </TTGlyph>
    <TTGlyph name="Ccedilla" xMin="35" yMin="-175" xMax="631" yMax="720">
      <contour>
        <pt x="423" y="-9" on="0"/>
        <pt x="506" y="-2" on="0"/>
        <pt x="586" y="17" on="0"/>
        <pt x="629" y="58" on="0"/>
        <pt x="629" y="128" on="0"/>
        <pt x="594" y="242" on="0"/>
        <pt x="563" y="242" on="1"/>
        <pt x="552" y="242" on="0"/>
        <pt x="421" y="201" on="0"/>
        <pt x="396" y="201" on="1"/>
        <pt x="361" y="201" on="0"/>
        <pt x="318" y="281" on="0"/>
        <pt x="318" y="425" on="0"/>
        <pt x="367" y="503" on="0"/>
        <pt x="402" y="503" on="1"/>
        <pt x="425" y="503" on="0"/>
        <pt x="553" y="471" on="0"/>
        <pt x="563" y="471" on="1"/>
        <pt x="596" y="471" on="0"/>
        <pt x="631" y="581" on="0"/>
        <pt x="631" y="653" on="0"/>
        <pt x="593" y="691" on="0"/>
        <pt x="569" y="700" on="1"/>
        <pt x="516" y="720" on="0"/>
        <pt x="394" y="720" on="1"/>
        <pt x="309" y="720" on="0"/>
        <pt x="226" y="682" on="1"/>
        <pt x="173" y="659" on="0"/>
        <pt x="92" y="583" on="0"/>
        <pt x="35" y="443" on="0"/>
        <pt x="35" y="352" on="1"/>
        <pt x="35" y="216" on="0"/>
        <pt x="86" y="130" on="1"/>
        <pt x="108" y="93" on="0"/>
        <pt x="173" y="39" on="0"/>
        <pt x="231" y="11" on="0"/>
        <pt x="301" y="-5" on="0"/>
        <pt x="344" y="-9" on="0"/>
      </contour>
      <contour>
        <pt x="356" y="-84" on="1"/>
        <pt x="327" y="-85" on="1"/>
        <pt x="311" y="-85" on="0"/>
        <pt x="311" y="-54" on="1"/>
        <pt x="311" y="-7" on="1"/>
        <pt x="311" y="1" on="0"/>
        <pt x="359" y="15" on="0"/>
        <pt x="412" y="15" on="0"/>
        <pt x="412" y="0" on="1"/>
        <pt x="412" y="-25" on="1"/>
        <pt x="499" y="-28" on="0"/>
        <pt x="499" y="-94" on="1"/>
        <pt x="499" y="-125" on="0"/>
        <pt x="439" y="-164" on="0"/>
        <pt x="372" y="-175" on="0"/>
        <pt x="334" y="-175" on="1"/>
        <pt x="326" y="-175" on="0"/>
        <pt x="316" y="-144" on="0"/>
        <pt x="316" y="-110" on="0"/>
        <pt x="324" y="-110" on="1"/>
        <pt x="398" y="-110" on="0"/>
        <pt x="398" y="-94" on="1"/>
        <pt x="398" y="-84" on="0"/>
      </contour>
    </TTGlyph>
    <TTGlyph name="Ccircumflex" xMin="35" yMin="-9" xMax="631" yMax="910">
      <contour>
        <pt x="344" y="-9" on="0"/>
        <pt x="301" y="-5" on="0"/>
        <pt x="231" y="11" on="0"/>
        <pt x="173" y="39" on="0"/>
        <pt x="108" y="93" on="0"/>
        <pt x="64" y="167" on="0"/>
        <pt x="35" y="281" on="0"/>
        <pt x="35" y="443" on="0"/>
        <pt x="92" y="583" on="0"/>
        <pt x="173" y="659" on="0"/>
        <pt x="278" y="706" on="0"/>
        <pt x="358" y="720" on="0"/>
        <pt x="460" y="720" on="0"/>
        <pt x="506" y="714" on="1"/>
        <pt x="545" y="709" on="0"/>
        <pt x="593" y="691" on="0"/>
        <pt x="631" y="653" on="0"/>
        <pt x="631" y="581" on="0"/>
        <pt x="596" y="471" on="0"/>
        <pt x="563" y="471" on="1"/>
        <pt x="553" y="471" on="0"/>
        <pt x="425" y="503" on="0"/>
        <pt x="402" y="503" on="1"/>
        <pt x="367" y="503" on="0"/>
        <pt x="318" y="425" on="0"/>
        <pt x="318" y="281" on="0"/>
        <pt x="361" y="201" on="0"/>
        <pt x="396" y="201" on="1"/>
        <pt x="421" y="201" on="0"/>
        <pt x="552" y="242" on="0"/>
        <pt x="563" y="242" on="1"/>
        <pt x="594" y="242" on="0"/>
        <pt x="629" y="128" on="0"/>
        <pt x="629" y="88" on="1"/>
        <pt x="629" y="27" on="0"/>
        <pt x="546" y="8" on="1"/>
        <pt x="506" y="-2" on="0"/>
        <pt x="423" y="-9" on="0"/>
      </contour>
      <contour>
        <pt x="215" y="841" on="0"/>
        <pt x="362" y="910" on="0"/>
        <pt x="433" y="910" on="0"/>
        <pt x="575" y="842" on="0"/>
        <pt x="575" y="830" on="1"/>
        <pt x="575" y="795" on="0"/>
        <pt x="553" y="740" on="0"/>
        <pt x="535" y="740" on="1"/>
        <pt x="521" y="740" on="0"/>
        <pt x="395" y="779" on="1"/>
        <pt x="268" y="740" on="0"/>
        <pt x="255" y="740" on="1"/>
        <pt x="237" y="740" on="0"/>
        <pt x="215" y="795" on="0"/>
        <pt x="215" y="830" on="1"/>
      </contour>
    </TTGlyph>
    <TTGlyph name="Cdotaccent" xMin="35" yMin="-9" xMax="631" yMax="910">
      <contour>
        <pt x="344" y="-9" on="0"/>
        <pt x="301" y="-5" on="0"/>
        <pt x="231" y="11" on="0"/>
        <pt x="173" y="39" on="0"/>
        <pt x="108" y="93" on="0"/>
        <pt x="64" y="167" on="0"/>
        <pt x="35" y="281" on="0"/>
        <pt x="35" y="443" on="0"/>
        <pt x="92" y="583" on="0"/>
        <pt x="173" y="659" on="0"/>
        <pt x="278" y="706" on="0"/>
        <pt x="358" y="720" on="0"/>
        <pt x="460" y="720" on="0"/>
        <pt x="506" y="714" on="1"/>
        <pt x="545" y="709" on="0"/>
        <pt x="593" y="691" on="0"/>
        <pt x="631" y="653" on="0"/>
        <pt x="631" y="581" on="0"/>
        <pt x="596" y="471" on="0"/>
        <pt x="563" y="471" on="1"/>
        <pt x="553" y="471" on="0"/>
        <pt x="425" y="503" on="0"/>
        <pt x="402" y="503" on="1"/>
        <pt x="367" y="503" on="0"/>
        <pt x="318" y="425" on="0"/>
        <pt x="318" y="281" on="0"/>
        <pt x="361" y="201" on="0"/>
        <pt x="396" y="201" on="1"/>
        <pt x="421" y="201" on="0"/>
        <pt x="552" y="242" on="0"/>
        <pt x="563" y="242" on="1"/>
        <pt x="594" y="242" on="0"/>
        <pt x="629" y="128" on="0"/>
        <pt x="629" y="88" on="1"/>
        <pt x="629" y="27" on="0"/>
        <pt x="546" y="8" on="1"/>
        <pt x="506" y="-2" on="0"/>
        <pt x="423" y="-9" on="0"/>
      </contour>
      <contour>
        <pt x="405" y="910" on="0"/>
        <pt x="439" y="908" on="0"/>
        <pt x="480" y="899" on="0"/>
        <pt x="491" y="890" on="1"/>
        <pt x="518" y="868" on="0"/>
        <pt x="518" y="775" on="0"/>
        <pt x="445" y="740" on="0"/>
        <pt x="312" y="740" on="0"/>
        <pt x="238" y="775" on="0"/>
        <pt x="238" y="825" on="1"/>
        <pt x="238" y="878" on="0"/>
        <pt x="280" y="896" on="1"/>
        <pt x="316" y="910" on="0"/>
      </contour>
    </TTGlyph>
    <TTGlyph name="D" xMin="40" yMin="0" xMax="701" yMax="710">
      <contour>
        <pt x="359" y="0" on="1"/>
        <pt x="123" y="0" on="1"/>
        <pt x="74" y="0" on="0"/>
        <pt x="40" y="14" on="0"/>
        <pt x="40" y="30" on="1"/>
        <pt x="40" y="661" on="1"/>
        <pt x="40" y="687" on="0"/>
        <pt x="84" y="710" on="0"/>
        <pt x="138" y="710" on="1"/>
        <pt x="363" y="710" on="1"/>
        <pt x="555" y="710" on="0"/>
        <pt x="701" y="559" on="0"/>
        <pt x="701" y="161" on="0"/>
        <pt x="549" y="0" on="0"/>
      </contour>
      <contour>
        <pt x="351" y="561" on="1"/>
        <pt x="327" y="561" on="0"/>
        <pt x="319" y="557" on="1"/>
        <pt x="319" y="153" on="1"/>
        <pt x="357" y="149" on="1"/>
        <pt x="387" y="149" on="0"/>
        <pt x="418" y="245" on="0"/>
        <pt x="418" y="481" on="0"/>
        <pt x="386" y="561" on="0"/>
      </contour>
    </TTGlyph>
    <TTGlyph name="D.sc" xMin="50" yMin="0" xMax="712" yMax="600">
      <contour>
        <pt x="370" y="0" on="1"/>
        <pt x="133" y="0" on="1"/>
        <pt x="84" y="0" on="0"/>
        <pt x="50" y="11" on="0"/>
        <pt x="50" y="24" on="1"/>
        <pt x="50" y="560" on="1"/>
        <pt x="50" y="581" on="0"/>
        <pt x="94" y="600" on="0"/>
        <pt x="148" y="600" on="1"/>
        <pt x="374" y="600" on="1"/>
        <pt x="565" y="600" on="0"/>
        <pt x="712" y="471" on="0"/>
        <pt x="712" y="140" on="0"/>
        <pt x="559" y="0" on="0"/>
      </contour>
      <contour>
        <pt x="412" y="161" on="0"/>
        <pt x="429" y="228" on="0"/>
        <pt x="429" y="364" on="0"/>
        <pt x="412" y="437" on="0"/>
        <pt x="386" y="455" on="0"/>
        <pt x="362" y="455" on="1"/>
        <pt x="329" y="452" on="1"/>
        <pt x="329" y="148" on="1"/>
        <pt x="368" y="146" on="1"/>
        <pt x="390" y="146" on="0"/>
      </contour>
    </TTGlyph>
    <TTGlyph name="Dcaron" xMin="45" yMin="0" xMax="706" yMax="910">
      <contour>
        <pt x="364" y="0" on="1"/>
        <pt x="128" y="0" on="1"/>
        <pt x="79" y="0" on="0"/>
        <pt x="45" y="14" on="0"/>
        <pt x="45" y="30" on="1"/>
        <pt x="45" y="661" on="1"/>
        <pt x="45" y="687" on="0"/>
        <pt x="89" y="710" on="0"/>
        <pt x="143" y="710" on="1"/>
        <pt x="368" y="710" on="1"/>
        <pt x="560" y="710" on="0"/>
        <pt x="706" y="559" on="0"/>
        <pt x="706" y="161" on="0"/>
        <pt x="554" y="0" on="0"/>
      </contour>
      <contour>
        <pt x="356" y="561" on="1"/>
        <pt x="332" y="561" on="0"/>
        <pt x="324" y="557" on="1"/>
        <pt x="324" y="153" on="1"/>
        <pt x="362" y="149" on="1"/>
        <pt x="392" y="149" on="0"/>
        <pt x="423" y="245" on="0"/>
        <pt x="423" y="481" on="0"/>
        <pt x="391" y="561" on="0"/>
      </contour>
      <contour>
        <pt x="539" y="808" on="0"/>
        <pt x="397" y="740" on="0"/>
        <pt x="326" y="740" on="0"/>
        <pt x="179" y="809" on="0"/>
        <pt x="179" y="820" on="1"/>
        <pt x="179" y="855" on="0"/>
        <pt x="201" y="910" on="0"/>
        <pt x="219" y="910" on="1"/>
        <pt x="232" y="910" on="0"/>
        <pt x="359" y="871" on="1"/>
        <pt x="485" y="910" on="0"/>
        <pt x="499" y="910" on="1"/>
        <pt x="517" y="910" on="0"/>
        <pt x="539" y="855" on="0"/>
        <pt x="539" y="820" on="1"/>
      </contour>
    </TTGlyph>
    <TTGlyph name="Dcroat" xMin="10" yMin="0" xMax="741" yMax="710">
      <contour>
        <pt x="80" y="273" on="1"/>
        <pt x="37" y="273" on="1"/>
        <pt x="26" y="273" on="0"/>
        <pt x="10" y="310" on="0"/>
        <pt x="10" y="379" on="0"/>
        <pt x="54" y="450" on="0"/>
        <pt x="75" y="450" on="1"/>
        <pt x="80" y="450" on="1"/>
        <pt x="80" y="661" on="1"/>
        <pt x="80" y="687" on="0"/>
        <pt x="124" y="710" on="0"/>
        <pt x="178" y="710" on="1"/>
        <pt x="403" y="710" on="1"/>
        <pt x="595" y="710" on="0"/>
        <pt x="741" y="559" on="0"/>
        <pt x="741" y="161" on="0"/>
        <pt x="589" y="0" on="0"/>
        <pt x="399" y="0" on="1"/>
        <pt x="163" y="0" on="1"/>
        <pt x="114" y="0" on="0"/>
        <pt x="80" y="14" on="0"/>
        <pt x="80" y="30" on="1"/>
      </contour>
      <contour>
        <pt x="391" y="561" on="1"/>
        <pt x="367" y="561" on="0"/>
        <pt x="359" y="557" on="1"/>
        <pt x="359" y="450" on="1"/>
        <pt x="399" y="450" on="1"/>
        <pt x="425" y="450" on="0"/>
        <pt x="425" y="385" on="1"/>
        <pt x="425" y="352" on="0"/>
        <pt x="383" y="273" on="0"/>
        <pt x="364" y="273" on="1"/>
        <pt x="359" y="273" on="1"/>
        <pt x="359" y="152" on="1"/>
        <pt x="374" y="149" on="0"/>
        <pt x="397" y="149" on="1"/>
        <pt x="427" y="149" on="0"/>
        <pt x="458" y="245" on="0"/>
        <pt x="458" y="481" on="0"/>
        <pt x="426" y="561" on="0"/>
      </contour>
    </TTGlyph>
    <TTGlyph name="E" xMin="40" yMin="0" xMax="580" yMax="710">
      <contour>
        <pt x="547" y="0" on="1"/>
        <pt x="123" y="0" on="1"/>
        <pt x="74" y="0" on="0"/>
        <pt x="40" y="14" on="0"/>
        <pt x="40" y="29" on="1"/>
        <pt x="40" y="662" on="1"/>
        <pt x="40" y="688" on="0"/>
        <pt x="87" y="710" on="0"/>
        <pt x="148" y="710" on="1"/>
        <pt x="550" y="710" on="1"/>
        <pt x="571" y="710" on="0"/>
        <pt x="571" y="571" on="0"/>
        <pt x="553" y="498" on="0"/>
        <pt x="538" y="498" on="1"/>
        <pt x="473" y="498" on="0"/>
        <pt x="319" y="511" on="1"/>
        <pt x="319" y="444" on="1"/>
        <pt x="467" y="450" on="0"/>
        <pt x="512" y="450" on="1"/>
        <pt x="539" y="450" on="0"/>
        <pt x="539" y="324" on="0"/>
        <pt x="518" y="259" on="0"/>
        <pt x="500" y="259" on="1"/>
        <pt x="319" y="263" on="1"/>
        <pt x="319" y="199" on="1"/>
        <pt x="493" y="212" on="0"/>
        <pt x="559" y="212" on="1"/>
        <pt x="580" y="212" on="0"/>
        <pt x="580" y="72" on="0"/>
        <pt x="562" y="0" on="0"/>
      </contour>
    </TTGlyph>
    <TTGlyph name="E.sc" xMin="50" yMin="0" xMax="599" yMax="600">
      <contour>
        <pt x="566" y="0" on="1"/>
        <pt x="133" y="0" on="1"/>
        <pt x="84" y="0" on="0"/>
        <pt x="50" y="11" on="0"/>
        <pt x="50" y="24" on="1"/>
        <pt x="50" y="560" on="1"/>
        <pt x="50" y="582" on="0"/>
        <pt x="97" y="600" on="0"/>
        <pt x="157" y="600" on="1"/>
        <pt x="569" y="600" on="1"/>
        <pt x="590" y="600" on="0"/>
        <pt x="590" y="481" on="0"/>
        <pt x="572" y="414" on="0"/>
        <pt x="557" y="414" on="1"/>
        <pt x="329" y="425" on="1"/>
        <pt x="329" y="375" on="1"/>
        <pt x="486" y="380" on="0"/>
        <pt x="531" y="380" on="1"/>
        <pt x="558" y="380" on="0"/>
        <pt x="558" y="273" on="0"/>
        <pt x="537" y="217" on="0"/>
        <pt x="519" y="217" on="1"/>
        <pt x="329" y="221" on="1"/>
        <pt x="329" y="175" on="1"/>
        <pt x="512" y="185" on="0"/>
        <pt x="578" y="185" on="1"/>
        <pt x="599" y="185" on="0"/>
        <pt x="599" y="66" on="0"/>
        <pt x="581" y="0" on="0"/>
      </contour>
    </TTGlyph>
    <TTGlyph name="Eacute" xMin="45" yMin="0" xMax="585" yMax="910">
      <contour>
        <pt x="552" y="0" on="1"/>
        <pt x="128" y="0" on="1"/>
        <pt x="79" y="0" on="0"/>
        <pt x="45" y="14" on="0"/>
        <pt x="45" y="29" on="1"/>
        <pt x="45" y="662" on="1"/>
        <pt x="45" y="688" on="0"/>
        <pt x="92" y="710" on="0"/>
        <pt x="153" y="710" on="1"/>
        <pt x="555" y="710" on="1"/>
        <pt x="576" y="710" on="0"/>
        <pt x="576" y="571" on="0"/>
        <pt x="558" y="498" on="0"/>
        <pt x="543" y="498" on="1"/>
        <pt x="478" y="498" on="0"/>
        <pt x="324" y="511" on="1"/>
        <pt x="324" y="444" on="1"/>
        <pt x="472" y="450" on="0"/>
        <pt x="517" y="450" on="1"/>
        <pt x="544" y="450" on="0"/>
        <pt x="544" y="324" on="0"/>
        <pt x="523" y="259" on="0"/>
        <pt x="505" y="259" on="1"/>
        <pt x="324" y="263" on="1"/>
        <pt x="324" y="199" on="1"/>
        <pt x="498" y="212" on="0"/>
        <pt x="564" y="212" on="1"/>
        <pt x="585" y="212" on="0"/>
        <pt x="585" y="72" on="0"/>
        <pt x="567" y="0" on="0"/>
      </contour>
      <contour>
        <pt x="417" y="910" on="1"/>
        <pt x="440" y="910" on="0"/>
        <pt x="487" y="834" on="0"/>
        <pt x="487" y="778" on="1"/>
        <pt x="487" y="763" on="0"/>
        <pt x="314" y="740" on="0"/>
        <pt x="257" y="740" on="1"/>
        <pt x="238" y="740" on="0"/>
        <pt x="207" y="788" on="0"/>
        <pt x="207" y="851" on="0"/>
        <pt x="356" y="910" on="0"/>
      </contour>
    </TTGlyph>
    <TTGlyph name="Ebreve" xMin="45" yMin="0" xMax="585" yMax="900">
      <contour>
        <pt x="552" y="0" on="1"/>
        <pt x="128" y="0" on="1"/>
        <pt x="79" y="0" on="0"/>
        <pt x="45" y="14" on="0"/>
        <pt x="45" y="29" on="1"/>
        <pt x="45" y="662" on="1"/>
        <pt x="45" y="688" on="0"/>
        <pt x="92" y="710" on="0"/>
        <pt x="153" y="710" on="1"/>
        <pt x="555" y="710" on="1"/>
        <pt x="576" y="710" on="0"/>
        <pt x="576" y="571" on="0"/>
        <pt x="558" y="498" on="0"/>
        <pt x="543" y="498" on="1"/>
        <pt x="478" y="498" on="0"/>
        <pt x="324" y="511" on="1"/>
        <pt x="324" y="444" on="1"/>
        <pt x="472" y="450" on="0"/>
        <pt x="517" y="450" on="1"/>
        <pt x="544" y="450" on="0"/>
        <pt x="544" y="324" on="0"/>
        <pt x="523" y="259" on="0"/>
        <pt x="505" y="259" on="1"/>
        <pt x="324" y="263" on="1"/>
        <pt x="324" y="199" on="1"/>
        <pt x="498" y="212" on="0"/>
        <pt x="564" y="212" on="1"/>
        <pt x="585" y="212" on="0"/>
        <pt x="585" y="72" on="0"/>
        <pt x="567" y="0" on="0"/>
      </contour>
      <contour>
        <pt x="300" y="868" on="1"/>
        <pt x="300" y="821" on="0"/>
        <pt x="347" y="821" on="0"/>
        <pt x="347" y="868" on="1"/>
        <pt x="347" y="900" on="0"/>
        <pt x="466" y="900" on="0"/>
        <pt x="466" y="870" on="1"/>
        <pt x="466" y="795" on="0"/>
        <pt x="391" y="740" on="0"/>
        <pt x="255" y="740" on="0"/>
        <pt x="182" y="793" on="0"/>
        <pt x="182" y="870" on="1"/>
        <pt x="182" y="900" on="0"/>
        <pt x="300" y="900" on="0"/>
      </contour>
    </TTGlyph>
    <TTGlyph name="Ecaron" xMin="45" yMin="0" xMax="585" yMax="910">
      <contour>
        <pt x="552" y="0" on="1"/>
        <pt x="128" y="0" on="1"/>
        <pt x="79" y="0" on="0"/>
        <pt x="45" y="14" on="0"/>
        <pt x="45" y="29" on="1"/>
        <pt x="45" y="662" on="1"/>
        <pt x="45" y="688" on="0"/>
        <pt x="92" y="710" on="0"/>
        <pt x="153" y="710" on="1"/>
        <pt x="555" y="710" on="1"/>
        <pt x="576" y="710" on="0"/>
        <pt x="576" y="571" on="0"/>
        <pt x="558" y="498" on="0"/>
        <pt x="543" y="498" on="1"/>
        <pt x="478" y="498" on="0"/>
        <pt x="324" y="511" on="1"/>
        <pt x="324" y="444" on="1"/>
        <pt x="472" y="450" on="0"/>
        <pt x="517" y="450" on="1"/>
        <pt x="544" y="450" on="0"/>
        <pt x="544" y="324" on="0"/>
        <pt x="523" y="259" on="0"/>
        <pt x="505" y="259" on="1"/>
        <pt x="324" y="263" on="1"/>
        <pt x="324" y="199" on="1"/>
        <pt x="498" y="212" on="0"/>
        <pt x="564" y="212" on="1"/>
        <pt x="585" y="212" on="0"/>
        <pt x="585" y="72" on="0"/>
        <pt x="567" y="0" on="0"/>
      </contour>
      <contour>
        <pt x="501" y="808" on="0"/>
        <pt x="359" y="740" on="0"/>
        <pt x="288" y="740" on="0"/>
        <pt x="141" y="809" on="0"/>
        <pt x="141" y="820" on="1"/>
        <pt x="141" y="855" on="0"/>
        <pt x="163" y="910" on="0"/>
        <pt x="181" y="910" on="1"/>
        <pt x="194" y="910" on="0"/>
        <pt x="321" y="871" on="1"/>
        <pt x="447" y="910" on="0"/>
        <pt x="461" y="910" on="1"/>
        <pt x="479" y="910" on="0"/>
        <pt x="501" y="855" on="0"/>
        <pt x="501" y="820" on="1"/>
      </contour>
    </TTGlyph>
    <TTGlyph name="Ecircumflex" xMin="45" yMin="0" xMax="585" yMax="900">
      <contour>
        <pt x="552" y="0" on="1"/>
        <pt x="128" y="0" on="1"/>
        <pt x="79" y="0" on="0"/>
        <pt x="45" y="14" on="0"/>
        <pt x="45" y="29" on="1"/>
        <pt x="45" y="662" on="1"/>
        <pt x="45" y="688" on="0"/>
        <pt x="92" y="710" on="0"/>
        <pt x="153" y="710" on="1"/>
        <pt x="555" y="710" on="1"/>
        <pt x="576" y="710" on="0"/>
        <pt x="576" y="571" on="0"/>
        <pt x="558" y="498" on="0"/>
        <pt x="543" y="498" on="1"/>
        <pt x="478" y="498" on="0"/>
        <pt x="324" y="511" on="1"/>
        <pt x="324" y="444" on="1"/>
        <pt x="472" y="450" on="0"/>
        <pt x="517" y="450" on="1"/>
        <pt x="544" y="450" on="0"/>
        <pt x="544" y="324" on="0"/>
        <pt x="523" y="259" on="0"/>
        <pt x="505" y="259" on="1"/>
        <pt x="324" y="263" on="1"/>
        <pt x="324" y="199" on="1"/>
        <pt x="498" y="212" on="0"/>
        <pt x="564" y="212" on="1"/>
        <pt x="585" y="212" on="0"/>
        <pt x="585" y="72" on="0"/>
        <pt x="567" y="0" on="0"/>
      </contour>
      <contour>
        <pt x="127" y="831" on="0"/>
        <pt x="274" y="900" on="0"/>
        <pt x="345" y="900" on="0"/>
        <pt x="487" y="832" on="0"/>
        <pt x="487" y="820" on="1"/>
        <pt x="487" y="785" on="0"/>
        <pt x="465" y="730" on="0"/>
        <pt x="447" y="730" on="1"/>
        <pt x="433" y="730" on="0"/>
        <pt x="307" y="769" on="1"/>
        <pt x="180" y="730" on="0"/>
        <pt x="167" y="730" on="1"/>
        <pt x="149" y="730" on="0"/>
        <pt x="127" y="785" on="0"/>
        <pt x="127" y="820" on="1"/>
      </contour>
    </TTGlyph>
    <TTGlyph name="Edieresis" xMin="45" yMin="0" xMax="585" yMax="910">
      <contour>
        <pt x="552" y="0" on="1"/>
        <pt x="128" y="0" on="1"/>
        <pt x="79" y="0" on="0"/>
        <pt x="45" y="14" on="0"/>
        <pt x="45" y="29" on="1"/>
        <pt x="45" y="662" on="1"/>
        <pt x="45" y="688" on="0"/>
        <pt x="92" y="710" on="0"/>
        <pt x="153" y="710" on="1"/>
        <pt x="555" y="710" on="1"/>
        <pt x="576" y="710" on="0"/>
        <pt x="576" y="571" on="0"/>
        <pt x="558" y="498" on="0"/>
        <pt x="543" y="498" on="1"/>
        <pt x="478" y="498" on="0"/>
        <pt x="324" y="511" on="1"/>
        <pt x="324" y="444" on="1"/>
        <pt x="472" y="450" on="0"/>
        <pt x="517" y="450" on="1"/>
        <pt x="544" y="450" on="0"/>
        <pt x="544" y="324" on="0"/>
        <pt x="523" y="259" on="0"/>
        <pt x="505" y="259" on="1"/>
        <pt x="324" y="263" on="1"/>
        <pt x="324" y="199" on="1"/>
        <pt x="498" y="212" on="0"/>
        <pt x="564" y="212" on="1"/>
        <pt x="585" y="212" on="0"/>
        <pt x="585" y="72" on="0"/>
        <pt x="567" y="0" on="0"/>
      </contour>
      <contour>
        <pt x="225" y="730" on="0"/>
        <pt x="121" y="730" on="0"/>
        <pt x="67" y="769" on="0"/>
        <pt x="67" y="874" on="0"/>
        <pt x="122" y="910" on="0"/>
        <pt x="225" y="910" on="0"/>
        <pt x="280" y="874" on="0"/>
        <pt x="280" y="769" on="0"/>
      </contour>
      <contour>
        <pt x="502" y="730" on="0"/>
        <pt x="398" y="730" on="0"/>
        <pt x="344" y="769" on="0"/>
        <pt x="344" y="874" on="0"/>
        <pt x="399" y="910" on="0"/>
        <pt x="502" y="910" on="0"/>
        <pt x="557" y="874" on="0"/>
        <pt x="557" y="769" on="0"/>
      </contour>
    </TTGlyph>
    <TTGlyph name="Edotaccent" xMin="45" yMin="0" xMax="585" yMax="910">
      <contour>
        <pt x="552" y="0" on="1"/>
        <pt x="128" y="0" on="1"/>
        <pt x="79" y="0" on="0"/>
        <pt x="45" y="14" on="0"/>
        <pt x="45" y="29" on="1"/>
        <pt x="45" y="662" on="1"/>
        <pt x="45" y="688" on="0"/>
        <pt x="92" y="710" on="0"/>
        <pt x="153" y="710" on="1"/>
        <pt x="555" y="710" on="1"/>
        <pt x="576" y="710" on="0"/>
        <pt x="576" y="571" on="0"/>
        <pt x="558" y="498" on="0"/>
        <pt x="543" y="498" on="1"/>
        <pt x="478" y="498" on="0"/>
        <pt x="324" y="511" on="1"/>
        <pt x="324" y="444" on="1"/>
        <pt x="472" y="450" on="0"/>
        <pt x="517" y="450" on="1"/>
        <pt x="544" y="450" on="0"/>
        <pt x="544" y="324" on="0"/>
        <pt x="523" y="259" on="0"/>
        <pt x="505" y="259" on="1"/>
        <pt x="324" y="263" on="1"/>
        <pt x="324" y="199" on="1"/>
        <pt x="498" y="212" on="0"/>
        <pt x="564" y="212" on="1"/>
        <pt x="585" y="212" on="0"/>
        <pt x="585" y="72" on="0"/>
        <pt x="567" y="0" on="0"/>
      </contour>
      <contour>
        <pt x="349" y="910" on="0"/>
        <pt x="383" y="908" on="0"/>
        <pt x="424" y="899" on="0"/>
        <pt x="435" y="890" on="1"/>
        <pt x="462" y="868" on="0"/>
        <pt x="462" y="775" on="0"/>
        <pt x="389" y="740" on="0"/>
        <pt x="256" y="740" on="0"/>
        <pt x="182" y="775" on="0"/>
        <pt x="182" y="825" on="1"/>
        <pt x="182" y="878" on="0"/>
        <pt x="224" y="896" on="1"/>
        <pt x="260" y="910" on="0"/>
      </contour>
    </TTGlyph>
    <TTGlyph name="Egrave" xMin="45" yMin="0" xMax="585" yMax="910">
      <contour>
        <pt x="552" y="0" on="1"/>
        <pt x="128" y="0" on="1"/>
        <pt x="79" y="0" on="0"/>
        <pt x="45" y="14" on="0"/>
        <pt x="45" y="29" on="1"/>
        <pt x="45" y="662" on="1"/>
        <pt x="45" y="688" on="0"/>
        <pt x="92" y="710" on="0"/>
        <pt x="153" y="710" on="1"/>
        <pt x="555" y="710" on="1"/>
        <pt x="576" y="710" on="0"/>
        <pt x="576" y="571" on="0"/>
        <pt x="558" y="498" on="0"/>
        <pt x="543" y="498" on="1"/>
        <pt x="478" y="498" on="0"/>
        <pt x="324" y="511" on="1"/>
        <pt x="324" y="444" on="1"/>
        <pt x="472" y="450" on="0"/>
        <pt x="517" y="450" on="1"/>
        <pt x="544" y="450" on="0"/>
        <pt x="544" y="324" on="0"/>
        <pt x="523" y="259" on="0"/>
        <pt x="505" y="259" on="1"/>
        <pt x="324" y="263" on="1"/>
        <pt x="324" y="199" on="1"/>
        <pt x="498" y="212" on="0"/>
        <pt x="564" y="212" on="1"/>
        <pt x="585" y="212" on="0"/>
        <pt x="585" y="72" on="0"/>
        <pt x="567" y="0" on="0"/>
      </contour>
      <contour>
        <pt x="207" y="910" on="1"/>
        <pt x="268" y="910" on="0"/>
        <pt x="417" y="851" on="0"/>
        <pt x="417" y="788" on="0"/>
        <pt x="386" y="740" on="0"/>
        <pt x="367" y="740" on="1"/>
        <pt x="310" y="740" on="0"/>
        <pt x="137" y="763" on="0"/>
        <pt x="137" y="778" on="1"/>
        <pt x="137" y="834" on="0"/>
        <pt x="184" y="910" on="0"/>
      </contour>
    </TTGlyph>
    <TTGlyph name="Emacron" xMin="45" yMin="0" xMax="585" yMax="890">
      <contour>
        <pt x="552" y="0" on="1"/>
        <pt x="128" y="0" on="1"/>
        <pt x="79" y="0" on="0"/>
        <pt x="45" y="14" on="0"/>
        <pt x="45" y="29" on="1"/>
        <pt x="45" y="662" on="1"/>
        <pt x="45" y="688" on="0"/>
        <pt x="92" y="710" on="0"/>
        <pt x="153" y="710" on="1"/>
        <pt x="555" y="710" on="1"/>
        <pt x="576" y="710" on="0"/>
        <pt x="576" y="571" on="0"/>
        <pt x="558" y="498" on="0"/>
        <pt x="543" y="498" on="1"/>
        <pt x="478" y="498" on="0"/>
        <pt x="324" y="511" on="1"/>
        <pt x="324" y="444" on="1"/>
        <pt x="472" y="450" on="0"/>
        <pt x="517" y="450" on="1"/>
        <pt x="544" y="450" on="0"/>
        <pt x="544" y="324" on="0"/>
        <pt x="523" y="259" on="0"/>
        <pt x="505" y="259" on="1"/>
        <pt x="324" y="263" on="1"/>
        <pt x="324" y="199" on="1"/>
        <pt x="498" y="212" on="0"/>
        <pt x="564" y="212" on="1"/>
        <pt x="585" y="212" on="0"/>
        <pt x="585" y="72" on="0"/>
        <pt x="567" y="0" on="0"/>
      </contour>
      <contour>
        <pt x="491" y="730" on="1"/>
        <pt x="86" y="730" on="1"/>
        <pt x="75" y="730" on="0"/>
        <pt x="59" y="767" on="0"/>
        <pt x="59" y="829" on="0"/>
        <pt x="104" y="890" on="0"/>
        <pt x="124" y="890" on="1"/>
        <pt x="526" y="890" on="1"/>
        <pt x="552" y="890" on="0"/>
        <pt x="552" y="825" on="1"/>
        <pt x="552" y="793" on="0"/>
        <pt x="510" y="730" on="0"/>
      </contour>
    </TTGlyph>
    <TTGlyph name="Eng" xMin="45" yMin="-155" xMax="699" yMax="710">
      <contour>
        <pt x="648" y="-128" on="0"/>
        <pt x="573" y="-155" on="0"/>
        <pt x="478" y="-155" on="0"/>
        <pt x="434" y="-152" on="0"/>
        <pt x="385" y="-139" on="0"/>
        <pt x="371" y="-128" on="1"/>
        <pt x="339" y="-101" on="0"/>
        <pt x="339" y="-44" on="1"/>
        <pt x="339" y="38" on="0"/>
        <pt x="381" y="38" on="1"/>
        <pt x="393" y="38" on="0"/>
        <pt x="400" y="42" on="1"/>
        <pt x="420" y="51" on="0"/>
        <pt x="420" y="102" on="1"/>
        <pt x="309" y="265" on="1"/>
        <pt x="304" y="265" on="1"/>
        <pt x="304" y="29" on="1"/>
        <pt x="304" y="16" on="0"/>
        <pt x="199" y="0" on="0"/>
        <pt x="79" y="0" on="0"/>
        <pt x="45" y="14" on="0"/>
        <pt x="45" y="29" on="1"/>
        <pt x="45" y="643" on="1"/>
        <pt x="45" y="668" on="0"/>
        <pt x="160" y="710" on="0"/>
        <pt x="269" y="710" on="0"/>
        <pt x="305" y="695" on="0"/>
        <pt x="320" y="665" on="1"/>
        <pt x="416" y="477" on="1"/>
        <pt x="420" y="477" on="1"/>
        <pt x="420" y="643" on="1"/>
        <pt x="420" y="668" on="0"/>
        <pt x="534" y="710" on="0"/>
        <pt x="607" y="710" on="1"/>
        <pt x="670" y="710" on="0"/>
        <pt x="686" y="686" on="1"/>
        <pt x="699" y="669" on="0"/>
        <pt x="699" y="655" on="1"/>
        <pt x="699" y="90" on="1"/>
        <pt x="699" y="21" on="0"/>
        <pt x="687" y="-61" on="0"/>
      </contour>
    </TTGlyph>
    <TTGlyph name="Eogonek" xMin="45" yMin="-155" xMax="594" yMax="710">
      <contour>
        <pt x="552" y="0" on="1"/>
        <pt x="128" y="0" on="1"/>
        <pt x="79" y="0" on="0"/>
        <pt x="45" y="14" on="0"/>
        <pt x="45" y="29" on="1"/>
        <pt x="45" y="662" on="1"/>
        <pt x="45" y="688" on="0"/>
        <pt x="92" y="710" on="0"/>
        <pt x="153" y="710" on="1"/>
        <pt x="555" y="710" on="1"/>
        <pt x="576" y="710" on="0"/>
        <pt x="576" y="571" on="0"/>
        <pt x="558" y="498" on="0"/>
        <pt x="543" y="498" on="1"/>
        <pt x="478" y="498" on="0"/>
        <pt x="324" y="511" on="1"/>
        <pt x="324" y="444" on="1"/>
        <pt x="472" y="450" on="0"/>
        <pt x="517" y="450" on="1"/>
        <pt x="544" y="450" on="0"/>
        <pt x="544" y="324" on="0"/>
        <pt x="523" y="259" on="0"/>
        <pt x="505" y="259" on="1"/>
        <pt x="324" y="263" on="1"/>
        <pt x="324" y="199" on="1"/>
        <pt x="498" y="212" on="0"/>
        <pt x="564" y="212" on="1"/>
        <pt x="585" y="212" on="0"/>
        <pt x="585" y="72" on="0"/>
        <pt x="567" y="0" on="0"/>
      </contour>
      <contour>
        <pt x="384" y="-155" on="0"/>
        <pt x="285" y="-99" on="0"/>
        <pt x="285" y="19" on="0"/>
        <pt x="332" y="47" on="1"/>
        <pt x="349" y="47" on="0"/>
        <pt x="491" y="30" on="0"/>
        <pt x="491" y="14" on="0"/>
        <pt x="453" y="-13" on="0"/>
        <pt x="453" y="-23" on="1"/>
        <pt x="453" y="-39" on="0"/>
        <pt x="503" y="-39" on="0"/>
        <pt x="555" y="-30" on="0"/>
        <pt x="565" y="-30" on="0"/>
        <pt x="573" y="-42" on="1"/>
        <pt x="594" y="-72" on="0"/>
        <pt x="594" y="-131" on="1"/>
        <pt x="594" y="-144" on="0"/>
        <pt x="496" y="-155" on="0"/>
        <pt x="460" y="-155" on="1"/>
      </contour>
    </TTGlyph>
    <TTGlyph name="Eth" xMin="10" yMin="0" xMax="741" yMax="710">
      <contour>
        <pt x="80" y="273" on="1"/>
        <pt x="37" y="273" on="1"/>
        <pt x="26" y="273" on="0"/>
        <pt x="10" y="310" on="0"/>
        <pt x="10" y="379" on="0"/>
        <pt x="54" y="450" on="0"/>
        <pt x="75" y="450" on="1"/>
        <pt x="80" y="450" on="1"/>
        <pt x="80" y="661" on="1"/>
        <pt x="80" y="687" on="0"/>
        <pt x="124" y="710" on="0"/>
        <pt x="178" y="710" on="1"/>
        <pt x="403" y="710" on="1"/>
        <pt x="595" y="710" on="0"/>
        <pt x="741" y="559" on="0"/>
        <pt x="741" y="161" on="0"/>
        <pt x="589" y="0" on="0"/>
        <pt x="399" y="0" on="1"/>
        <pt x="163" y="0" on="1"/>
        <pt x="114" y="0" on="0"/>
        <pt x="80" y="14" on="0"/>
        <pt x="80" y="30" on="1"/>
      </contour>
      <contour>
        <pt x="391" y="561" on="1"/>
        <pt x="367" y="561" on="0"/>
        <pt x="359" y="557" on="1"/>
        <pt x="359" y="450" on="1"/>
        <pt x="399" y="450" on="1"/>
        <pt x="425" y="450" on="0"/>
        <pt x="425" y="385" on="1"/>
        <pt x="425" y="352" on="0"/>
        <pt x="383" y="273" on="0"/>
        <pt x="364" y="273" on="1"/>
        <pt x="359" y="273" on="1"/>
        <pt x="359" y="152" on="1"/>
        <pt x="374" y="149" on="0"/>
        <pt x="397" y="149" on="1"/>
        <pt x="427" y="149" on="0"/>
        <pt x="458" y="245" on="0"/>
        <pt x="458" y="481" on="0"/>
        <pt x="426" y="561" on="0"/>
      </contour>
    </TTGlyph>
    <TTGlyph name="Euro" xMin="10" yMin="-9" xMax="595" yMax="710">
      <contour>
        <pt x="595" y="21" on="0"/>
        <pt x="520" y="-9" on="0"/>
        <pt x="373" y="-9" on="0"/>
        <pt x="308" y="-3" on="0"/>
        <pt x="221" y="24" on="0"/>
        <pt x="161" y="72" on="0"/>
        <pt x="108" y="165" on="0"/>
        <pt x="96" y="230" on="1"/>
        <pt x="25" y="230" on="1"/>
        <pt x="10" y="230" on="0"/>
        <pt x="10" y="271" on="1"/>
        <pt x="10" y="291" on="0"/>
        <pt x="35" y="331" on="0"/>
        <pt x="47" y="331" on="1"/>
        <pt x="86" y="331" on="1"/>
        <pt x="86" y="370" on="1"/>
        <pt x="45" y="370" on="1"/>
        <pt x="30" y="370" on="0"/>
        <pt x="30" y="410" on="1"/>
        <pt x="30" y="431" on="0"/>
        <pt x="55" y="472" on="0"/>
        <pt x="67" y="472" on="1"/>
        <pt x="95" y="472" on="1"/>
        <pt x="118" y="613" on="0"/>
        <pt x="204" y="663" on="1"/>
        <pt x="258" y="695" on="0"/>
        <pt x="307" y="701" on="1"/>
        <pt x="371" y="710" on="0"/>
        <pt x="469" y="710" on="0"/>
        <pt x="493" y="709" on="0"/>
        <pt x="534" y="705" on="0"/>
        <pt x="557" y="696" on="0"/>
        <pt x="569" y="688" on="1"/>
        <pt x="592" y="673" on="0"/>
        <pt x="592" y="636" on="1"/>
        <pt x="592" y="531" on="0"/>
        <pt x="534" y="531" on="1"/>
        <pt x="524" y="531" on="0"/>
        <pt x="446" y="553" on="0"/>
        <pt x="423" y="553" on="1"/>
        <pt x="390" y="553" on="0"/>
        <pt x="382" y="472" on="1"/>
        <pt x="500" y="472" on="1"/>
        <pt x="515" y="472" on="0"/>
        <pt x="515" y="435" on="1"/>
        <pt x="515" y="416" on="0"/>
        <pt x="490" y="370" on="0"/>
        <pt x="480" y="370" on="1"/>
        <pt x="379" y="370" on="1"/>
        <pt x="379" y="331" on="1"/>
        <pt x="480" y="331" on="1"/>
        <pt x="495" y="331" on="0"/>
        <pt x="495" y="294" on="1"/>
        <pt x="495" y="275" on="0"/>
        <pt x="470" y="230" on="0"/>
        <pt x="460" y="230" on="1"/>
        <pt x="384" y="230" on="1"/>
        <pt x="394" y="148" on="0"/>
        <pt x="422" y="148" on="1"/>
        <pt x="447" y="148" on="0"/>
        <pt x="533" y="169" on="0"/>
        <pt x="544" y="169" on="1"/>
        <pt x="595" y="169" on="0"/>
        <pt x="595" y="68" on="1"/>
      </contour>
    </TTGlyph>
    <TTGlyph name="F" xMin="40" yMin="0" xMax="556" yMax="711">
      <contour>
        <pt x="319" y="14" on="0"/>
        <pt x="190" y="0" on="0"/>
        <pt x="74" y="0" on="0"/>
        <pt x="40" y="14" on="0"/>
        <pt x="40" y="29" on="1"/>
        <pt x="40" y="663" on="1"/>
        <pt x="40" y="689" on="0"/>
        <pt x="92" y="711" on="0"/>
        <pt x="164" y="711" on="1"/>
        <pt x="535" y="711" on="1"/>
        <pt x="556" y="711" on="0"/>
        <pt x="556" y="560" on="0"/>
        <pt x="537" y="481" on="0"/>
        <pt x="522" y="481" on="1"/>
        <pt x="319" y="491" on="1"/>
        <pt x="319" y="423" on="1"/>
        <pt x="452" y="429" on="0"/>
        <pt x="497" y="429" on="1"/>
        <pt x="512" y="429" on="0"/>
        <pt x="523" y="397" on="0"/>
        <pt x="523" y="306" on="0"/>
        <pt x="503" y="223" on="0"/>
        <pt x="485" y="223" on="1"/>
        <pt x="319" y="229" on="1"/>
        <pt x="319" y="29" on="1"/>
      </contour>
    </TTGlyph>
    <TTGlyph name="F.sc" xMin="50" yMin="0" xMax="575" yMax="600">
      <contour>
        <pt x="329" y="24" on="1"/>
        <pt x="329" y="11" on="0"/>
        <pt x="200" y="0" on="0"/>
        <pt x="84" y="0" on="0"/>
        <pt x="50" y="11" on="0"/>
        <pt x="50" y="24" on="1"/>
        <pt x="50" y="560" on="1"/>
        <pt x="50" y="582" on="0"/>
        <pt x="102" y="600" on="0"/>
        <pt x="175" y="600" on="1"/>
        <pt x="554" y="600" on="1"/>
        <pt x="575" y="600" on="0"/>
        <pt x="575" y="536" on="1"/>
        <pt x="575" y="407" on="0"/>
        <pt x="541" y="407" on="1"/>
        <pt x="329" y="415" on="1"/>
        <pt x="329" y="365" on="1"/>
        <pt x="471" y="370" on="0"/>
        <pt x="516" y="370" on="1"/>
        <pt x="531" y="370" on="0"/>
        <pt x="542" y="343" on="0"/>
        <pt x="542" y="266" on="0"/>
        <pt x="522" y="198" on="0"/>
        <pt x="504" y="198" on="1"/>
        <pt x="329" y="202" on="1"/>
      </contour>
    </TTGlyph>
    <TTGlyph name="G" xMin="30" yMin="-8" xMax="644" yMax="720">
      <contour>
        <pt x="257" y="-8" on="1"/>
        <pt x="223" y="-8" on="0"/>
        <pt x="165" y="6" on="0"/>
        <pt x="102" y="51" on="0"/>
        <pt x="80" y="88" on="1"/>
        <pt x="30" y="172" on="0"/>
        <pt x="30" y="341" on="1"/>
        <pt x="30" y="434" on="0"/>
        <pt x="80" y="576" on="0"/>
        <pt x="156" y="655" on="0"/>
        <pt x="262" y="705" on="0"/>
        <pt x="354" y="720" on="0"/>
        <pt x="406" y="720" on="1"/>
        <pt x="526" y="720" on="0"/>
        <pt x="624" y="679" on="0"/>
        <pt x="624" y="621" on="1"/>
        <pt x="624" y="575" on="0"/>
        <pt x="590" y="468" on="0"/>
        <pt x="557" y="468" on="1"/>
        <pt x="549" y="468" on="0"/>
        <pt x="429" y="499" on="0"/>
        <pt x="399" y="499" on="1"/>
        <pt x="313" y="499" on="0"/>
        <pt x="313" y="354" on="1"/>
        <pt x="313" y="281" on="0"/>
        <pt x="353" y="210" on="0"/>
        <pt x="383" y="206" on="1"/>
        <pt x="383" y="296" on="1"/>
        <pt x="383" y="321" on="0"/>
        <pt x="485" y="363" on="0"/>
        <pt x="579" y="363" on="0"/>
        <pt x="622" y="351" on="0"/>
        <pt x="630" y="340" on="1"/>
        <pt x="644" y="322" on="0"/>
        <pt x="644" y="308" on="1"/>
        <pt x="644" y="31" on="1"/>
        <pt x="644" y="18" on="0"/>
        <pt x="539" y="2" on="0"/>
        <pt x="426" y="2" on="0"/>
        <pt x="396" y="13" on="0"/>
        <pt x="394" y="38" on="1"/>
        <pt x="387" y="97" on="1"/>
        <pt x="379" y="97" on="1"/>
        <pt x="372" y="54" on="0"/>
        <pt x="315" y="-8" on="0"/>
      </contour>
    </TTGlyph>
    <TTGlyph name="G.sc" xMin="40" yMin="-8" xMax="656" yMax="607">
      <contour>
        <pt x="656" y="253" on="1"/>
        <pt x="656" y="24" on="1"/>
        <pt x="656" y="13" on="0"/>
        <pt x="548" y="0" on="0"/>
        <pt x="436" y="0" on="0"/>
        <pt x="406" y="10" on="0"/>
        <pt x="403" y="31" on="1"/>
        <pt x="396" y="82" on="1"/>
        <pt x="388" y="82" on="1"/>
        <pt x="382" y="45" on="0"/>
        <pt x="324" y="-8" on="0"/>
        <pt x="266" y="-8" on="1"/>
        <pt x="231" y="-8" on="0"/>
        <pt x="174" y="3" on="0"/>
        <pt x="111" y="40" on="0"/>
        <pt x="90" y="71" on="1"/>
        <pt x="40" y="142" on="0"/>
        <pt x="40" y="285" on="1"/>
        <pt x="40" y="471" on="0"/>
        <pt x="140" y="543" on="1"/>
        <pt x="174" y="567" on="0"/>
        <pt x="232" y="591" on="0"/>
        <pt x="275" y="598" on="1"/>
        <pt x="338" y="607" on="0"/>
        <pt x="537" y="607" on="0"/>
        <pt x="623" y="578" on="0"/>
        <pt x="623" y="488" on="0"/>
        <pt x="589" y="383" on="0"/>
        <pt x="557" y="383" on="1"/>
        <pt x="548" y="383" on="0"/>
        <pt x="438" y="410" on="0"/>
        <pt x="391" y="410" on="0"/>
        <pt x="367" y="404" on="0"/>
        <pt x="352" y="394" on="1"/>
        <pt x="323" y="374" on="0"/>
        <pt x="323" y="235" on="0"/>
        <pt x="360" y="187" on="0"/>
        <pt x="392" y="183" on="1"/>
        <pt x="392" y="243" on="1"/>
        <pt x="392" y="264" on="0"/>
        <pt x="496" y="300" on="0"/>
        <pt x="559" y="300" on="1"/>
        <pt x="656" y="300" on="0"/>
      </contour>
    </TTGlyph>
    <TTGlyph name="Gbreve" xMin="35" yMin="-8" xMax="649" yMax="900">
      <contour>
        <pt x="262" y="-8" on="1"/>
        <pt x="228" y="-8" on="0"/>
        <pt x="170" y="6" on="0"/>
        <pt x="107" y="51" on="0"/>
        <pt x="85" y="88" on="1"/>
        <pt x="35" y="172" on="0"/>
        <pt x="35" y="341" on="1"/>
        <pt x="35" y="434" on="0"/>
        <pt x="85" y="576" on="0"/>
        <pt x="161" y="655" on="0"/>
        <pt x="267" y="705" on="0"/>
        <pt x="359" y="720" on="0"/>
        <pt x="411" y="720" on="1"/>
        <pt x="531" y="720" on="0"/>
        <pt x="629" y="679" on="0"/>
        <pt x="629" y="621" on="1"/>
        <pt x="629" y="575" on="0"/>
        <pt x="595" y="468" on="0"/>
        <pt x="562" y="468" on="1"/>
        <pt x="554" y="468" on="0"/>
        <pt x="434" y="499" on="0"/>
        <pt x="404" y="499" on="1"/>
        <pt x="318" y="499" on="0"/>
        <pt x="318" y="354" on="1"/>
        <pt x="318" y="281" on="0"/>
        <pt x="358" y="210" on="0"/>
        <pt x="388" y="206" on="1"/>
        <pt x="388" y="296" on="1"/>
        <pt x="388" y="321" on="0"/>
        <pt x="490" y="363" on="0"/>
        <pt x="584" y="363" on="0"/>
        <pt x="627" y="351" on="0"/>
        <pt x="635" y="340" on="1"/>
        <pt x="649" y="322" on="0"/>
        <pt x="649" y="308" on="1"/>
        <pt x="649" y="31" on="1"/>
        <pt x="649" y="18" on="0"/>
        <pt x="544" y="2" on="0"/>
        <pt x="431" y="2" on="0"/>
        <pt x="401" y="13" on="0"/>
        <pt x="399" y="38" on="1"/>
        <pt x="392" y="97" on="1"/>
        <pt x="384" y="97" on="1"/>
        <pt x="377" y="54" on="0"/>
        <pt x="320" y="-8" on="0"/>
      </contour>
      <contour>
        <pt x="377" y="868" on="1"/>
        <pt x="377" y="821" on="0"/>
        <pt x="424" y="821" on="0"/>
        <pt x="424" y="868" on="1"/>
        <pt x="424" y="900" on="0"/>
        <pt x="543" y="900" on="0"/>
        <pt x="543" y="870" on="1"/>
        <pt x="543" y="795" on="0"/>
        <pt x="468" y="740" on="0"/>
        <pt x="332" y="740" on="0"/>
        <pt x="259" y="793" on="0"/>
        <pt x="259" y="870" on="1"/>
        <pt x="259" y="900" on="0"/>
        <pt x="377" y="900" on="0"/>
      </contour>
    </TTGlyph>
    <TTGlyph name="Gcircumflex" xMin="35" yMin="-8" xMax="649" yMax="910">
      <contour>
        <pt x="262" y="-8" on="1"/>
        <pt x="228" y="-8" on="0"/>
        <pt x="170" y="6" on="0"/>
        <pt x="107" y="51" on="0"/>
        <pt x="63" y="125" on="0"/>
        <pt x="35" y="254" on="0"/>
        <pt x="35" y="434" on="0"/>
        <pt x="85" y="576" on="0"/>
        <pt x="161" y="655" on="0"/>
        <pt x="267" y="705" on="0"/>
        <pt x="359" y="720" on="0"/>
        <pt x="411" y="720" on="1"/>
        <pt x="531" y="720" on="0"/>
        <pt x="629" y="679" on="0"/>
        <pt x="629" y="621" on="1"/>
        <pt x="629" y="575" on="0"/>
        <pt x="595" y="468" on="0"/>
        <pt x="562" y="468" on="1"/>
        <pt x="554" y="468" on="0"/>
        <pt x="434" y="499" on="0"/>
        <pt x="404" y="499" on="1"/>
        <pt x="318" y="499" on="0"/>
        <pt x="318" y="354" on="1"/>
        <pt x="318" y="281" on="0"/>
        <pt x="358" y="210" on="0"/>
        <pt x="388" y="206" on="1"/>
        <pt x="388" y="296" on="1"/>
        <pt x="388" y="321" on="0"/>
        <pt x="490" y="363" on="0"/>
        <pt x="618" y="363" on="0"/>
        <pt x="638" y="337" on="1"/>
        <pt x="649" y="322" on="0"/>
        <pt x="649" y="308" on="1"/>
        <pt x="649" y="31" on="1"/>
        <pt x="649" y="18" on="0"/>
        <pt x="544" y="2" on="0"/>
        <pt x="431" y="2" on="0"/>
        <pt x="401" y="13" on="0"/>
        <pt x="399" y="38" on="1"/>
        <pt x="392" y="97" on="1"/>
        <pt x="384" y="97" on="1"/>
        <pt x="377" y="54" on="0"/>
        <pt x="320" y="-8" on="0"/>
      </contour>
      <contour>
        <pt x="214" y="841" on="0"/>
        <pt x="361" y="910" on="0"/>
        <pt x="432" y="910" on="0"/>
        <pt x="574" y="842" on="0"/>
        <pt x="574" y="830" on="1"/>
        <pt x="574" y="795" on="0"/>
        <pt x="552" y="740" on="0"/>
        <pt x="534" y="740" on="1"/>
        <pt x="520" y="740" on="0"/>
        <pt x="394" y="779" on="1"/>
        <pt x="267" y="740" on="0"/>
        <pt x="254" y="740" on="1"/>
        <pt x="236" y="740" on="0"/>
        <pt x="214" y="795" on="0"/>
        <pt x="214" y="830" on="1"/>
      </contour>
    </TTGlyph>
    <TTGlyph name="Gdotaccent" xMin="35" yMin="-8" xMax="649" yMax="910">
      <contour>
        <pt x="262" y="-8" on="1"/>
        <pt x="228" y="-8" on="0"/>
        <pt x="170" y="6" on="0"/>
        <pt x="107" y="51" on="0"/>
        <pt x="63" y="125" on="0"/>
        <pt x="35" y="254" on="0"/>
        <pt x="35" y="434" on="0"/>
        <pt x="85" y="576" on="0"/>
        <pt x="161" y="655" on="0"/>
        <pt x="267" y="705" on="0"/>
        <pt x="359" y="720" on="0"/>
        <pt x="411" y="720" on="1"/>
        <pt x="531" y="720" on="0"/>
        <pt x="629" y="679" on="0"/>
        <pt x="629" y="621" on="1"/>
        <pt x="629" y="575" on="0"/>
        <pt x="595" y="468" on="0"/>
        <pt x="562" y="468" on="1"/>
        <pt x="554" y="468" on="0"/>
        <pt x="434" y="499" on="0"/>
        <pt x="404" y="499" on="1"/>
        <pt x="318" y="499" on="0"/>
        <pt x="318" y="354" on="1"/>
        <pt x="318" y="281" on="0"/>
        <pt x="358" y="210" on="0"/>
        <pt x="388" y="206" on="1"/>
        <pt x="388" y="296" on="1"/>
        <pt x="388" y="321" on="0"/>
        <pt x="490" y="363" on="0"/>
        <pt x="618" y="363" on="0"/>
        <pt x="638" y="337" on="1"/>
        <pt x="649" y="322" on="0"/>
        <pt x="649" y="308" on="1"/>
        <pt x="649" y="31" on="1"/>
        <pt x="649" y="18" on="0"/>
        <pt x="544" y="2" on="0"/>
        <pt x="431" y="2" on="0"/>
        <pt x="401" y="13" on="0"/>
        <pt x="399" y="38" on="1"/>
        <pt x="392" y="97" on="1"/>
        <pt x="384" y="97" on="1"/>
        <pt x="377" y="54" on="0"/>
        <pt x="320" y="-8" on="0"/>
      </contour>
      <contour>
        <pt x="429" y="910" on="0"/>
        <pt x="463" y="908" on="0"/>
        <pt x="504" y="899" on="0"/>
        <pt x="515" y="890" on="1"/>
        <pt x="542" y="868" on="0"/>
        <pt x="542" y="775" on="0"/>
        <pt x="469" y="740" on="0"/>
        <pt x="336" y="740" on="0"/>
        <pt x="262" y="775" on="0"/>
        <pt x="262" y="825" on="1"/>
        <pt x="262" y="878" on="0"/>
        <pt x="304" y="896" on="1"/>
        <pt x="340" y="910" on="0"/>
      </contour>
    </TTGlyph>
    <TTGlyph name="H" xMin="40" yMin="0" xMax="687" yMax="710">
      <contour>
        <pt x="319" y="16" on="0"/>
        <pt x="198" y="0" on="0"/>
        <pt x="75" y="0" on="0"/>
        <pt x="40" y="14" on="0"/>
        <pt x="40" y="29" on="1"/>
        <pt x="40" y="644" on="1"/>
        <pt x="40" y="669" on="0"/>
        <pt x="156" y="710" on="0"/>
        <pt x="224" y="710" on="1"/>
        <pt x="319" y="710" on="0"/>
        <pt x="319" y="665" on="1"/>
        <pt x="319" y="445" on="1"/>
        <pt x="408" y="445" on="1"/>
        <pt x="408" y="644" on="1"/>
        <pt x="408" y="669" on="0"/>
        <pt x="525" y="710" on="0"/>
        <pt x="593" y="710" on="1"/>
        <pt x="687" y="710" on="0"/>
        <pt x="687" y="665" on="1"/>
        <pt x="687" y="29" on="1"/>
        <pt x="687" y="16" on="0"/>
        <pt x="565" y="0" on="0"/>
        <pt x="443" y="0" on="0"/>
        <pt x="408" y="14" on="0"/>
        <pt x="408" y="29" on="1"/>
        <pt x="408" y="258" on="1"/>
        <pt x="319" y="258" on="1"/>
        <pt x="319" y="29" on="1"/>
      </contour>
    </TTGlyph>
    <TTGlyph name="H.sc" xMin="50" yMin="0" xMax="697" yMax="600">
      <contour>
        <pt x="329" y="13" on="0"/>
        <pt x="207" y="0" on="0"/>
        <pt x="84" y="0" on="0"/>
        <pt x="50" y="11" on="0"/>
        <pt x="50" y="24" on="1"/>
        <pt x="50" y="536" on="1"/>
        <pt x="50" y="557" on="0"/>
        <pt x="170" y="600" on="0"/>
        <pt x="236" y="600" on="1"/>
        <pt x="284" y="600" on="0"/>
        <pt x="316" y="582" on="0"/>
        <pt x="322" y="574" on="1"/>
        <pt x="329" y="564" on="0"/>
        <pt x="329" y="554" on="1"/>
        <pt x="329" y="393" on="1"/>
        <pt x="417" y="393" on="1"/>
        <pt x="417" y="536" on="1"/>
        <pt x="417" y="557" on="0"/>
        <pt x="537" y="600" on="0"/>
        <pt x="603" y="600" on="1"/>
        <pt x="697" y="600" on="0"/>
        <pt x="697" y="554" on="1"/>
        <pt x="697" y="24" on="1"/>
        <pt x="697" y="13" on="0"/>
        <pt x="574" y="0" on="0"/>
        <pt x="452" y="0" on="0"/>
        <pt x="417" y="11" on="0"/>
        <pt x="417" y="24" on="1"/>
        <pt x="417" y="208" on="1"/>
        <pt x="329" y="208" on="1"/>
        <pt x="329" y="24" on="1"/>
      </contour>
    </TTGlyph>
    <TTGlyph name="Hcircumflex" xMin="45" yMin="0" xMax="692" yMax="910">
      <contour>
        <pt x="324" y="16" on="0"/>
        <pt x="203" y="0" on="0"/>
        <pt x="80" y="0" on="0"/>
        <pt x="45" y="14" on="0"/>
        <pt x="45" y="29" on="1"/>
        <pt x="45" y="644" on="1"/>
        <pt x="45" y="669" on="0"/>
        <pt x="161" y="710" on="0"/>
        <pt x="229" y="710" on="1"/>
        <pt x="324" y="710" on="0"/>
        <pt x="324" y="665" on="1"/>
        <pt x="324" y="445" on="1"/>
        <pt x="413" y="445" on="1"/>
        <pt x="413" y="644" on="1"/>
        <pt x="413" y="669" on="0"/>
        <pt x="530" y="710" on="0"/>
        <pt x="598" y="710" on="1"/>
        <pt x="692" y="710" on="0"/>
        <pt x="692" y="665" on="1"/>
        <pt x="692" y="29" on="1"/>
        <pt x="692" y="16" on="0"/>
        <pt x="570" y="0" on="0"/>
        <pt x="448" y="0" on="0"/>
        <pt x="413" y="14" on="0"/>
        <pt x="413" y="29" on="1"/>
        <pt x="413" y="258" on="1"/>
        <pt x="324" y="258" on="1"/>
        <pt x="324" y="29" on="1"/>
      </contour>
      <contour>
        <pt x="188" y="841" on="0"/>
        <pt x="335" y="910" on="0"/>
        <pt x="406" y="910" on="0"/>
        <pt x="548" y="842" on="0"/>
        <pt x="548" y="830" on="1"/>
        <pt x="548" y="795" on="0"/>
        <pt x="526" y="740" on="0"/>
        <pt x="508" y="740" on="1"/>
        <pt x="494" y="740" on="0"/>
        <pt x="368" y="779" on="1"/>
        <pt x="241" y="740" on="0"/>
        <pt x="228" y="740" on="1"/>
        <pt x="210" y="740" on="0"/>
        <pt x="188" y="795" on="0"/>
        <pt x="188" y="830" on="1"/>
      </contour>
    </TTGlyph>
    <TTGlyph name="I" xMin="40" yMin="0" xMax="319" yMax="711">
      <contour>
        <pt x="319" y="13" on="0"/>
        <pt x="197" y="0" on="0"/>
        <pt x="74" y="0" on="0"/>
        <pt x="40" y="11" on="0"/>
        <pt x="40" y="24" on="1"/>
        <pt x="40" y="646" on="1"/>
        <pt x="40" y="668" on="0"/>
        <pt x="156" y="711" on="0"/>
        <pt x="228" y="711" on="1"/>
        <pt x="292" y="711" on="0"/>
        <pt x="312" y="684" on="1"/>
        <pt x="319" y="674" on="0"/>
        <pt x="319" y="664" on="1"/>
        <pt x="319" y="24" on="1"/>
      </contour>
    </TTGlyph>
    <TTGlyph name="I.sc" xMin="50" yMin="0" xMax="329" yMax="600">
      <contour>
        <pt x="329" y="13" on="0"/>
        <pt x="207" y="0" on="0"/>
        <pt x="84" y="0" on="0"/>
        <pt x="50" y="11" on="0"/>
        <pt x="50" y="24" on="1"/>
        <pt x="50" y="536" on="1"/>
        <pt x="50" y="558" on="0"/>
        <pt x="166" y="600" on="0"/>
        <pt x="277" y="600" on="0"/>
        <pt x="321" y="579" on="0"/>
        <pt x="329" y="563" on="0"/>
        <pt x="329" y="554" on="1"/>
        <pt x="329" y="24" on="1"/>
      </contour>
    </TTGlyph>
    <TTGlyph name="IJ" xMin="45" yMin="-135" xMax="719" yMax="711">
      <contour>
        <pt x="324" y="13" on="0"/>
        <pt x="202" y="0" on="0"/>
        <pt x="79" y="0" on="0"/>
        <pt x="45" y="11" on="0"/>
        <pt x="45" y="24" on="1"/>
        <pt x="45" y="646" on="1"/>
        <pt x="45" y="668" on="0"/>
        <pt x="161" y="711" on="0"/>
        <pt x="233" y="711" on="1"/>
        <pt x="297" y="711" on="0"/>
        <pt x="316" y="684" on="1"/>
        <pt x="324" y="674" on="0"/>
        <pt x="324" y="664" on="1"/>
        <pt x="324" y="24" on="1"/>
      </contour>
      <contour>
        <pt x="668" y="-108" on="0"/>
        <pt x="593" y="-135" on="0"/>
        <pt x="498" y="-135" on="0"/>
        <pt x="454" y="-132" on="0"/>
        <pt x="405" y="-119" on="0"/>
        <pt x="391" y="-108" on="1"/>
        <pt x="359" y="-81" on="0"/>
        <pt x="359" y="-24" on="1"/>
        <pt x="359" y="58" on="0"/>
        <pt x="401" y="58" on="1"/>
        <pt x="414" y="58" on="0"/>
        <pt x="421" y="62" on="1"/>
        <pt x="440" y="71" on="0"/>
        <pt x="440" y="124" on="1"/>
        <pt x="440" y="645" on="1"/>
        <pt x="440" y="667" on="0"/>
        <pt x="555" y="710" on="0"/>
        <pt x="620" y="710" on="1"/>
        <pt x="719" y="710" on="0"/>
        <pt x="719" y="663" on="1"/>
        <pt x="719" y="110" on="1"/>
        <pt x="719" y="41" on="0"/>
        <pt x="707" y="-41" on="0"/>
      </contour>
    </TTGlyph>
    <TTGlyph name="Iacute" xMin="45" yMin="0" xMax="355" yMax="910">
      <contour>
        <pt x="324" y="13" on="0"/>
        <pt x="202" y="0" on="0"/>
        <pt x="79" y="0" on="0"/>
        <pt x="45" y="11" on="0"/>
        <pt x="45" y="24" on="1"/>
        <pt x="45" y="646" on="1"/>
        <pt x="45" y="668" on="0"/>
        <pt x="161" y="711" on="0"/>
        <pt x="233" y="711" on="1"/>
        <pt x="297" y="711" on="0"/>
        <pt x="316" y="684" on="1"/>
        <pt x="324" y="674" on="0"/>
        <pt x="324" y="664" on="1"/>
        <pt x="324" y="24" on="1"/>
      </contour>
      <contour>
        <pt x="285" y="910" on="1"/>
        <pt x="308" y="910" on="0"/>
        <pt x="355" y="834" on="0"/>
        <pt x="355" y="778" on="1"/>
        <pt x="355" y="763" on="0"/>
        <pt x="182" y="740" on="0"/>
        <pt x="125" y="740" on="1"/>
        <pt x="106" y="740" on="0"/>
        <pt x="75" y="788" on="0"/>
        <pt x="75" y="851" on="0"/>
        <pt x="224" y="910" on="0"/>
      </contour>
    </TTGlyph>
    <TTGlyph name="Ibreve" xMin="42" yMin="0" xMax="326" yMax="900">
      <contour>
        <pt x="324" y="13" on="0"/>
        <pt x="202" y="0" on="0"/>
        <pt x="79" y="0" on="0"/>
        <pt x="45" y="11" on="0"/>
        <pt x="45" y="24" on="1"/>
        <pt x="45" y="646" on="1"/>
        <pt x="45" y="668" on="0"/>
        <pt x="161" y="711" on="0"/>
        <pt x="233" y="711" on="1"/>
        <pt x="297" y="711" on="0"/>
        <pt x="316" y="684" on="1"/>
        <pt x="324" y="674" on="0"/>
        <pt x="324" y="664" on="1"/>
        <pt x="324" y="24" on="1"/>
      </contour>
      <contour>
        <pt x="160" y="868" on="1"/>
        <pt x="160" y="821" on="0"/>
        <pt x="207" y="821" on="0"/>
        <pt x="207" y="868" on="1"/>
        <pt x="207" y="900" on="0"/>
        <pt x="326" y="900" on="0"/>
        <pt x="326" y="870" on="1"/>
        <pt x="326" y="795" on="0"/>
        <pt x="251" y="740" on="0"/>
        <pt x="115" y="740" on="0"/>
        <pt x="42" y="793" on="0"/>
        <pt x="42" y="870" on="1"/>
        <pt x="42" y="900" on="0"/>
        <pt x="160" y="900" on="0"/>
      </contour>
    </TTGlyph>
    <TTGlyph name="Icircumflex" xMin="9" yMin="0" xMax="369" yMax="900">
      <contour>
        <pt x="324" y="13" on="0"/>
        <pt x="202" y="0" on="0"/>
        <pt x="79" y="0" on="0"/>
        <pt x="45" y="11" on="0"/>
        <pt x="45" y="24" on="1"/>
        <pt x="45" y="646" on="1"/>
        <pt x="45" y="668" on="0"/>
        <pt x="161" y="711" on="0"/>
        <pt x="233" y="711" on="1"/>
        <pt x="297" y="711" on="0"/>
        <pt x="316" y="684" on="1"/>
        <pt x="324" y="674" on="0"/>
        <pt x="324" y="664" on="1"/>
        <pt x="324" y="24" on="1"/>
      </contour>
      <contour>
        <pt x="9" y="831" on="0"/>
        <pt x="156" y="900" on="0"/>
        <pt x="227" y="900" on="0"/>
        <pt x="369" y="832" on="0"/>
        <pt x="369" y="820" on="1"/>
        <pt x="369" y="785" on="0"/>
        <pt x="347" y="730" on="0"/>
        <pt x="329" y="730" on="1"/>
        <pt x="315" y="730" on="0"/>
        <pt x="189" y="769" on="1"/>
        <pt x="62" y="730" on="0"/>
        <pt x="49" y="730" on="1"/>
        <pt x="31" y="730" on="0"/>
        <pt x="9" y="785" on="0"/>
        <pt x="9" y="820" on="1"/>
      </contour>
    </TTGlyph>
    <TTGlyph name="Idieresis" xMin="-55" yMin="0" xMax="435" yMax="910">
      <contour>
        <pt x="324" y="13" on="0"/>
        <pt x="202" y="0" on="0"/>
        <pt x="79" y="0" on="0"/>
        <pt x="45" y="11" on="0"/>
        <pt x="45" y="24" on="1"/>
        <pt x="45" y="646" on="1"/>
        <pt x="45" y="668" on="0"/>
        <pt x="161" y="711" on="0"/>
        <pt x="233" y="711" on="1"/>
        <pt x="297" y="711" on="0"/>
        <pt x="316" y="684" on="1"/>
        <pt x="324" y="674" on="0"/>
        <pt x="324" y="664" on="1"/>
        <pt x="324" y="24" on="1"/>
      </contour>
      <contour>
        <pt x="103" y="730" on="0"/>
        <pt x="-1" y="730" on="0"/>
        <pt x="-55" y="769" on="0"/>
        <pt x="-55" y="874" on="0"/>
        <pt x="0" y="910" on="0"/>
        <pt x="103" y="910" on="0"/>
        <pt x="158" y="874" on="0"/>
        <pt x="158" y="769" on="0"/>
      </contour>
      <contour>
        <pt x="380" y="730" on="0"/>
        <pt x="276" y="730" on="0"/>
        <pt x="222" y="769" on="0"/>
        <pt x="222" y="874" on="0"/>
        <pt x="277" y="910" on="0"/>
        <pt x="380" y="910" on="0"/>
        <pt x="435" y="874" on="0"/>
        <pt x="435" y="769" on="0"/>
      </contour>
    </TTGlyph>
    <TTGlyph name="Igrave" xMin="15" yMin="0" xMax="324" yMax="910">
      <contour>
        <pt x="324" y="13" on="0"/>
        <pt x="202" y="0" on="0"/>
        <pt x="79" y="0" on="0"/>
        <pt x="45" y="11" on="0"/>
        <pt x="45" y="24" on="1"/>
        <pt x="45" y="646" on="1"/>
        <pt x="45" y="668" on="0"/>
        <pt x="161" y="711" on="0"/>
        <pt x="233" y="711" on="1"/>
        <pt x="297" y="711" on="0"/>
        <pt x="316" y="684" on="1"/>
        <pt x="324" y="674" on="0"/>
        <pt x="324" y="664" on="1"/>
        <pt x="324" y="24" on="1"/>
      </contour>
      <contour>
        <pt x="85" y="910" on="1"/>
        <pt x="146" y="910" on="0"/>
        <pt x="295" y="851" on="0"/>
        <pt x="295" y="788" on="0"/>
        <pt x="264" y="740" on="0"/>
        <pt x="245" y="740" on="1"/>
        <pt x="188" y="740" on="0"/>
        <pt x="15" y="763" on="0"/>
        <pt x="15" y="778" on="1"/>
        <pt x="15" y="834" on="0"/>
        <pt x="62" y="910" on="0"/>
      </contour>
    </TTGlyph>
    <TTGlyph name="Imacron" xMin="-15" yMin="0" xMax="478" yMax="890">
      <contour>
        <pt x="417" y="730" on="1"/>
        <pt x="12" y="730" on="1"/>
        <pt x="1" y="730" on="0"/>
        <pt x="-15" y="767" on="0"/>
        <pt x="-15" y="829" on="0"/>
        <pt x="30" y="890" on="0"/>
        <pt x="50" y="890" on="1"/>
        <pt x="452" y="890" on="1"/>
        <pt x="478" y="890" on="0"/>
        <pt x="478" y="825" on="1"/>
        <pt x="478" y="793" on="0"/>
        <pt x="436" y="730" on="0"/>
      </contour>
      <contour>
        <pt x="369" y="13" on="0"/>
        <pt x="247" y="0" on="0"/>
        <pt x="124" y="0" on="0"/>
        <pt x="90" y="11" on="0"/>
        <pt x="90" y="24" on="1"/>
        <pt x="90" y="646" on="1"/>
        <pt x="90" y="668" on="0"/>
        <pt x="206" y="711" on="0"/>
        <pt x="278" y="711" on="1"/>
        <pt x="342" y="711" on="0"/>
        <pt x="362" y="684" on="1"/>
        <pt x="369" y="674" on="0"/>
        <pt x="369" y="664" on="1"/>
        <pt x="369" y="24" on="1"/>
      </contour>
    </TTGlyph>
    <TTGlyph name="Iogonek" xMin="30" yMin="-155" xMax="339" yMax="711">
      <contour>
        <pt x="202" y="0" on="0"/>
        <pt x="324" y="13" on="0"/>
        <pt x="324" y="24" on="1"/>
        <pt x="324" y="664" on="1"/>
        <pt x="324" y="674" on="0"/>
        <pt x="316" y="684" on="1"/>
        <pt x="297" y="711" on="0"/>
        <pt x="233" y="711" on="1"/>
        <pt x="161" y="711" on="0"/>
        <pt x="45" y="668" on="0"/>
        <pt x="45" y="646" on="1"/>
        <pt x="45" y="24" on="1"/>
        <pt x="45" y="11" on="0"/>
        <pt x="79" y="0" on="0"/>
      </contour>
      <contour>
        <pt x="129" y="-155" on="0"/>
        <pt x="30" y="-99" on="0"/>
        <pt x="30" y="19" on="0"/>
        <pt x="77" y="47" on="1"/>
        <pt x="94" y="47" on="0"/>
        <pt x="236" y="30" on="0"/>
        <pt x="236" y="14" on="0"/>
        <pt x="198" y="-13" on="0"/>
        <pt x="198" y="-23" on="1"/>
        <pt x="198" y="-39" on="0"/>
        <pt x="248" y="-39" on="0"/>
        <pt x="300" y="-30" on="0"/>
        <pt x="310" y="-30" on="0"/>
        <pt x="318" y="-42" on="1"/>
        <pt x="339" y="-72" on="0"/>
        <pt x="339" y="-131" on="1"/>
        <pt x="339" y="-144" on="0"/>
        <pt x="241" y="-155" on="0"/>
        <pt x="205" y="-155" on="1"/>
      </contour>
    </TTGlyph>
    <TTGlyph name="Itilde" xMin="-50" yMin="0" xMax="431" yMax="900">
      <contour>
        <pt x="324" y="13" on="0"/>
        <pt x="202" y="0" on="0"/>
        <pt x="79" y="0" on="0"/>
        <pt x="45" y="11" on="0"/>
        <pt x="45" y="24" on="1"/>
        <pt x="45" y="646" on="1"/>
        <pt x="45" y="668" on="0"/>
        <pt x="161" y="711" on="0"/>
        <pt x="233" y="711" on="1"/>
        <pt x="297" y="711" on="0"/>
        <pt x="316" y="684" on="1"/>
        <pt x="324" y="674" on="0"/>
        <pt x="324" y="664" on="1"/>
        <pt x="324" y="24" on="1"/>
      </contour>
      <contour>
        <pt x="431" y="794" on="0"/>
        <pt x="328" y="730" on="0"/>
        <pt x="251" y="730" on="0"/>
        <pt x="144" y="765" on="0"/>
        <pt x="113" y="765" on="0"/>
        <pt x="25" y="730" on="0"/>
        <pt x="-11" y="730" on="0"/>
        <pt x="-50" y="801" on="0"/>
        <pt x="-50" y="820" on="1"/>
        <pt x="-50" y="837" on="0"/>
        <pt x="59" y="900" on="0"/>
        <pt x="131" y="900" on="0"/>
        <pt x="236" y="866" on="0"/>
        <pt x="259" y="866" on="1"/>
        <pt x="266" y="866" on="0"/>
        <pt x="351" y="900" on="0"/>
        <pt x="390" y="900" on="0"/>
        <pt x="431" y="826" on="0"/>
        <pt x="431" y="809" on="1"/>
      </contour>
    </TTGlyph>
    <TTGlyph name="J" xMin="10" yMin="-135" xMax="370" yMax="710">
      <contour>
        <pt x="319" y="-108" on="0"/>
        <pt x="244" y="-135" on="0"/>
        <pt x="149" y="-135" on="0"/>
        <pt x="105" y="-132" on="0"/>
        <pt x="56" y="-119" on="0"/>
        <pt x="42" y="-108" on="1"/>
        <pt x="10" y="-81" on="0"/>
        <pt x="10" y="-24" on="1"/>
        <pt x="10" y="58" on="0"/>
        <pt x="52" y="58" on="1"/>
        <pt x="65" y="58" on="0"/>
        <pt x="72" y="62" on="1"/>
        <pt x="91" y="71" on="0"/>
        <pt x="91" y="124" on="1"/>
        <pt x="91" y="645" on="1"/>
        <pt x="91" y="667" on="0"/>
        <pt x="206" y="710" on="0"/>
        <pt x="271" y="710" on="1"/>
        <pt x="370" y="710" on="0"/>
        <pt x="370" y="663" on="1"/>
        <pt x="370" y="110" on="1"/>
        <pt x="370" y="41" on="0"/>
        <pt x="358" y="-41" on="0"/>
      </contour>
    </TTGlyph>
    <TTGlyph name="J.sc" xMin="20" yMin="-135" xMax="380" yMax="600">
      <contour>
        <pt x="329" y="-108" on="0"/>
        <pt x="254" y="-135" on="0"/>
        <pt x="159" y="-135" on="0"/>
        <pt x="115" y="-132" on="0"/>
        <pt x="66" y="-119" on="0"/>
        <pt x="52" y="-108" on="1"/>
        <pt x="20" y="-81" on="0"/>
        <pt x="20" y="-24" on="1"/>
        <pt x="20" y="58" on="0"/>
        <pt x="62" y="58" on="1"/>
        <pt x="75" y="58" on="0"/>
        <pt x="82" y="62" on="1"/>
        <pt x="101" y="71" on="0"/>
        <pt x="101" y="124" on="1"/>
        <pt x="101" y="536" on="1"/>
        <pt x="101" y="558" on="0"/>
        <pt x="216" y="600" on="0"/>
        <pt x="281" y="600" on="1"/>
        <pt x="380" y="600" on="0"/>
        <pt x="380" y="554" on="1"/>
        <pt x="380" y="110" on="1"/>
        <pt x="380" y="41" on="0"/>
        <pt x="368" y="-41" on="0"/>
      </contour>
    </TTGlyph>
    <TTGlyph name="Jcircumflex" xMin="15" yMin="-135" xMax="419" yMax="860">
      <contour>
        <pt x="59" y="791" on="0"/>
        <pt x="206" y="860" on="0"/>
        <pt x="277" y="860" on="0"/>
        <pt x="419" y="792" on="0"/>
        <pt x="419" y="780" on="1"/>
        <pt x="419" y="745" on="0"/>
        <pt x="397" y="690" on="0"/>
        <pt x="379" y="690" on="1"/>
        <pt x="365" y="690" on="0"/>
        <pt x="239" y="729" on="1"/>
        <pt x="112" y="690" on="0"/>
        <pt x="99" y="690" on="1"/>
        <pt x="81" y="690" on="0"/>
        <pt x="59" y="745" on="0"/>
        <pt x="59" y="780" on="1"/>
      </contour>
      <contour>
        <pt x="324" y="-108" on="0"/>
        <pt x="249" y="-135" on="0"/>
        <pt x="154" y="-135" on="0"/>
        <pt x="110" y="-132" on="0"/>
        <pt x="61" y="-119" on="0"/>
        <pt x="47" y="-108" on="1"/>
        <pt x="15" y="-81" on="0"/>
        <pt x="15" y="-24" on="1"/>
        <pt x="15" y="58" on="0"/>
        <pt x="57" y="58" on="1"/>
        <pt x="70" y="58" on="0"/>
        <pt x="77" y="62" on="1"/>
        <pt x="96" y="71" on="0"/>
        <pt x="96" y="124" on="1"/>
        <pt x="96" y="595" on="1"/>
        <pt x="96" y="617" on="0"/>
        <pt x="211" y="660" on="0"/>
        <pt x="276" y="660" on="1"/>
        <pt x="375" y="660" on="0"/>
        <pt x="375" y="613" on="1"/>
        <pt x="375" y="110" on="1"/>
        <pt x="375" y="41" on="0"/>
        <pt x="363" y="-41" on="0"/>
      </contour>
    </TTGlyph>
    <TTGlyph name="K" xMin="40" yMin="-8" xMax="694" yMax="720">
      <contour>
        <pt x="319" y="18" on="0"/>
        <pt x="196" y="2" on="0"/>
        <pt x="74" y="2" on="0"/>
        <pt x="40" y="16" on="0"/>
        <pt x="40" y="31" on="1"/>
        <pt x="40" y="644" on="1"/>
        <pt x="40" y="670" on="0"/>
        <pt x="153" y="710" on="0"/>
        <pt x="227" y="710" on="1"/>
        <pt x="288" y="710" on="0"/>
        <pt x="306" y="686" on="1"/>
        <pt x="319" y="669" on="0"/>
        <pt x="319" y="655" on="1"/>
        <pt x="319" y="490" on="1"/>
        <pt x="327" y="490" on="1"/>
        <pt x="327" y="495" on="0"/>
        <pt x="357" y="573" on="1"/>
        <pt x="414" y="720" on="0"/>
        <pt x="440" y="720" on="1"/>
        <pt x="489" y="720" on="0"/>
        <pt x="578" y="691" on="1"/>
        <pt x="621" y="677" on="0"/>
        <pt x="683" y="624" on="0"/>
        <pt x="683" y="592" on="1"/>
        <pt x="683" y="572" on="0"/>
        <pt x="602" y="457" on="0"/>
        <pt x="520" y="361" on="1"/>
        <pt x="539" y="341" on="0"/>
        <pt x="597" y="279" on="0"/>
        <pt x="694" y="156" on="0"/>
        <pt x="694" y="104" on="0"/>
        <pt x="600" y="35" on="0"/>
        <pt x="494" y="-8" on="0"/>
        <pt x="468" y="-8" on="1"/>
        <pt x="451" y="-8" on="0"/>
        <pt x="392" y="95" on="0"/>
        <pt x="350" y="198" on="1"/>
        <pt x="319" y="161" on="1"/>
        <pt x="319" y="31" on="1"/>
      </contour>
    </TTGlyph>
    <TTGlyph name="K.sc" xMin="50" yMin="-8" xMax="710" yMax="609">
      <contour>
        <pt x="329" y="13" on="0"/>
        <pt x="207" y="0" on="0"/>
        <pt x="84" y="0" on="0"/>
        <pt x="50" y="11" on="0"/>
        <pt x="50" y="24" on="1"/>
        <pt x="50" y="545" on="1"/>
        <pt x="50" y="566" on="0"/>
        <pt x="164" y="600" on="0"/>
        <pt x="277" y="600" on="0"/>
        <pt x="321" y="579" on="0"/>
        <pt x="329" y="563" on="0"/>
        <pt x="329" y="554" on="1"/>
        <pt x="329" y="412" on="1"/>
        <pt x="338" y="412" on="1"/>
        <pt x="339" y="414" on="0"/>
        <pt x="367" y="482" on="0"/>
        <pt x="396" y="550" on="0"/>
        <pt x="431" y="609" on="0"/>
        <pt x="441" y="609" on="1"/>
        <pt x="489" y="609" on="0"/>
        <pt x="579" y="584" on="1"/>
        <pt x="622" y="572" on="0"/>
        <pt x="684" y="527" on="0"/>
        <pt x="684" y="483" on="0"/>
        <pt x="609" y="383" on="0"/>
        <pt x="534" y="300" on="1"/>
        <pt x="541" y="294" on="0"/>
        <pt x="565" y="274" on="0"/>
        <pt x="626" y="220" on="0"/>
        <pt x="649" y="196" on="1"/>
        <pt x="710" y="134" on="0"/>
        <pt x="710" y="113" on="1"/>
        <pt x="710" y="76" on="0"/>
        <pt x="528" y="-8" on="0"/>
        <pt x="483" y="-8" on="1"/>
        <pt x="465" y="-8" on="0"/>
        <pt x="404" y="76" on="0"/>
        <pt x="382" y="118" on="1"/>
        <pt x="361" y="160" on="1"/>
        <pt x="329" y="129" on="1"/>
        <pt x="329" y="24" on="1"/>
      </contour>
    </TTGlyph>
    <TTGlyph name="L" xMin="40" yMin="0" xMax="524" yMax="711">
      <contour>
        <pt x="124" y="0" on="1"/>
        <pt x="74" y="0" on="0"/>
        <pt x="40" y="11" on="0"/>
        <pt x="40" y="24" on="1"/>
        <pt x="40" y="646" on="1"/>
        <pt x="40" y="668" on="0"/>
        <pt x="156" y="711" on="0"/>
        <pt x="228" y="711" on="1"/>
        <pt x="292" y="711" on="0"/>
        <pt x="312" y="684" on="1"/>
        <pt x="319" y="674" on="0"/>
        <pt x="319" y="664" on="1"/>
        <pt x="319" y="221" on="1"/>
        <pt x="441" y="229" on="0"/>
        <pt x="503" y="229" on="1"/>
        <pt x="524" y="229" on="0"/>
        <pt x="524" y="96" on="0"/>
        <pt x="506" y="0" on="0"/>
        <pt x="491" y="0" on="1"/>
      </contour>
    </TTGlyph>
    <TTGlyph name="L.sc" xMin="50" yMin="0" xMax="534" yMax="600">
      <contour>
        <pt x="501" y="0" on="1"/>
        <pt x="134" y="0" on="1"/>
        <pt x="84" y="0" on="0"/>
        <pt x="50" y="11" on="0"/>
        <pt x="50" y="24" on="1"/>
        <pt x="50" y="536" on="1"/>
        <pt x="50" y="558" on="0"/>
        <pt x="166" y="600" on="0"/>
        <pt x="277" y="600" on="0"/>
        <pt x="321" y="579" on="0"/>
        <pt x="329" y="563" on="0"/>
        <pt x="329" y="554" on="1"/>
        <pt x="329" y="221" on="1"/>
        <pt x="451" y="229" on="0"/>
        <pt x="513" y="229" on="1"/>
        <pt x="534" y="229" on="0"/>
        <pt x="534" y="96" on="0"/>
        <pt x="516" y="0" on="0"/>
      </contour>
    </TTGlyph>
    <TTGlyph name="Lacute" xMin="45" yMin="0" xMax="529" yMax="910">
      <contour>
        <pt x="129" y="0" on="1"/>
        <pt x="79" y="0" on="0"/>
        <pt x="45" y="11" on="0"/>
        <pt x="45" y="24" on="1"/>
        <pt x="45" y="646" on="1"/>
        <pt x="45" y="668" on="0"/>
        <pt x="161" y="711" on="0"/>
        <pt x="233" y="711" on="1"/>
        <pt x="297" y="711" on="0"/>
        <pt x="316" y="684" on="1"/>
        <pt x="324" y="674" on="0"/>
        <pt x="324" y="664" on="1"/>
        <pt x="324" y="221" on="1"/>
        <pt x="446" y="229" on="0"/>
        <pt x="508" y="229" on="1"/>
        <pt x="529" y="229" on="0"/>
        <pt x="529" y="96" on="0"/>
        <pt x="511" y="0" on="0"/>
        <pt x="496" y="0" on="1"/>
      </contour>
      <contour>
        <pt x="342" y="910" on="1"/>
        <pt x="365" y="910" on="0"/>
        <pt x="412" y="834" on="0"/>
        <pt x="412" y="778" on="1"/>
        <pt x="412" y="763" on="0"/>
        <pt x="239" y="740" on="0"/>
        <pt x="182" y="740" on="1"/>
        <pt x="163" y="740" on="0"/>
        <pt x="132" y="788" on="0"/>
        <pt x="132" y="851" on="0"/>
        <pt x="281" y="910" on="0"/>
      </contour>
    </TTGlyph>
    <TTGlyph name="Lcaron" xMin="45" yMin="0" xMax="560" yMax="711">
      <contour>
        <pt x="129" y="0" on="1"/>
        <pt x="79" y="0" on="0"/>
        <pt x="45" y="11" on="0"/>
        <pt x="45" y="24" on="1"/>
        <pt x="45" y="646" on="1"/>
        <pt x="45" y="668" on="0"/>
        <pt x="161" y="711" on="0"/>
        <pt x="233" y="711" on="1"/>
        <pt x="297" y="711" on="0"/>
        <pt x="316" y="684" on="1"/>
        <pt x="324" y="674" on="0"/>
        <pt x="324" y="664" on="1"/>
        <pt x="324" y="221" on="1"/>
        <pt x="446" y="229" on="0"/>
        <pt x="508" y="229" on="1"/>
        <pt x="529" y="229" on="0"/>
        <pt x="529" y="96" on="0"/>
        <pt x="511" y="0" on="0"/>
        <pt x="496" y="0" on="1"/>
      </contour>
      <contour>
        <pt x="416" y="367" on="1"/>
        <pt x="387" y="367" on="0"/>
        <pt x="374" y="414" on="1"/>
        <pt x="361" y="464" on="0"/>
        <pt x="359" y="514" on="1"/>
        <pt x="356" y="588" on="0"/>
        <pt x="356" y="657" on="1"/>
        <pt x="356" y="710" on="0"/>
        <pt x="518" y="710" on="1"/>
        <pt x="546" y="710" on="0"/>
        <pt x="560" y="638" on="0"/>
        <pt x="560" y="550" on="1"/>
        <pt x="560" y="367" on="0"/>
      </contour>
    </TTGlyph>
    <TTGlyph name="Ldot" xMin="45" yMin="0" xMax="577" yMax="711">
      <contour>
        <pt x="129" y="0" on="1"/>
        <pt x="79" y="0" on="0"/>
        <pt x="45" y="11" on="0"/>
        <pt x="45" y="24" on="1"/>
        <pt x="45" y="646" on="1"/>
        <pt x="45" y="668" on="0"/>
        <pt x="161" y="711" on="0"/>
        <pt x="233" y="711" on="1"/>
        <pt x="297" y="711" on="0"/>
        <pt x="316" y="684" on="1"/>
        <pt x="324" y="674" on="0"/>
        <pt x="324" y="664" on="1"/>
        <pt x="324" y="221" on="1"/>
        <pt x="446" y="229" on="0"/>
        <pt x="508" y="229" on="1"/>
        <pt x="529" y="229" on="0"/>
        <pt x="529" y="96" on="0"/>
        <pt x="511" y="0" on="0"/>
        <pt x="496" y="0" on="1"/>
      </contour>
      <contour>
        <pt x="577" y="352" on="0"/>
        <pt x="523" y="308" on="0"/>
        <pt x="418" y="308" on="0"/>
        <pt x="364" y="352" on="0"/>
        <pt x="364" y="470" on="0"/>
        <pt x="419" y="509" on="0"/>
        <pt x="523" y="509" on="0"/>
        <pt x="577" y="470" on="0"/>
      </contour>
    </TTGlyph>
    <TTGlyph name="Ldotaccent" xMin="45" yMin="0" xMax="634" yMax="711">
      <contour>
        <pt x="129" y="0" on="1"/>
        <pt x="79" y="0" on="0"/>
        <pt x="45" y="11" on="0"/>
        <pt x="45" y="24" on="1"/>
        <pt x="45" y="646" on="1"/>
        <pt x="45" y="668" on="0"/>
        <pt x="161" y="711" on="0"/>
        <pt x="233" y="711" on="1"/>
        <pt x="297" y="711" on="0"/>
        <pt x="316" y="684" on="1"/>
        <pt x="324" y="674" on="0"/>
        <pt x="324" y="664" on="1"/>
        <pt x="324" y="221" on="1"/>
        <pt x="446" y="229" on="0"/>
        <pt x="508" y="229" on="1"/>
        <pt x="529" y="229" on="0"/>
        <pt x="529" y="96" on="0"/>
        <pt x="511" y="0" on="0"/>
        <pt x="496" y="0" on="1"/>
      </contour>
      <contour>
        <pt x="521" y="496" on="0"/>
        <pt x="555" y="494" on="0"/>
        <pt x="596" y="485" on="0"/>
        <pt x="607" y="476" on="1"/>
        <pt x="634" y="454" on="0"/>
        <pt x="634" y="361" on="0"/>
        <pt x="561" y="326" on="0"/>
        <pt x="428" y="326" on="0"/>
        <pt x="354" y="361" on="0"/>
        <pt x="354" y="411" on="1"/>
        <pt x="354" y="464" on="0"/>
        <pt x="396" y="482" on="1"/>
        <pt x="432" y="496" on="0"/>
      </contour>
    </TTGlyph>
    <TTGlyph name="Lslash" xMin="10" yMin="0" xMax="591" yMax="711">
      <contour>
        <pt x="191" y="0" on="1"/>
        <pt x="141" y="0" on="0"/>
        <pt x="107" y="11" on="0"/>
        <pt x="107" y="24" on="1"/>
        <pt x="107" y="313" on="1"/>
        <pt x="37" y="313" on="1"/>
        <pt x="26" y="313" on="0"/>
        <pt x="10" y="350" on="0"/>
        <pt x="10" y="419" on="0"/>
        <pt x="54" y="490" on="0"/>
        <pt x="75" y="490" on="1"/>
        <pt x="107" y="490" on="1"/>
        <pt x="107" y="646" on="1"/>
        <pt x="107" y="668" on="0"/>
        <pt x="223" y="711" on="0"/>
        <pt x="295" y="711" on="1"/>
        <pt x="359" y="711" on="0"/>
        <pt x="378" y="684" on="1"/>
        <pt x="386" y="674" on="0"/>
        <pt x="386" y="664" on="1"/>
        <pt x="386" y="490" on="1"/>
        <pt x="487" y="490" on="1"/>
        <pt x="513" y="490" on="0"/>
        <pt x="513" y="425" on="1"/>
        <pt x="513" y="392" on="0"/>
        <pt x="471" y="313" on="0"/>
        <pt x="452" y="313" on="1"/>
        <pt x="386" y="313" on="1"/>
        <pt x="386" y="221" on="1"/>
        <pt x="508" y="229" on="0"/>
        <pt x="570" y="229" on="1"/>
        <pt x="591" y="229" on="0"/>
        <pt x="591" y="96" on="0"/>
        <pt x="573" y="0" on="0"/>
        <pt x="558" y="0" on="1"/>
      </contour>
    </TTGlyph>
    <TTGlyph name="M" xMin="40" yMin="0" xMax="840" yMax="710">
      <contour>
        <pt x="194" y="0" on="1"/>
        <pt x="169" y="0" on="0"/>
        <pt x="74" y="0" on="0"/>
        <pt x="40" y="14" on="0"/>
        <pt x="40" y="29" on="1"/>
        <pt x="40" y="660" on="1"/>
        <pt x="40" y="683" on="0"/>
        <pt x="163" y="710" on="0"/>
        <pt x="303" y="710" on="0"/>
        <pt x="363" y="674" on="0"/>
        <pt x="368" y="654" on="1"/>
        <pt x="436" y="390" on="1"/>
        <pt x="445" y="390" on="1"/>
        <pt x="509" y="642" on="1"/>
        <pt x="516" y="669" on="0"/>
        <pt x="633" y="710" on="0"/>
        <pt x="773" y="710" on="0"/>
        <pt x="840" y="688" on="0"/>
        <pt x="840" y="671" on="1"/>
        <pt x="840" y="29" on="1"/>
        <pt x="840" y="16" on="0"/>
        <pt x="726" y="0" on="0"/>
        <pt x="562" y="0" on="0"/>
        <pt x="562" y="29" on="1"/>
        <pt x="562" y="108" on="0"/>
        <pt x="579" y="310" on="1"/>
        <pt x="570" y="310" on="1"/>
        <pt x="518" y="49" on="1"/>
        <pt x="515" y="34" on="0"/>
        <pt x="472" y="20" on="0"/>
        <pt x="386" y="20" on="0"/>
        <pt x="367" y="32" on="0"/>
        <pt x="364" y="49" on="1"/>
        <pt x="310" y="310" on="1"/>
        <pt x="301" y="310" on="1"/>
        <pt x="319" y="104" on="0"/>
        <pt x="319" y="29" on="1"/>
        <pt x="319" y="3" on="0"/>
      </contour>
    </TTGlyph>
    <TTGlyph name="M.sc" xMin="50" yMin="0" xMax="850" yMax="600">
      <contour>
        <pt x="84" y="0" on="0"/>
        <pt x="50" y="11" on="0"/>
        <pt x="50" y="24" on="1"/>
        <pt x="50" y="558" on="1"/>
        <pt x="50" y="578" on="0"/>
        <pt x="173" y="600" on="0"/>
        <pt x="313" y="600" on="0"/>
        <pt x="373" y="570" on="0"/>
        <pt x="378" y="553" on="1"/>
        <pt x="448" y="332" on="1"/>
        <pt x="460" y="332" on="1"/>
        <pt x="519" y="543" on="1"/>
        <pt x="525" y="566" on="0"/>
        <pt x="642" y="600" on="0"/>
        <pt x="720" y="600" on="1"/>
        <pt x="850" y="600" on="0"/>
        <pt x="850" y="567" on="1"/>
        <pt x="850" y="24" on="1"/>
        <pt x="850" y="13" on="0"/>
        <pt x="728" y="0" on="0"/>
        <pt x="563" y="0" on="0"/>
        <pt x="563" y="24" on="1"/>
        <pt x="563" y="82" on="0"/>
        <pt x="579" y="264" on="1"/>
        <pt x="570" y="264" on="1"/>
        <pt x="519" y="41" on="1"/>
        <pt x="516" y="28" on="0"/>
        <pt x="482" y="17" on="0"/>
        <pt x="396" y="17" on="0"/>
        <pt x="377" y="27" on="0"/>
        <pt x="374" y="41" on="1"/>
        <pt x="318" y="264" on="1"/>
        <pt x="309" y="264" on="1"/>
        <pt x="329" y="89" on="0"/>
        <pt x="329" y="24" on="1"/>
        <pt x="329" y="7" on="0"/>
        <pt x="262" y="3" on="1"/>
        <pt x="211" y="0" on="0"/>
      </contour>
    </TTGlyph>
    <TTGlyph name="N" xMin="40" yMin="0" xMax="694" yMax="710">
      <contour>
        <pt x="319" y="16" on="0"/>
        <pt x="196" y="0" on="0"/>
        <pt x="74" y="0" on="0"/>
        <pt x="40" y="14" on="0"/>
        <pt x="40" y="29" on="1"/>
        <pt x="40" y="643" on="1"/>
        <pt x="40" y="668" on="0"/>
        <pt x="155" y="710" on="0"/>
        <pt x="228" y="710" on="1"/>
        <pt x="254" y="710" on="0"/>
        <pt x="267" y="708" on="1"/>
        <pt x="301" y="703" on="0"/>
        <pt x="315" y="665" on="1"/>
        <pt x="411" y="407" on="1"/>
        <pt x="415" y="407" on="1"/>
        <pt x="415" y="643" on="1"/>
        <pt x="415" y="668" on="0"/>
        <pt x="529" y="710" on="0"/>
        <pt x="602" y="710" on="1"/>
        <pt x="665" y="710" on="0"/>
        <pt x="682" y="686" on="1"/>
        <pt x="694" y="669" on="0"/>
        <pt x="694" y="655" on="1"/>
        <pt x="694" y="29" on="1"/>
        <pt x="694" y="16" on="0"/>
        <pt x="571" y="0" on="0"/>
        <pt x="424" y="0" on="0"/>
        <pt x="417" y="19" on="1"/>
        <pt x="324" y="265" on="1"/>
        <pt x="319" y="265" on="1"/>
        <pt x="319" y="29" on="1"/>
      </contour>
    </TTGlyph>
    <TTGlyph name="N.sc" xMin="50" yMin="0" xMax="704" yMax="600">
      <contour>
        <pt x="329" y="13" on="0"/>
        <pt x="207" y="0" on="0"/>
        <pt x="84" y="0" on="0"/>
        <pt x="50" y="11" on="0"/>
        <pt x="50" y="24" on="1"/>
        <pt x="50" y="536" on="1"/>
        <pt x="50" y="558" on="0"/>
        <pt x="166" y="600" on="0"/>
        <pt x="238" y="600" on="1"/>
        <pt x="264" y="600" on="0"/>
        <pt x="276" y="598" on="1"/>
        <pt x="309" y="595" on="0"/>
        <pt x="325" y="562" on="1"/>
        <pt x="420" y="370" on="1"/>
        <pt x="424" y="370" on="1"/>
        <pt x="424" y="536" on="1"/>
        <pt x="424" y="558" on="0"/>
        <pt x="540" y="600" on="0"/>
        <pt x="612" y="600" on="1"/>
        <pt x="704" y="600" on="0"/>
        <pt x="704" y="554" on="1"/>
        <pt x="704" y="24" on="1"/>
        <pt x="704" y="13" on="0"/>
        <pt x="581" y="0" on="0"/>
        <pt x="435" y="0" on="0"/>
        <pt x="426" y="16" on="1"/>
        <pt x="334" y="203" on="1"/>
        <pt x="329" y="203" on="1"/>
        <pt x="329" y="24" on="1"/>
      </contour>
    </TTGlyph>
    <TTGlyph name="Nacute" xMin="45" yMin="0" xMax="699" yMax="910">
      <contour>
        <pt x="324" y="16" on="0"/>
        <pt x="201" y="0" on="0"/>
        <pt x="79" y="0" on="0"/>
        <pt x="45" y="14" on="0"/>
        <pt x="45" y="29" on="1"/>
        <pt x="45" y="643" on="1"/>
        <pt x="45" y="668" on="0"/>
        <pt x="160" y="710" on="0"/>
        <pt x="233" y="710" on="1"/>
        <pt x="259" y="710" on="0"/>
        <pt x="272" y="708" on="1"/>
        <pt x="306" y="703" on="0"/>
        <pt x="320" y="665" on="1"/>
        <pt x="416" y="407" on="1"/>
        <pt x="420" y="407" on="1"/>
        <pt x="420" y="643" on="1"/>
        <pt x="420" y="668" on="0"/>
        <pt x="534" y="710" on="0"/>
        <pt x="607" y="710" on="1"/>
        <pt x="670" y="710" on="0"/>
        <pt x="686" y="686" on="1"/>
        <pt x="699" y="669" on="0"/>
        <pt x="699" y="655" on="1"/>
        <pt x="699" y="29" on="1"/>
        <pt x="699" y="16" on="0"/>
        <pt x="576" y="0" on="0"/>
        <pt x="429" y="0" on="0"/>
        <pt x="422" y="19" on="1"/>
        <pt x="329" y="265" on="1"/>
        <pt x="324" y="265" on="1"/>
        <pt x="324" y="29" on="1"/>
      </contour>
      <contour>
        <pt x="462" y="910" on="1"/>
        <pt x="485" y="910" on="0"/>
        <pt x="532" y="834" on="0"/>
        <pt x="532" y="778" on="1"/>
        <pt x="532" y="763" on="0"/>
        <pt x="359" y="740" on="0"/>
        <pt x="302" y="740" on="1"/>
        <pt x="283" y="740" on="0"/>
        <pt x="252" y="788" on="0"/>
        <pt x="252" y="851" on="0"/>
        <pt x="401" y="910" on="0"/>
      </contour>
    </TTGlyph>
    <TTGlyph name="Ncaron" xMin="45" yMin="0" xMax="699" yMax="910">
      <contour>
        <pt x="324" y="16" on="0"/>
        <pt x="201" y="0" on="0"/>
        <pt x="79" y="0" on="0"/>
        <pt x="45" y="14" on="0"/>
        <pt x="45" y="29" on="1"/>
        <pt x="45" y="643" on="1"/>
        <pt x="45" y="668" on="0"/>
        <pt x="160" y="710" on="0"/>
        <pt x="233" y="710" on="1"/>
        <pt x="259" y="710" on="0"/>
        <pt x="272" y="708" on="1"/>
        <pt x="306" y="703" on="0"/>
        <pt x="320" y="665" on="1"/>
        <pt x="416" y="407" on="1"/>
        <pt x="420" y="407" on="1"/>
        <pt x="420" y="643" on="1"/>
        <pt x="420" y="668" on="0"/>
        <pt x="534" y="710" on="0"/>
        <pt x="607" y="710" on="1"/>
        <pt x="670" y="710" on="0"/>
        <pt x="686" y="686" on="1"/>
        <pt x="699" y="669" on="0"/>
        <pt x="699" y="655" on="1"/>
        <pt x="699" y="29" on="1"/>
        <pt x="699" y="16" on="0"/>
        <pt x="576" y="0" on="0"/>
        <pt x="429" y="0" on="0"/>
        <pt x="422" y="19" on="1"/>
        <pt x="329" y="265" on="1"/>
        <pt x="324" y="265" on="1"/>
        <pt x="324" y="29" on="1"/>
      </contour>
      <contour>
        <pt x="552" y="808" on="0"/>
        <pt x="410" y="740" on="0"/>
        <pt x="339" y="740" on="0"/>
        <pt x="192" y="809" on="0"/>
        <pt x="192" y="820" on="1"/>
        <pt x="192" y="855" on="0"/>
        <pt x="214" y="910" on="0"/>
        <pt x="232" y="910" on="1"/>
        <pt x="245" y="910" on="0"/>
        <pt x="372" y="871" on="1"/>
        <pt x="498" y="910" on="0"/>
        <pt x="512" y="910" on="1"/>
        <pt x="530" y="910" on="0"/>
        <pt x="552" y="855" on="0"/>
        <pt x="552" y="820" on="1"/>
      </contour>
    </TTGlyph>
    <TTGlyph name="Ntilde" xMin="40" yMin="0" xMax="694" yMax="900">
      <contour>
        <pt x="319" y="16" on="0"/>
        <pt x="196" y="0" on="0"/>
        <pt x="74" y="0" on="0"/>
        <pt x="40" y="14" on="0"/>
        <pt x="40" y="29" on="1"/>
        <pt x="40" y="643" on="1"/>
        <pt x="40" y="668" on="0"/>
        <pt x="155" y="710" on="0"/>
        <pt x="228" y="710" on="1"/>
        <pt x="254" y="710" on="0"/>
        <pt x="267" y="708" on="1"/>
        <pt x="301" y="703" on="0"/>
        <pt x="315" y="665" on="1"/>
        <pt x="411" y="407" on="1"/>
        <pt x="415" y="407" on="1"/>
        <pt x="415" y="643" on="1"/>
        <pt x="415" y="668" on="0"/>
        <pt x="529" y="710" on="0"/>
        <pt x="602" y="710" on="1"/>
        <pt x="665" y="710" on="0"/>
        <pt x="682" y="686" on="1"/>
        <pt x="694" y="669" on="0"/>
        <pt x="694" y="655" on="1"/>
        <pt x="694" y="29" on="1"/>
        <pt x="694" y="16" on="0"/>
        <pt x="571" y="0" on="0"/>
        <pt x="424" y="0" on="0"/>
        <pt x="417" y="19" on="1"/>
        <pt x="324" y="265" on="1"/>
        <pt x="319" y="265" on="1"/>
        <pt x="319" y="29" on="1"/>
      </contour>
      <contour>
        <pt x="602" y="794" on="0"/>
        <pt x="499" y="730" on="0"/>
        <pt x="422" y="730" on="0"/>
        <pt x="315" y="765" on="0"/>
        <pt x="284" y="765" on="0"/>
        <pt x="196" y="730" on="0"/>
        <pt x="160" y="730" on="0"/>
        <pt x="121" y="801" on="0"/>
        <pt x="121" y="820" on="1"/>
        <pt x="121" y="837" on="0"/>
        <pt x="230" y="900" on="0"/>
        <pt x="302" y="900" on="0"/>
        <pt x="407" y="866" on="0"/>
        <pt x="430" y="866" on="1"/>
        <pt x="437" y="866" on="0"/>
        <pt x="522" y="900" on="0"/>
        <pt x="561" y="900" on="0"/>
        <pt x="602" y="826" on="0"/>
        <pt x="602" y="809" on="1"/>
      </contour>
    </TTGlyph>
    <TTGlyph name="O" xMin="25" yMin="-9" xMax="731" yMax="720">
      <contour>
        <pt x="378" y="-9" on="1"/>
        <pt x="295" y="-9" on="0"/>
        <pt x="176" y="22" on="0"/>
        <pt x="126" y="62" on="1"/>
        <pt x="25" y="141" on="0"/>
        <pt x="25" y="365" on="1"/>
        <pt x="25" y="459" on="0"/>
        <pt x="80" y="599" on="0"/>
        <pt x="129" y="640" on="1"/>
        <pt x="225" y="720" on="0"/>
        <pt x="378" y="720" on="1"/>
        <pt x="457" y="720" on="0"/>
        <pt x="574" y="692" on="0"/>
        <pt x="626" y="655" on="1"/>
        <pt x="731" y="579" on="0"/>
        <pt x="731" y="365" on="1"/>
        <pt x="731" y="173" on="0"/>
        <pt x="541" y="-9" on="0"/>
      </contour>
      <contour>
        <pt x="357" y="148" on="0"/>
        <pt x="399" y="148" on="0"/>
        <pt x="423" y="177" on="0"/>
        <pt x="439" y="272" on="0"/>
        <pt x="439" y="442" on="0"/>
        <pt x="423" y="534" on="0"/>
        <pt x="399" y="562" on="0"/>
        <pt x="357" y="562" on="0"/>
        <pt x="333" y="534" on="0"/>
        <pt x="317" y="442" on="0"/>
        <pt x="317" y="272" on="0"/>
        <pt x="333" y="177" on="0"/>
      </contour>
    </TTGlyph>
    <TTGlyph name="O.sc" xMin="40" yMin="-9" xMax="728" yMax="609">
      <contour>
        <pt x="384" y="-9" on="1"/>
        <pt x="301" y="-9" on="0"/>
        <pt x="185" y="16" on="0"/>
        <pt x="136" y="50" on="1"/>
        <pt x="40" y="116" on="0"/>
        <pt x="40" y="307" on="1"/>
        <pt x="40" y="478" on="0"/>
        <pt x="140" y="546" on="1"/>
        <pt x="230" y="609" on="0"/>
        <pt x="384" y="609" on="1"/>
        <pt x="464" y="609" on="0"/>
        <pt x="578" y="585" on="0"/>
        <pt x="628" y="554" on="1"/>
        <pt x="728" y="491" on="0"/>
        <pt x="728" y="134" on="0"/>
        <pt x="550" y="-9" on="0"/>
      </contour>
      <contour>
        <pt x="361" y="145" on="0"/>
        <pt x="407" y="145" on="0"/>
        <pt x="428" y="158" on="0"/>
        <pt x="445" y="228" on="0"/>
        <pt x="445" y="373" on="0"/>
        <pt x="428" y="442" on="0"/>
        <pt x="407" y="455" on="0"/>
        <pt x="361" y="455" on="0"/>
        <pt x="340" y="442" on="0"/>
        <pt x="323" y="373" on="0"/>
        <pt x="323" y="228" on="0"/>
        <pt x="340" y="158" on="0"/>
      </contour>
    </TTGlyph>
    <TTGlyph name="OE" xMin="40" yMin="-9" xMax="994" yMax="709">
      <contour>
        <pt x="486" y="3" on="1"/>
        <pt x="450" y="-9" on="0"/>
        <pt x="327" y="-9" on="0"/>
        <pt x="227" y="8" on="0"/>
        <pt x="134" y="56" on="0"/>
        <pt x="104" y="96" on="1"/>
        <pt x="40" y="185" on="0"/>
        <pt x="40" y="536" on="0"/>
        <pt x="236" y="709" on="0"/>
        <pt x="393" y="709" on="1"/>
        <pt x="454" y="709" on="0"/>
        <pt x="492" y="694" on="1"/>
        <pt x="526" y="700" on="0"/>
        <pt x="562" y="700" on="1"/>
        <pt x="964" y="700" on="1"/>
        <pt x="985" y="700" on="0"/>
        <pt x="985" y="630" on="1"/>
        <pt x="985" y="493" on="0"/>
        <pt x="952" y="493" on="1"/>
        <pt x="913" y="493" on="0"/>
        <pt x="733" y="506" on="1"/>
        <pt x="733" y="439" on="1"/>
        <pt x="881" y="445" on="0"/>
        <pt x="926" y="445" on="1"/>
        <pt x="953" y="445" on="0"/>
        <pt x="953" y="319" on="0"/>
        <pt x="932" y="254" on="0"/>
        <pt x="914" y="254" on="1"/>
        <pt x="733" y="258" on="1"/>
        <pt x="733" y="194" on="1"/>
        <pt x="907" y="207" on="0"/>
        <pt x="973" y="207" on="1"/>
        <pt x="994" y="207" on="0"/>
        <pt x="994" y="138" on="1"/>
        <pt x="994" y="0" on="0"/>
        <pt x="961" y="0" on="1"/>
        <pt x="537" y="0" on="1"/>
        <pt x="504" y="0" on="0"/>
      </contour>
      <contour>
        <pt x="372" y="148" on="0"/>
        <pt x="414" y="148" on="0"/>
        <pt x="438" y="175" on="0"/>
        <pt x="454" y="267" on="0"/>
        <pt x="454" y="437" on="0"/>
        <pt x="438" y="527" on="0"/>
        <pt x="414" y="553" on="0"/>
        <pt x="372" y="553" on="0"/>
        <pt x="348" y="527" on="0"/>
        <pt x="332" y="437" on="0"/>
        <pt x="332" y="267" on="0"/>
        <pt x="348" y="175" on="0"/>
      </contour>
    </TTGlyph>
    <TTGlyph name="Oacute" xMin="35" yMin="-9" xMax="741" yMax="920">
      <contour>
        <pt x="388" y="-9" on="1"/>
        <pt x="305" y="-9" on="0"/>
        <pt x="186" y="22" on="0"/>
        <pt x="136" y="62" on="1"/>
        <pt x="35" y="141" on="0"/>
        <pt x="35" y="365" on="1"/>
        <pt x="35" y="459" on="0"/>
        <pt x="90" y="599" on="0"/>
        <pt x="139" y="640" on="1"/>
        <pt x="235" y="720" on="0"/>
        <pt x="388" y="720" on="1"/>
        <pt x="467" y="720" on="0"/>
        <pt x="584" y="692" on="0"/>
        <pt x="636" y="655" on="1"/>
        <pt x="741" y="579" on="0"/>
        <pt x="741" y="365" on="1"/>
        <pt x="741" y="173" on="0"/>
        <pt x="551" y="-9" on="0"/>
      </contour>
      <contour>
        <pt x="367" y="148" on="0"/>
        <pt x="409" y="148" on="0"/>
        <pt x="433" y="177" on="0"/>
        <pt x="449" y="272" on="0"/>
        <pt x="449" y="442" on="0"/>
        <pt x="433" y="534" on="0"/>
        <pt x="409" y="562" on="0"/>
        <pt x="367" y="562" on="0"/>
        <pt x="343" y="534" on="0"/>
        <pt x="327" y="442" on="0"/>
        <pt x="327" y="272" on="0"/>
        <pt x="343" y="177" on="0"/>
      </contour>
      <contour>
        <pt x="498" y="920" on="1"/>
        <pt x="521" y="920" on="0"/>
        <pt x="568" y="844" on="0"/>
        <pt x="568" y="788" on="1"/>
        <pt x="568" y="773" on="0"/>
        <pt x="395" y="750" on="0"/>
        <pt x="338" y="750" on="1"/>
        <pt x="319" y="750" on="0"/>
        <pt x="288" y="798" on="0"/>
        <pt x="288" y="861" on="0"/>
        <pt x="437" y="920" on="0"/>
      </contour>
    </TTGlyph>
    <TTGlyph name="Obreve" xMin="35" yMin="-9" xMax="741" yMax="900">
      <contour>
        <pt x="388" y="-9" on="1"/>
        <pt x="305" y="-9" on="0"/>
        <pt x="186" y="22" on="0"/>
        <pt x="136" y="62" on="1"/>
        <pt x="35" y="141" on="0"/>
        <pt x="35" y="365" on="1"/>
        <pt x="35" y="459" on="0"/>
        <pt x="90" y="599" on="0"/>
        <pt x="139" y="640" on="1"/>
        <pt x="235" y="720" on="0"/>
        <pt x="388" y="720" on="1"/>
        <pt x="467" y="720" on="0"/>
        <pt x="584" y="692" on="0"/>
        <pt x="636" y="655" on="1"/>
        <pt x="741" y="579" on="0"/>
        <pt x="741" y="365" on="1"/>
        <pt x="741" y="173" on="0"/>
        <pt x="551" y="-9" on="0"/>
      </contour>
      <contour>
        <pt x="367" y="148" on="0"/>
        <pt x="409" y="148" on="0"/>
        <pt x="433" y="177" on="0"/>
        <pt x="449" y="272" on="0"/>
        <pt x="449" y="442" on="0"/>
        <pt x="433" y="534" on="0"/>
        <pt x="409" y="562" on="0"/>
        <pt x="367" y="562" on="0"/>
        <pt x="343" y="534" on="0"/>
        <pt x="327" y="442" on="0"/>
        <pt x="327" y="272" on="0"/>
        <pt x="343" y="177" on="0"/>
      </contour>
      <contour>
        <pt x="365" y="868" on="1"/>
        <pt x="365" y="821" on="0"/>
        <pt x="412" y="821" on="0"/>
        <pt x="412" y="868" on="1"/>
        <pt x="412" y="900" on="0"/>
        <pt x="531" y="900" on="0"/>
        <pt x="531" y="870" on="1"/>
        <pt x="531" y="795" on="0"/>
        <pt x="456" y="740" on="0"/>
        <pt x="320" y="740" on="0"/>
        <pt x="247" y="793" on="0"/>
        <pt x="247" y="870" on="1"/>
        <pt x="247" y="900" on="0"/>
        <pt x="365" y="900" on="0"/>
      </contour>
    </TTGlyph>
    <TTGlyph name="Ocircumflex" xMin="35" yMin="-9" xMax="741" yMax="910">
      <contour>
        <pt x="388" y="-9" on="1"/>
        <pt x="305" y="-9" on="0"/>
        <pt x="186" y="22" on="0"/>
        <pt x="136" y="62" on="1"/>
        <pt x="35" y="141" on="0"/>
        <pt x="35" y="365" on="1"/>
        <pt x="35" y="459" on="0"/>
        <pt x="90" y="599" on="0"/>
        <pt x="139" y="640" on="1"/>
        <pt x="235" y="720" on="0"/>
        <pt x="388" y="720" on="1"/>
        <pt x="467" y="720" on="0"/>
        <pt x="584" y="692" on="0"/>
        <pt x="636" y="655" on="1"/>
        <pt x="741" y="579" on="0"/>
        <pt x="741" y="365" on="1"/>
        <pt x="741" y="173" on="0"/>
        <pt x="551" y="-9" on="0"/>
      </contour>
      <contour>
        <pt x="367" y="148" on="0"/>
        <pt x="409" y="148" on="0"/>
        <pt x="433" y="177" on="0"/>
        <pt x="449" y="272" on="0"/>
        <pt x="449" y="442" on="0"/>
        <pt x="433" y="534" on="0"/>
        <pt x="409" y="562" on="0"/>
        <pt x="367" y="562" on="0"/>
        <pt x="343" y="534" on="0"/>
        <pt x="327" y="442" on="0"/>
        <pt x="327" y="272" on="0"/>
        <pt x="343" y="177" on="0"/>
      </contour>
      <contour>
        <pt x="208" y="841" on="0"/>
        <pt x="355" y="910" on="0"/>
        <pt x="426" y="910" on="0"/>
        <pt x="568" y="842" on="0"/>
        <pt x="568" y="830" on="1"/>
        <pt x="568" y="795" on="0"/>
        <pt x="546" y="740" on="0"/>
        <pt x="528" y="740" on="1"/>
        <pt x="514" y="740" on="0"/>
        <pt x="388" y="779" on="1"/>
        <pt x="261" y="740" on="0"/>
        <pt x="248" y="740" on="1"/>
        <pt x="230" y="740" on="0"/>
        <pt x="208" y="795" on="0"/>
        <pt x="208" y="830" on="1"/>
      </contour>
    </TTGlyph>
    <TTGlyph name="Odieresis" xMin="35" yMin="-9" xMax="741" yMax="910">
      <contour>
        <pt x="388" y="-9" on="1"/>
        <pt x="305" y="-9" on="0"/>
        <pt x="186" y="22" on="0"/>
        <pt x="136" y="62" on="1"/>
        <pt x="35" y="141" on="0"/>
        <pt x="35" y="365" on="1"/>
        <pt x="35" y="459" on="0"/>
        <pt x="90" y="599" on="0"/>
        <pt x="139" y="640" on="1"/>
        <pt x="235" y="720" on="0"/>
        <pt x="388" y="720" on="1"/>
        <pt x="467" y="720" on="0"/>
        <pt x="584" y="692" on="0"/>
        <pt x="636" y="655" on="1"/>
        <pt x="741" y="579" on="0"/>
        <pt x="741" y="365" on="1"/>
        <pt x="741" y="173" on="0"/>
        <pt x="551" y="-9" on="0"/>
      </contour>
      <contour>
        <pt x="367" y="148" on="0"/>
        <pt x="409" y="148" on="0"/>
        <pt x="433" y="177" on="0"/>
        <pt x="449" y="272" on="0"/>
        <pt x="449" y="442" on="0"/>
        <pt x="433" y="534" on="0"/>
        <pt x="409" y="562" on="0"/>
        <pt x="367" y="562" on="0"/>
        <pt x="343" y="534" on="0"/>
        <pt x="327" y="442" on="0"/>
        <pt x="327" y="272" on="0"/>
        <pt x="343" y="177" on="0"/>
      </contour>
      <contour>
        <pt x="301" y="730" on="0"/>
        <pt x="197" y="730" on="0"/>
        <pt x="143" y="769" on="0"/>
        <pt x="143" y="874" on="0"/>
        <pt x="198" y="910" on="0"/>
        <pt x="301" y="910" on="0"/>
        <pt x="356" y="874" on="0"/>
        <pt x="356" y="769" on="0"/>
      </contour>
      <contour>
        <pt x="578" y="730" on="0"/>
        <pt x="474" y="730" on="0"/>
        <pt x="420" y="769" on="0"/>
        <pt x="420" y="874" on="0"/>
        <pt x="475" y="910" on="0"/>
        <pt x="578" y="910" on="0"/>
        <pt x="633" y="874" on="0"/>
        <pt x="633" y="769" on="0"/>
      </contour>
    </TTGlyph>
    <TTGlyph name="Ograve" xMin="35" yMin="-9" xMax="741" yMax="910">
      <contour>
        <pt x="388" y="-9" on="1"/>
        <pt x="305" y="-9" on="0"/>
        <pt x="186" y="22" on="0"/>
        <pt x="136" y="62" on="1"/>
        <pt x="35" y="141" on="0"/>
        <pt x="35" y="365" on="1"/>
        <pt x="35" y="459" on="0"/>
        <pt x="90" y="599" on="0"/>
        <pt x="139" y="640" on="1"/>
        <pt x="235" y="720" on="0"/>
        <pt x="388" y="720" on="1"/>
        <pt x="467" y="720" on="0"/>
        <pt x="584" y="692" on="0"/>
        <pt x="636" y="655" on="1"/>
        <pt x="741" y="579" on="0"/>
        <pt x="741" y="365" on="1"/>
        <pt x="741" y="173" on="0"/>
        <pt x="551" y="-9" on="0"/>
      </contour>
      <contour>
        <pt x="367" y="148" on="0"/>
        <pt x="409" y="148" on="0"/>
        <pt x="433" y="177" on="0"/>
        <pt x="449" y="272" on="0"/>
        <pt x="449" y="442" on="0"/>
        <pt x="433" y="534" on="0"/>
        <pt x="409" y="562" on="0"/>
        <pt x="367" y="562" on="0"/>
        <pt x="343" y="534" on="0"/>
        <pt x="327" y="442" on="0"/>
        <pt x="327" y="272" on="0"/>
        <pt x="343" y="177" on="0"/>
      </contour>
      <contour>
        <pt x="268" y="910" on="1"/>
        <pt x="329" y="910" on="0"/>
        <pt x="478" y="851" on="0"/>
        <pt x="478" y="788" on="0"/>
        <pt x="447" y="740" on="0"/>
        <pt x="428" y="740" on="1"/>
        <pt x="371" y="740" on="0"/>
        <pt x="198" y="763" on="0"/>
        <pt x="198" y="778" on="1"/>
        <pt x="198" y="834" on="0"/>
        <pt x="245" y="910" on="0"/>
      </contour>
    </TTGlyph>
    <TTGlyph name="Ohungarumlaut" xMin="35" yMin="-9" xMax="741" yMax="910">
      <contour>
        <pt x="388" y="-9" on="1"/>
        <pt x="305" y="-9" on="0"/>
        <pt x="186" y="22" on="0"/>
        <pt x="136" y="62" on="1"/>
        <pt x="35" y="141" on="0"/>
        <pt x="35" y="365" on="1"/>
        <pt x="35" y="459" on="0"/>
        <pt x="90" y="599" on="0"/>
        <pt x="139" y="640" on="1"/>
        <pt x="235" y="720" on="0"/>
        <pt x="388" y="720" on="1"/>
        <pt x="467" y="720" on="0"/>
        <pt x="584" y="692" on="0"/>
        <pt x="636" y="655" on="1"/>
        <pt x="741" y="579" on="0"/>
        <pt x="741" y="365" on="1"/>
        <pt x="741" y="173" on="0"/>
        <pt x="551" y="-9" on="0"/>
      </contour>
      <contour>
        <pt x="367" y="148" on="0"/>
        <pt x="409" y="148" on="0"/>
        <pt x="433" y="177" on="0"/>
        <pt x="449" y="272" on="0"/>
        <pt x="449" y="442" on="0"/>
        <pt x="433" y="534" on="0"/>
        <pt x="409" y="562" on="0"/>
        <pt x="367" y="562" on="0"/>
        <pt x="343" y="534" on="0"/>
        <pt x="327" y="442" on="0"/>
        <pt x="327" y="272" on="0"/>
        <pt x="343" y="177" on="0"/>
      </contour>
      <contour>
        <pt x="292" y="910" on="1"/>
        <pt x="315" y="910" on="0"/>
        <pt x="362" y="834" on="0"/>
        <pt x="362" y="778" on="1"/>
        <pt x="362" y="763" on="0"/>
        <pt x="207" y="740" on="0"/>
        <pt x="152" y="740" on="1"/>
        <pt x="133" y="740" on="0"/>
        <pt x="102" y="788" on="0"/>
        <pt x="102" y="852" on="0"/>
        <pt x="233" y="910" on="0"/>
      </contour>
      <contour>
        <pt x="603" y="910" on="1"/>
        <pt x="626" y="910" on="0"/>
        <pt x="673" y="834" on="0"/>
        <pt x="673" y="778" on="1"/>
        <pt x="673" y="763" on="0"/>
        <pt x="518" y="740" on="0"/>
        <pt x="463" y="740" on="1"/>
        <pt x="444" y="740" on="0"/>
        <pt x="413" y="788" on="0"/>
        <pt x="413" y="852" on="0"/>
        <pt x="544" y="910" on="0"/>
      </contour>
    </TTGlyph>
    <TTGlyph name="Omacron" xMin="35" yMin="-9" xMax="741" yMax="900">
      <contour>
        <pt x="388" y="-9" on="1"/>
        <pt x="305" y="-9" on="0"/>
        <pt x="186" y="22" on="0"/>
        <pt x="136" y="62" on="1"/>
        <pt x="35" y="141" on="0"/>
        <pt x="35" y="365" on="1"/>
        <pt x="35" y="459" on="0"/>
        <pt x="90" y="599" on="0"/>
        <pt x="139" y="640" on="1"/>
        <pt x="235" y="720" on="0"/>
        <pt x="388" y="720" on="1"/>
        <pt x="467" y="720" on="0"/>
        <pt x="584" y="692" on="0"/>
        <pt x="636" y="655" on="1"/>
        <pt x="741" y="579" on="0"/>
        <pt x="741" y="365" on="1"/>
        <pt x="741" y="173" on="0"/>
        <pt x="551" y="-9" on="0"/>
      </contour>
      <contour>
        <pt x="367" y="148" on="0"/>
        <pt x="409" y="148" on="0"/>
        <pt x="433" y="177" on="0"/>
        <pt x="449" y="272" on="0"/>
        <pt x="449" y="442" on="0"/>
        <pt x="433" y="534" on="0"/>
        <pt x="409" y="562" on="0"/>
        <pt x="367" y="562" on="0"/>
        <pt x="343" y="534" on="0"/>
        <pt x="327" y="442" on="0"/>
        <pt x="327" y="272" on="0"/>
        <pt x="343" y="177" on="0"/>
      </contour>
      <contour>
        <pt x="574" y="740" on="1"/>
        <pt x="169" y="740" on="1"/>
        <pt x="158" y="740" on="0"/>
        <pt x="142" y="777" on="0"/>
        <pt x="142" y="839" on="0"/>
        <pt x="187" y="900" on="0"/>
        <pt x="207" y="900" on="1"/>
        <pt x="609" y="900" on="1"/>
        <pt x="635" y="900" on="0"/>
        <pt x="635" y="835" on="1"/>
        <pt x="635" y="803" on="0"/>
        <pt x="593" y="740" on="0"/>
      </contour>
    </TTGlyph>
    <TTGlyph name="Oslash" xMin="35" yMin="-54" xMax="741" yMax="774">
      <contour>
        <pt x="389" y="-9" on="1"/>
        <pt x="389" y="-34" on="0"/>
        <pt x="322" y="-47" on="1"/>
        <pt x="285" y="-54" on="0"/>
        <pt x="230" y="-54" on="1"/>
        <pt x="208" y="-54" on="0"/>
        <pt x="189" y="-27" on="0"/>
        <pt x="189" y="2" on="0"/>
        <pt x="194" y="24" on="1"/>
        <pt x="35" y="95" on="0"/>
        <pt x="35" y="365" on="1"/>
        <pt x="35" y="607" on="0"/>
        <pt x="178" y="680" on="1"/>
        <pt x="225" y="703" on="0"/>
        <pt x="321" y="720" on="0"/>
        <pt x="384" y="720" on="1"/>
        <pt x="396" y="774" on="0"/>
        <pt x="538" y="774" on="1"/>
        <pt x="590" y="774" on="0"/>
        <pt x="590" y="739" on="1"/>
        <pt x="590" y="722" on="0"/>
        <pt x="566" y="693" on="1"/>
        <pt x="741" y="627" on="0"/>
        <pt x="741" y="365" on="1"/>
        <pt x="741" y="110" on="0"/>
        <pt x="600" y="34" on="1"/>
        <pt x="518" y="-9" on="0"/>
      </contour>
      <contour>
        <pt x="367" y="148" on="0"/>
        <pt x="409" y="148" on="0"/>
        <pt x="433" y="177" on="0"/>
        <pt x="449" y="272" on="0"/>
        <pt x="449" y="442" on="0"/>
        <pt x="433" y="534" on="0"/>
        <pt x="409" y="562" on="0"/>
        <pt x="367" y="562" on="0"/>
        <pt x="343" y="534" on="0"/>
        <pt x="327" y="442" on="0"/>
        <pt x="327" y="272" on="0"/>
        <pt x="343" y="177" on="0"/>
      </contour>
    </TTGlyph>
    <TTGlyph name="Otilde" xMin="35" yMin="-9" xMax="741" yMax="910">
      <contour>
        <pt x="388" y="-9" on="1"/>
        <pt x="305" y="-9" on="0"/>
        <pt x="186" y="22" on="0"/>
        <pt x="136" y="62" on="1"/>
        <pt x="35" y="141" on="0"/>
        <pt x="35" y="365" on="1"/>
        <pt x="35" y="459" on="0"/>
        <pt x="90" y="599" on="0"/>
        <pt x="139" y="640" on="1"/>
        <pt x="235" y="720" on="0"/>
        <pt x="388" y="720" on="1"/>
        <pt x="467" y="720" on="0"/>
        <pt x="584" y="692" on="0"/>
        <pt x="636" y="655" on="1"/>
        <pt x="741" y="579" on="0"/>
        <pt x="741" y="365" on="1"/>
        <pt x="741" y="173" on="0"/>
        <pt x="551" y="-9" on="0"/>
      </contour>
      <contour>
        <pt x="367" y="148" on="0"/>
        <pt x="409" y="148" on="0"/>
        <pt x="433" y="177" on="0"/>
        <pt x="449" y="272" on="0"/>
        <pt x="449" y="442" on="0"/>
        <pt x="433" y="534" on="0"/>
        <pt x="409" y="562" on="0"/>
        <pt x="367" y="562" on="0"/>
        <pt x="343" y="534" on="0"/>
        <pt x="327" y="442" on="0"/>
        <pt x="327" y="272" on="0"/>
        <pt x="343" y="177" on="0"/>
      </contour>
      <contour>
        <pt x="633" y="804" on="0"/>
        <pt x="530" y="740" on="0"/>
        <pt x="453" y="740" on="0"/>
        <pt x="346" y="775" on="0"/>
        <pt x="315" y="775" on="0"/>
        <pt x="227" y="740" on="0"/>
        <pt x="191" y="740" on="0"/>
        <pt x="152" y="811" on="0"/>
        <pt x="152" y="830" on="1"/>
        <pt x="152" y="847" on="0"/>
        <pt x="261" y="910" on="0"/>
        <pt x="333" y="910" on="0"/>
        <pt x="438" y="876" on="0"/>
        <pt x="461" y="876" on="1"/>
        <pt x="468" y="876" on="0"/>
        <pt x="553" y="910" on="0"/>
        <pt x="592" y="910" on="0"/>
        <pt x="633" y="836" on="0"/>
        <pt x="633" y="819" on="1"/>
      </contour>
    </TTGlyph>
    <TTGlyph name="P" xMin="40" yMin="0" xMax="682" yMax="720">
      <contour>
        <pt x="318" y="29" on="1"/>
        <pt x="318" y="16" on="0"/>
        <pt x="196" y="0" on="0"/>
        <pt x="74" y="0" on="0"/>
        <pt x="40" y="14" on="0"/>
        <pt x="40" y="29" on="1"/>
        <pt x="40" y="672" on="1"/>
        <pt x="40" y="720" on="0"/>
        <pt x="328" y="720" on="1"/>
        <pt x="502" y="720" on="0"/>
        <pt x="558" y="696" on="1"/>
        <pt x="626" y="668" on="0"/>
        <pt x="650" y="620" on="1"/>
        <pt x="682" y="558" on="0"/>
        <pt x="682" y="461" on="1"/>
        <pt x="682" y="328" on="0"/>
        <pt x="636" y="268" on="1"/>
        <pt x="603" y="224" on="0"/>
        <pt x="537" y="198" on="0"/>
        <pt x="494" y="187" on="0"/>
        <pt x="462" y="184" on="1"/>
        <pt x="418" y="180" on="0"/>
        <pt x="342" y="180" on="1"/>
        <pt x="318" y="181" on="1"/>
      </contour>
      <contour>
        <pt x="319" y="347" on="1"/>
        <pt x="343" y="347" on="1"/>
        <pt x="362" y="347" on="0"/>
        <pt x="384" y="358" on="0"/>
        <pt x="401" y="407" on="0"/>
        <pt x="401" y="496" on="0"/>
        <pt x="382" y="543" on="0"/>
        <pt x="363" y="552" on="0"/>
        <pt x="350" y="552" on="1"/>
        <pt x="319" y="552" on="1"/>
      </contour>
    </TTGlyph>
    <TTGlyph name="P.sc" xMin="50" yMin="0" xMax="696" yMax="609">
      <contour>
        <pt x="329" y="24" on="1"/>
        <pt x="329" y="13" on="0"/>
        <pt x="207" y="0" on="0"/>
        <pt x="84" y="0" on="0"/>
        <pt x="50" y="11" on="0"/>
        <pt x="50" y="24" on="1"/>
        <pt x="50" y="569" on="1"/>
        <pt x="50" y="609" on="0"/>
        <pt x="339" y="609" on="1"/>
        <pt x="412" y="609" on="0"/>
        <pt x="507" y="601" on="0"/>
        <pt x="606" y="574" on="0"/>
        <pt x="634" y="550" on="1"/>
        <pt x="696" y="494" on="0"/>
        <pt x="696" y="376" on="1"/>
        <pt x="696" y="235" on="0"/>
        <pt x="621" y="183" on="1"/>
        <pt x="556" y="138" on="0"/>
        <pt x="433" y="132" on="1"/>
        <pt x="401" y="131" on="0"/>
        <pt x="353" y="131" on="1"/>
        <pt x="329" y="132" on="1"/>
      </contour>
      <contour>
        <pt x="329" y="275" on="1"/>
        <pt x="354" y="275" on="1"/>
        <pt x="369" y="275" on="0"/>
        <pt x="385" y="279" on="0"/>
        <pt x="395" y="288" on="1"/>
        <pt x="413" y="303" on="0"/>
        <pt x="413" y="370" on="1"/>
        <pt x="413" y="465" on="0"/>
        <pt x="361" y="465" on="1"/>
        <pt x="329" y="465" on="1"/>
      </contour>
    </TTGlyph>
    <TTGlyph name="Q" xMin="20" yMin="-135" xMax="726" yMax="720">
      <contour>
        <pt x="20" y="373" on="1"/>
        <pt x="20" y="465" on="0"/>
        <pt x="75" y="601" on="0"/>
        <pt x="124" y="641" on="1"/>
        <pt x="221" y="720" on="0"/>
        <pt x="373" y="720" on="1"/>
        <pt x="436" y="720" on="0"/>
        <pt x="533" y="704" on="0"/>
        <pt x="628" y="659" on="0"/>
        <pt x="658" y="622" on="1"/>
        <pt x="726" y="539" on="0"/>
        <pt x="726" y="233" on="0"/>
        <pt x="636" y="56" on="0"/>
        <pt x="555" y="24" on="1"/>
        <pt x="600" y="-50" on="0"/>
        <pt x="600" y="-62" on="1"/>
        <pt x="600" y="-84" on="0"/>
        <pt x="556" y="-115" on="0"/>
        <pt x="522" y="-122" on="1"/>
        <pt x="459" y="-135" on="0"/>
        <pt x="373" y="-135" on="0"/>
        <pt x="340" y="-118" on="0"/>
        <pt x="329" y="-92" on="1"/>
        <pt x="286" y="0" on="1"/>
        <pt x="164" y="0" on="0"/>
        <pt x="20" y="181" on="0"/>
      </contour>
      <contour>
        <pt x="342" y="148" on="0"/>
        <pt x="404" y="148" on="0"/>
        <pt x="434" y="243" on="0"/>
        <pt x="434" y="448" on="0"/>
        <pt x="418" y="537" on="0"/>
        <pt x="394" y="562" on="0"/>
        <pt x="352" y="562" on="0"/>
        <pt x="340" y="550" on="1"/>
        <pt x="312" y="520" on="0"/>
        <pt x="312" y="243" on="0"/>
      </contour>
    </TTGlyph>
    <TTGlyph name="Q.sc" xMin="40" yMin="-125" xMax="728" yMax="610">
      <contour>
        <pt x="728" y="307" on="1"/>
        <pt x="728" y="70" on="0"/>
        <pt x="574" y="16" on="1"/>
        <pt x="611" y="-51" on="0"/>
        <pt x="611" y="-80" on="0"/>
        <pt x="567" y="-108" on="0"/>
        <pt x="532" y="-114" on="1"/>
        <pt x="469" y="-125" on="0"/>
        <pt x="382" y="-125" on="0"/>
        <pt x="348" y="-110" on="0"/>
        <pt x="339" y="-87" on="1"/>
        <pt x="305" y="-5" on="1"/>
        <pt x="241" y="2" on="0"/>
        <pt x="151" y="35" on="0"/>
        <pt x="114" y="69" on="1"/>
        <pt x="40" y="137" on="0"/>
        <pt x="40" y="307" on="1"/>
        <pt x="40" y="484" on="0"/>
        <pt x="140" y="550" on="1"/>
        <pt x="188" y="583" on="0"/>
        <pt x="305" y="610" on="0"/>
        <pt x="447" y="610" on="0"/>
        <pt x="541" y="598" on="0"/>
        <pt x="634" y="560" on="0"/>
        <pt x="663" y="528" on="1"/>
        <pt x="728" y="455" on="0"/>
      </contour>
      <contour>
        <pt x="339" y="159" on="0"/>
        <pt x="360" y="146" on="0"/>
        <pt x="407" y="146" on="0"/>
        <pt x="418" y="152" on="1"/>
        <pt x="444" y="169" on="0"/>
        <pt x="444" y="301" on="1"/>
        <pt x="444" y="434" on="0"/>
        <pt x="417" y="450" on="1"/>
        <pt x="406" y="456" on="0"/>
        <pt x="366" y="456" on="0"/>
        <pt x="348" y="449" on="0"/>
        <pt x="339" y="435" on="1"/>
        <pt x="323" y="410" on="0"/>
        <pt x="323" y="228" on="0"/>
      </contour>
    </TTGlyph>
    <TTGlyph name="R" xMin="40" yMin="0" xMax="706" yMax="720">
      <contour>
        <pt x="320" y="29" on="1"/>
        <pt x="320" y="16" on="0"/>
        <pt x="198" y="0" on="0"/>
        <pt x="75" y="0" on="0"/>
        <pt x="40" y="14" on="0"/>
        <pt x="40" y="29" on="1"/>
        <pt x="40" y="672" on="1"/>
        <pt x="40" y="698" on="0"/>
        <pt x="171" y="720" on="0"/>
        <pt x="371" y="720" on="0"/>
        <pt x="430" y="719" on="0"/>
        <pt x="510" y="713" on="0"/>
        <pt x="557" y="699" on="0"/>
        <pt x="614" y="677" on="0"/>
        <pt x="646" y="642" on="0"/>
        <pt x="661" y="618" on="1"/>
        <pt x="688" y="575" on="0"/>
        <pt x="688" y="416" on="0"/>
        <pt x="635" y="307" on="0"/>
        <pt x="591" y="279" on="1"/>
        <pt x="706" y="98" on="0"/>
        <pt x="706" y="0" on="0"/>
        <pt x="509" y="0" on="1"/>
        <pt x="452" y="0" on="0"/>
        <pt x="408" y="10" on="0"/>
        <pt x="402" y="27" on="1"/>
        <pt x="337" y="233" on="1"/>
        <pt x="320" y="234" on="1"/>
      </contour>
      <contour>
        <pt x="320" y="388" on="1"/>
        <pt x="346" y="388" on="1"/>
        <pt x="404" y="388" on="0"/>
        <pt x="404" y="478" on="1"/>
        <pt x="404" y="524" on="0"/>
        <pt x="373" y="562" on="0"/>
        <pt x="353" y="562" on="1"/>
        <pt x="320" y="562" on="1"/>
      </contour>
    </TTGlyph>
    <TTGlyph name="R.sc" xMin="50" yMin="0" xMax="713" yMax="610">
      <contour>
        <pt x="329" y="24" on="1"/>
        <pt x="329" y="13" on="0"/>
        <pt x="207" y="0" on="0"/>
        <pt x="84" y="0" on="0"/>
        <pt x="50" y="11" on="0"/>
        <pt x="50" y="24" on="1"/>
        <pt x="50" y="570" on="1"/>
        <pt x="50" y="610" on="0"/>
        <pt x="331" y="610" on="1"/>
        <pt x="508" y="610" on="0"/>
        <pt x="566" y="592" on="1"/>
        <pt x="637" y="570" on="0"/>
        <pt x="662" y="534" on="1"/>
        <pt x="696" y="485" on="0"/>
        <pt x="696" y="408" on="1"/>
        <pt x="696" y="268" on="0"/>
        <pt x="598" y="215" on="1"/>
        <pt x="642" y="164" on="0"/>
        <pt x="713" y="60" on="0"/>
        <pt x="713" y="41" on="1"/>
        <pt x="713" y="0" on="0"/>
        <pt x="517" y="0" on="1"/>
        <pt x="460" y="0" on="0"/>
        <pt x="416" y="9" on="0"/>
        <pt x="410" y="23" on="1"/>
        <pt x="345" y="180" on="1"/>
        <pt x="329" y="181" on="1"/>
      </contour>
      <contour>
        <pt x="329" y="332" on="1"/>
        <pt x="354" y="332" on="1"/>
        <pt x="383" y="332" on="0"/>
        <pt x="413" y="358" on="0"/>
        <pt x="413" y="401" on="1"/>
        <pt x="413" y="466" on="0"/>
        <pt x="361" y="466" on="1"/>
        <pt x="329" y="466" on="1"/>
      </contour>
    </TTGlyph>
    <TTGlyph name="Racute" xMin="45" yMin="0" xMax="711" yMax="910">
      <contour>
        <pt x="325" y="29" on="1"/>
        <pt x="325" y="16" on="0"/>
        <pt x="203" y="0" on="0"/>
        <pt x="80" y="0" on="0"/>
        <pt x="45" y="14" on="0"/>
        <pt x="45" y="29" on="1"/>
        <pt x="45" y="672" on="1"/>
        <pt x="45" y="698" on="0"/>
        <pt x="176" y="720" on="0"/>
        <pt x="376" y="720" on="0"/>
        <pt x="435" y="719" on="0"/>
        <pt x="515" y="713" on="0"/>
        <pt x="562" y="699" on="0"/>
        <pt x="619" y="677" on="0"/>
        <pt x="651" y="642" on="0"/>
        <pt x="666" y="618" on="1"/>
        <pt x="693" y="575" on="0"/>
        <pt x="693" y="416" on="0"/>
        <pt x="640" y="307" on="0"/>
        <pt x="596" y="279" on="1"/>
        <pt x="711" y="98" on="0"/>
        <pt x="711" y="0" on="0"/>
        <pt x="514" y="0" on="1"/>
        <pt x="457" y="0" on="0"/>
        <pt x="413" y="10" on="0"/>
        <pt x="407" y="27" on="1"/>
        <pt x="342" y="233" on="1"/>
        <pt x="325" y="234" on="1"/>
      </contour>
      <contour>
        <pt x="325" y="388" on="1"/>
        <pt x="351" y="388" on="1"/>
        <pt x="409" y="388" on="0"/>
        <pt x="409" y="478" on="1"/>
        <pt x="409" y="524" on="0"/>
        <pt x="378" y="562" on="0"/>
        <pt x="358" y="562" on="1"/>
        <pt x="325" y="562" on="1"/>
      </contour>
      <contour>
        <pt x="450" y="910" on="1"/>
        <pt x="473" y="910" on="0"/>
        <pt x="520" y="834" on="0"/>
        <pt x="520" y="778" on="1"/>
        <pt x="520" y="763" on="0"/>
        <pt x="347" y="740" on="0"/>
        <pt x="290" y="740" on="1"/>
        <pt x="271" y="740" on="0"/>
        <pt x="240" y="788" on="0"/>
        <pt x="240" y="851" on="0"/>
        <pt x="389" y="910" on="0"/>
      </contour>
    </TTGlyph>
    <TTGlyph name="Rcaron" xMin="45" yMin="0" xMax="711" yMax="910">
      <contour>
        <pt x="325" y="29" on="1"/>
        <pt x="325" y="16" on="0"/>
        <pt x="203" y="0" on="0"/>
        <pt x="80" y="0" on="0"/>
        <pt x="45" y="14" on="0"/>
        <pt x="45" y="29" on="1"/>
        <pt x="45" y="672" on="1"/>
        <pt x="45" y="698" on="0"/>
        <pt x="176" y="720" on="0"/>
        <pt x="376" y="720" on="0"/>
        <pt x="435" y="719" on="0"/>
        <pt x="515" y="713" on="0"/>
        <pt x="562" y="699" on="0"/>
        <pt x="619" y="677" on="0"/>
        <pt x="651" y="642" on="0"/>
        <pt x="666" y="618" on="1"/>
        <pt x="693" y="575" on="0"/>
        <pt x="693" y="416" on="0"/>
        <pt x="640" y="307" on="0"/>
        <pt x="596" y="279" on="1"/>
        <pt x="711" y="98" on="0"/>
        <pt x="711" y="0" on="0"/>
        <pt x="514" y="0" on="1"/>
        <pt x="457" y="0" on="0"/>
        <pt x="413" y="10" on="0"/>
        <pt x="407" y="27" on="1"/>
        <pt x="342" y="233" on="1"/>
        <pt x="325" y="234" on="1"/>
      </contour>
      <contour>
        <pt x="325" y="388" on="1"/>
        <pt x="351" y="388" on="1"/>
        <pt x="409" y="388" on="0"/>
        <pt x="409" y="478" on="1"/>
        <pt x="409" y="524" on="0"/>
        <pt x="378" y="562" on="0"/>
        <pt x="358" y="562" on="1"/>
        <pt x="325" y="562" on="1"/>
      </contour>
      <contour>
        <pt x="540" y="808" on="0"/>
        <pt x="398" y="740" on="0"/>
        <pt x="327" y="740" on="0"/>
        <pt x="180" y="809" on="0"/>
        <pt x="180" y="820" on="1"/>
        <pt x="180" y="855" on="0"/>
        <pt x="202" y="910" on="0"/>
        <pt x="220" y="910" on="1"/>
        <pt x="233" y="910" on="0"/>
        <pt x="360" y="871" on="1"/>
        <pt x="486" y="910" on="0"/>
        <pt x="500" y="910" on="1"/>
        <pt x="518" y="910" on="0"/>
        <pt x="540" y="855" on="0"/>
        <pt x="540" y="820" on="1"/>
      </contour>
    </TTGlyph>
    <TTGlyph name="S" xMin="25" yMin="-9" xMax="629" yMax="720">
      <contour>
        <pt x="519" y="20" on="0"/>
        <pt x="412" y="-9" on="0"/>
        <pt x="243" y="-9" on="0"/>
        <pt x="91" y="19" on="0"/>
        <pt x="25" y="53" on="0"/>
        <pt x="25" y="69" on="1"/>
        <pt x="25" y="125" on="0"/>
        <pt x="57" y="246" on="0"/>
        <pt x="79" y="246" on="1"/>
        <pt x="83" y="246" on="0"/>
        <pt x="241" y="192" on="0"/>
        <pt x="321" y="192" on="0"/>
        <pt x="345" y="209" on="0"/>
        <pt x="345" y="241" on="0"/>
        <pt x="301" y="266" on="0"/>
        <pt x="235" y="285" on="0"/>
        <pt x="158" y="321" on="0"/>
        <pt x="92" y="365" on="0"/>
        <pt x="48" y="446" on="0"/>
        <pt x="48" y="498" on="1"/>
        <pt x="48" y="720" on="0"/>
        <pt x="313" y="720" on="1"/>
        <pt x="412" y="720" on="0"/>
        <pt x="556" y="695" on="0"/>
        <pt x="615" y="664" on="0"/>
        <pt x="615" y="649" on="1"/>
        <pt x="615" y="597" on="0"/>
        <pt x="566" y="477" on="0"/>
        <pt x="543" y="477" on="1"/>
        <pt x="539" y="477" on="0"/>
        <pt x="517" y="486" on="1"/>
        <pt x="451" y="515" on="0"/>
        <pt x="364" y="515" on="0"/>
        <pt x="333" y="499" on="0"/>
        <pt x="333" y="466" on="0"/>
        <pt x="377" y="445" on="0"/>
        <pt x="442" y="428" on="0"/>
        <pt x="519" y="393" on="0"/>
        <pt x="585" y="346" on="0"/>
        <pt x="629" y="260" on="0"/>
        <pt x="629" y="203" on="1"/>
        <pt x="629" y="143" on="0"/>
        <pt x="598" y="94" on="1"/>
        <pt x="579" y="64" on="0"/>
      </contour>
    </TTGlyph>
    <TTGlyph name="S.sc" xMin="35" yMin="-9" xMax="633" yMax="609">
      <contour>
        <pt x="333" y="-9" on="1"/>
        <pt x="241" y="-9" on="0"/>
        <pt x="96" y="14" on="0"/>
        <pt x="35" y="44" on="0"/>
        <pt x="35" y="58" on="1"/>
        <pt x="35" y="103" on="0"/>
        <pt x="86" y="220" on="0"/>
        <pt x="108" y="220" on="1"/>
        <pt x="112" y="220" on="0"/>
        <pt x="244" y="170" on="0"/>
        <pt x="350" y="170" on="0"/>
        <pt x="350" y="201" on="1"/>
        <pt x="350" y="218" on="0"/>
        <pt x="290" y="236" on="0"/>
        <pt x="206" y="251" on="0"/>
        <pt x="121" y="278" on="0"/>
        <pt x="62" y="348" on="0"/>
        <pt x="62" y="403" on="1"/>
        <pt x="62" y="432" on="0"/>
        <pt x="68" y="475" on="0"/>
        <pt x="99" y="538" on="0"/>
        <pt x="153" y="579" on="0"/>
        <pt x="259" y="609" on="0"/>
        <pt x="431" y="609" on="0"/>
        <pt x="502" y="598" on="1"/>
        <pt x="633" y="579" on="0"/>
        <pt x="633" y="548" on="1"/>
        <pt x="633" y="504" on="0"/>
        <pt x="578" y="393" on="0"/>
        <pt x="555" y="393" on="1"/>
        <pt x="551" y="393" on="0"/>
        <pt x="530" y="402" on="1"/>
        <pt x="468" y="426" on="0"/>
        <pt x="345" y="426" on="0"/>
        <pt x="345" y="395" on="1"/>
        <pt x="345" y="380" on="0"/>
        <pt x="405" y="367" on="0"/>
        <pt x="489" y="355" on="0"/>
        <pt x="574" y="327" on="0"/>
        <pt x="633" y="250" on="0"/>
        <pt x="633" y="188" on="1"/>
        <pt x="633" y="116" on="0"/>
        <pt x="578" y="59" on="1"/>
        <pt x="512" y="-9" on="0"/>
      </contour>
    </TTGlyph>
    <TTGlyph name="Sacute" xMin="30" yMin="-9" xMax="634" yMax="910">
      <contour>
        <pt x="248" y="-9" on="0"/>
        <pt x="96" y="19" on="0"/>
        <pt x="30" y="53" on="0"/>
        <pt x="30" y="69" on="1"/>
        <pt x="30" y="125" on="0"/>
        <pt x="62" y="246" on="0"/>
        <pt x="84" y="246" on="1"/>
        <pt x="88" y="246" on="0"/>
        <pt x="246" y="192" on="0"/>
        <pt x="326" y="192" on="0"/>
        <pt x="350" y="209" on="0"/>
        <pt x="350" y="227" on="1"/>
        <pt x="350" y="253" on="0"/>
        <pt x="273" y="276" on="1"/>
        <pt x="240" y="285" on="0"/>
        <pt x="163" y="321" on="0"/>
        <pt x="97" y="365" on="0"/>
        <pt x="53" y="446" on="0"/>
        <pt x="53" y="498" on="1"/>
        <pt x="53" y="720" on="0"/>
        <pt x="318" y="720" on="1"/>
        <pt x="417" y="720" on="0"/>
        <pt x="561" y="695" on="0"/>
        <pt x="620" y="664" on="0"/>
        <pt x="620" y="649" on="1"/>
        <pt x="620" y="597" on="0"/>
        <pt x="571" y="477" on="0"/>
        <pt x="548" y="477" on="1"/>
        <pt x="544" y="477" on="0"/>
        <pt x="500" y="496" on="0"/>
        <pt x="435" y="515" on="0"/>
        <pt x="369" y="515" on="0"/>
        <pt x="338" y="499" on="0"/>
        <pt x="338" y="479" on="1"/>
        <pt x="338" y="457" on="0"/>
        <pt x="414" y="436" on="1"/>
        <pt x="447" y="428" on="0"/>
        <pt x="524" y="393" on="0"/>
        <pt x="590" y="346" on="0"/>
        <pt x="634" y="260" on="0"/>
        <pt x="634" y="143" on="0"/>
        <pt x="603" y="94" on="1"/>
        <pt x="584" y="64" on="0"/>
        <pt x="524" y="20" on="0"/>
        <pt x="417" y="-9" on="0"/>
      </contour>
      <contour>
        <pt x="432" y="910" on="1"/>
        <pt x="455" y="910" on="0"/>
        <pt x="502" y="834" on="0"/>
        <pt x="502" y="778" on="1"/>
        <pt x="502" y="763" on="0"/>
        <pt x="329" y="740" on="0"/>
        <pt x="272" y="740" on="1"/>
        <pt x="253" y="740" on="0"/>
        <pt x="222" y="788" on="0"/>
        <pt x="222" y="851" on="0"/>
        <pt x="371" y="910" on="0"/>
      </contour>
    </TTGlyph>
    <TTGlyph name="Scaron" xMin="30" yMin="-9" xMax="634" yMax="910">
      <contour>
        <pt x="524" y="20" on="0"/>
        <pt x="417" y="-9" on="0"/>
        <pt x="248" y="-9" on="0"/>
        <pt x="96" y="19" on="0"/>
        <pt x="30" y="53" on="0"/>
        <pt x="30" y="69" on="1"/>
        <pt x="30" y="125" on="0"/>
        <pt x="62" y="246" on="0"/>
        <pt x="84" y="246" on="1"/>
        <pt x="88" y="246" on="0"/>
        <pt x="246" y="192" on="0"/>
        <pt x="326" y="192" on="0"/>
        <pt x="350" y="209" on="0"/>
        <pt x="350" y="241" on="0"/>
        <pt x="306" y="266" on="0"/>
        <pt x="240" y="285" on="0"/>
        <pt x="163" y="321" on="0"/>
        <pt x="97" y="365" on="0"/>
        <pt x="53" y="446" on="0"/>
        <pt x="53" y="498" on="1"/>
        <pt x="53" y="720" on="0"/>
        <pt x="318" y="720" on="1"/>
        <pt x="417" y="720" on="0"/>
        <pt x="561" y="695" on="0"/>
        <pt x="620" y="664" on="0"/>
        <pt x="620" y="649" on="1"/>
        <pt x="620" y="597" on="0"/>
        <pt x="571" y="477" on="0"/>
        <pt x="548" y="477" on="1"/>
        <pt x="544" y="477" on="0"/>
        <pt x="522" y="486" on="1"/>
        <pt x="456" y="515" on="0"/>
        <pt x="369" y="515" on="0"/>
        <pt x="338" y="499" on="0"/>
        <pt x="338" y="466" on="0"/>
        <pt x="382" y="445" on="0"/>
        <pt x="447" y="428" on="0"/>
        <pt x="524" y="393" on="0"/>
        <pt x="590" y="346" on="0"/>
        <pt x="634" y="260" on="0"/>
        <pt x="634" y="203" on="1"/>
        <pt x="634" y="143" on="0"/>
        <pt x="603" y="94" on="1"/>
        <pt x="584" y="64" on="0"/>
      </contour>
      <contour>
        <pt x="522" y="808" on="0"/>
        <pt x="380" y="740" on="0"/>
        <pt x="309" y="740" on="0"/>
        <pt x="162" y="809" on="0"/>
        <pt x="162" y="820" on="1"/>
        <pt x="162" y="855" on="0"/>
        <pt x="184" y="910" on="0"/>
        <pt x="202" y="910" on="1"/>
        <pt x="215" y="910" on="0"/>
        <pt x="342" y="871" on="1"/>
        <pt x="468" y="910" on="0"/>
        <pt x="482" y="910" on="1"/>
        <pt x="500" y="910" on="0"/>
        <pt x="522" y="855" on="0"/>
        <pt x="522" y="820" on="1"/>
      </contour>
    </TTGlyph>
    <TTGlyph name="Scedilla" xMin="30" yMin="-175" xMax="634" yMax="720">
      <contour>
        <pt x="417" y="-9" on="0"/>
        <pt x="524" y="20" on="0"/>
        <pt x="584" y="64" on="0"/>
        <pt x="603" y="94" on="1"/>
        <pt x="634" y="143" on="0"/>
        <pt x="634" y="203" on="1"/>
        <pt x="634" y="260" on="0"/>
        <pt x="590" y="346" on="0"/>
        <pt x="524" y="393" on="0"/>
        <pt x="447" y="428" on="0"/>
        <pt x="382" y="445" on="0"/>
        <pt x="338" y="466" on="0"/>
        <pt x="338" y="499" on="0"/>
        <pt x="369" y="515" on="0"/>
        <pt x="456" y="515" on="0"/>
        <pt x="522" y="486" on="1"/>
        <pt x="544" y="477" on="0"/>
        <pt x="548" y="477" on="1"/>
        <pt x="571" y="477" on="0"/>
        <pt x="620" y="597" on="0"/>
        <pt x="620" y="649" on="1"/>
        <pt x="620" y="664" on="0"/>
        <pt x="561" y="695" on="0"/>
        <pt x="417" y="720" on="0"/>
        <pt x="318" y="720" on="1"/>
        <pt x="53" y="720" on="0"/>
        <pt x="53" y="498" on="1"/>
        <pt x="53" y="446" on="0"/>
        <pt x="97" y="365" on="0"/>
        <pt x="163" y="321" on="0"/>
        <pt x="240" y="285" on="0"/>
        <pt x="306" y="266" on="0"/>
        <pt x="350" y="241" on="0"/>
        <pt x="350" y="209" on="0"/>
        <pt x="326" y="192" on="0"/>
        <pt x="246" y="192" on="0"/>
        <pt x="88" y="246" on="0"/>
        <pt x="84" y="246" on="1"/>
        <pt x="62" y="246" on="0"/>
        <pt x="30" y="125" on="0"/>
        <pt x="30" y="69" on="1"/>
        <pt x="30" y="53" on="0"/>
        <pt x="96" y="19" on="0"/>
        <pt x="248" y="-9" on="0"/>
      </contour>
      <contour>
        <pt x="317" y="-84" on="1"/>
        <pt x="288" y="-85" on="1"/>
        <pt x="272" y="-85" on="0"/>
        <pt x="272" y="-54" on="1"/>
        <pt x="272" y="-7" on="1"/>
        <pt x="272" y="1" on="0"/>
        <pt x="320" y="15" on="0"/>
        <pt x="373" y="15" on="0"/>
        <pt x="373" y="0" on="1"/>
        <pt x="373" y="-25" on="1"/>
        <pt x="460" y="-28" on="0"/>
        <pt x="460" y="-94" on="1"/>
        <pt x="460" y="-125" on="0"/>
        <pt x="400" y="-164" on="0"/>
        <pt x="333" y="-175" on="0"/>
        <pt x="295" y="-175" on="1"/>
        <pt x="287" y="-175" on="0"/>
        <pt x="277" y="-144" on="0"/>
        <pt x="277" y="-110" on="0"/>
        <pt x="285" y="-110" on="1"/>
        <pt x="359" y="-110" on="0"/>
        <pt x="359" y="-94" on="1"/>
        <pt x="359" y="-84" on="0"/>
      </contour>
    </TTGlyph>
    <TTGlyph name="Scircumflex" xMin="30" yMin="-9" xMax="634" yMax="910">
      <contour>
        <pt x="248" y="-9" on="0"/>
        <pt x="96" y="19" on="0"/>
        <pt x="30" y="53" on="0"/>
        <pt x="30" y="69" on="1"/>
        <pt x="30" y="125" on="0"/>
        <pt x="62" y="246" on="0"/>
        <pt x="84" y="246" on="1"/>
        <pt x="88" y="246" on="0"/>
        <pt x="246" y="192" on="0"/>
        <pt x="326" y="192" on="0"/>
        <pt x="350" y="209" on="0"/>
        <pt x="350" y="227" on="1"/>
        <pt x="350" y="253" on="0"/>
        <pt x="273" y="276" on="1"/>
        <pt x="240" y="285" on="0"/>
        <pt x="163" y="321" on="0"/>
        <pt x="97" y="365" on="0"/>
        <pt x="53" y="446" on="0"/>
        <pt x="53" y="498" on="1"/>
        <pt x="53" y="720" on="0"/>
        <pt x="318" y="720" on="1"/>
        <pt x="417" y="720" on="0"/>
        <pt x="561" y="695" on="0"/>
        <pt x="620" y="664" on="0"/>
        <pt x="620" y="649" on="1"/>
        <pt x="620" y="597" on="0"/>
        <pt x="571" y="477" on="0"/>
        <pt x="548" y="477" on="1"/>
        <pt x="544" y="477" on="0"/>
        <pt x="500" y="496" on="0"/>
        <pt x="435" y="515" on="0"/>
        <pt x="369" y="515" on="0"/>
        <pt x="338" y="499" on="0"/>
        <pt x="338" y="479" on="1"/>
        <pt x="338" y="457" on="0"/>
        <pt x="414" y="436" on="1"/>
        <pt x="447" y="428" on="0"/>
        <pt x="524" y="393" on="0"/>
        <pt x="590" y="346" on="0"/>
        <pt x="634" y="260" on="0"/>
        <pt x="634" y="143" on="0"/>
        <pt x="603" y="94" on="1"/>
        <pt x="584" y="64" on="0"/>
        <pt x="524" y="20" on="0"/>
        <pt x="417" y="-9" on="0"/>
      </contour>
      <contour>
        <pt x="155" y="841" on="0"/>
        <pt x="302" y="910" on="0"/>
        <pt x="373" y="910" on="0"/>
        <pt x="515" y="842" on="0"/>
        <pt x="515" y="830" on="1"/>
        <pt x="515" y="795" on="0"/>
        <pt x="493" y="740" on="0"/>
        <pt x="475" y="740" on="1"/>
        <pt x="461" y="740" on="0"/>
        <pt x="335" y="779" on="1"/>
        <pt x="208" y="740" on="0"/>
        <pt x="195" y="740" on="1"/>
        <pt x="177" y="740" on="0"/>
        <pt x="155" y="795" on="0"/>
        <pt x="155" y="830" on="1"/>
      </contour>
    </TTGlyph>
    <TTGlyph name="T" xMin="20" yMin="0" xMax="631" yMax="710">
      <contour>
        <pt x="465" y="13" on="0"/>
        <pt x="342" y="0" on="0"/>
        <pt x="219" y="0" on="0"/>
        <pt x="186" y="11" on="0"/>
        <pt x="186" y="24" on="1"/>
        <pt x="186" y="454" on="1"/>
        <pt x="47" y="454" on="1"/>
        <pt x="36" y="454" on="0"/>
        <pt x="20" y="510" on="0"/>
        <pt x="20" y="621" on="0"/>
        <pt x="44" y="710" on="0"/>
        <pt x="64" y="710" on="1"/>
        <pt x="605" y="710" on="1"/>
        <pt x="620" y="710" on="0"/>
        <pt x="631" y="654" on="0"/>
        <pt x="631" y="548" on="0"/>
        <pt x="609" y="454" on="0"/>
        <pt x="590" y="454" on="1"/>
        <pt x="465" y="454" on="1"/>
        <pt x="465" y="24" on="1"/>
      </contour>
    </TTGlyph>
    <TTGlyph name="T.sc" xMin="25" yMin="0" xMax="636" yMax="600">
      <contour>
        <pt x="595" y="345" on="1"/>
        <pt x="470" y="345" on="1"/>
        <pt x="470" y="24" on="1"/>
        <pt x="470" y="13" on="0"/>
        <pt x="347" y="0" on="0"/>
        <pt x="224" y="0" on="0"/>
        <pt x="191" y="11" on="0"/>
        <pt x="191" y="24" on="1"/>
        <pt x="191" y="345" on="1"/>
        <pt x="52" y="345" on="1"/>
        <pt x="41" y="345" on="0"/>
        <pt x="25" y="401" on="0"/>
        <pt x="25" y="512" on="0"/>
        <pt x="49" y="600" on="0"/>
        <pt x="69" y="600" on="1"/>
        <pt x="610" y="600" on="1"/>
        <pt x="625" y="600" on="0"/>
        <pt x="636" y="544" on="0"/>
        <pt x="636" y="438" on="0"/>
        <pt x="614" y="345" on="0"/>
      </contour>
    </TTGlyph>
    <TTGlyph name="Tcaron" xMin="20" yMin="0" xMax="631" yMax="910">
      <contour>
        <pt x="465" y="13" on="0"/>
        <pt x="342" y="0" on="0"/>
        <pt x="219" y="0" on="0"/>
        <pt x="186" y="11" on="0"/>
        <pt x="186" y="24" on="1"/>
        <pt x="186" y="454" on="1"/>
        <pt x="47" y="454" on="1"/>
        <pt x="36" y="454" on="0"/>
        <pt x="20" y="510" on="0"/>
        <pt x="20" y="621" on="0"/>
        <pt x="44" y="710" on="0"/>
        <pt x="64" y="710" on="1"/>
        <pt x="605" y="710" on="1"/>
        <pt x="620" y="710" on="0"/>
        <pt x="631" y="654" on="0"/>
        <pt x="631" y="548" on="0"/>
        <pt x="609" y="454" on="0"/>
        <pt x="590" y="454" on="1"/>
        <pt x="465" y="454" on="1"/>
        <pt x="465" y="24" on="1"/>
      </contour>
      <contour>
        <pt x="505" y="808" on="0"/>
        <pt x="363" y="740" on="0"/>
        <pt x="292" y="740" on="0"/>
        <pt x="145" y="809" on="0"/>
        <pt x="145" y="820" on="1"/>
        <pt x="145" y="855" on="0"/>
        <pt x="167" y="910" on="0"/>
        <pt x="185" y="910" on="1"/>
        <pt x="198" y="910" on="0"/>
        <pt x="325" y="871" on="1"/>
        <pt x="451" y="910" on="0"/>
        <pt x="465" y="910" on="1"/>
        <pt x="483" y="910" on="0"/>
        <pt x="505" y="855" on="0"/>
        <pt x="505" y="820" on="1"/>
      </contour>
    </TTGlyph>
    <TTGlyph name="Thorn" xMin="45" yMin="0" xMax="688" yMax="733">
      <contour>
        <pt x="324" y="696" on="1"/>
        <pt x="324" y="630" on="1"/>
        <pt x="489" y="630" on="0"/>
        <pt x="538" y="615" on="1"/>
        <pt x="609" y="593" on="0"/>
        <pt x="632" y="566" on="1"/>
        <pt x="672" y="518" on="0"/>
        <pt x="682" y="458" on="1"/>
        <pt x="688" y="422" on="0"/>
        <pt x="688" y="332" on="0"/>
        <pt x="676" y="259" on="0"/>
        <pt x="659" y="205" on="0"/>
        <pt x="625" y="164" on="0"/>
        <pt x="594" y="136" on="0"/>
        <pt x="542" y="117" on="0"/>
        <pt x="501" y="106" on="0"/>
        <pt x="468" y="104" on="1"/>
        <pt x="421" y="100" on="0"/>
        <pt x="348" y="100" on="1"/>
        <pt x="324" y="101" on="1"/>
        <pt x="324" y="24" on="1"/>
        <pt x="324" y="14" on="0"/>
        <pt x="222" y="0" on="0"/>
        <pt x="104" y="0" on="0"/>
        <pt x="58" y="6" on="0"/>
        <pt x="45" y="16" on="0"/>
        <pt x="45" y="24" on="1"/>
        <pt x="45" y="678" on="1"/>
        <pt x="45" y="699" on="0"/>
        <pt x="163" y="733" on="0"/>
        <pt x="231" y="733" on="1"/>
        <pt x="324" y="733" on="0"/>
      </contour>
      <contour>
        <pt x="325" y="257" on="1"/>
        <pt x="349" y="257" on="1"/>
        <pt x="369" y="257" on="0"/>
        <pt x="389" y="266" on="0"/>
        <pt x="407" y="318" on="0"/>
        <pt x="407" y="405" on="0"/>
        <pt x="398" y="451" on="0"/>
        <pt x="388" y="460" on="1"/>
        <pt x="375" y="472" on="0"/>
        <pt x="356" y="472" on="1"/>
        <pt x="325" y="472" on="1"/>
      </contour>
    </TTGlyph>
    <TTGlyph name="U" xMin="40" yMin="-8" xMax="686" yMax="711">
      <contour>
        <pt x="686" y="135" on="0"/>
        <pt x="521" y="-8" on="0"/>
        <pt x="208" y="-8" on="0"/>
        <pt x="40" y="135" on="0"/>
        <pt x="40" y="279" on="1"/>
        <pt x="40" y="646" on="1"/>
        <pt x="40" y="671" on="0"/>
        <pt x="153" y="711" on="0"/>
        <pt x="228" y="711" on="1"/>
        <pt x="288" y="711" on="0"/>
        <pt x="306" y="688" on="1"/>
        <pt x="319" y="670" on="0"/>
        <pt x="319" y="657" on="1"/>
        <pt x="319" y="359" on="1"/>
        <pt x="319" y="246" on="0"/>
        <pt x="336" y="173" on="0"/>
        <pt x="392" y="173" on="0"/>
        <pt x="407" y="244" on="0"/>
        <pt x="407" y="360" on="1"/>
        <pt x="407" y="646" on="1"/>
        <pt x="407" y="671" on="0"/>
        <pt x="520" y="711" on="0"/>
        <pt x="594" y="711" on="1"/>
        <pt x="657" y="711" on="0"/>
        <pt x="674" y="688" on="1"/>
        <pt x="686" y="670" on="0"/>
        <pt x="686" y="657" on="1"/>
        <pt x="686" y="279" on="1"/>
      </contour>
    </TTGlyph>
    <TTGlyph name="U.sc" xMin="50" yMin="-8" xMax="705" yMax="600">
      <contour>
        <pt x="705" y="554" on="1"/>
        <pt x="705" y="237" on="1"/>
        <pt x="705" y="114" on="0"/>
        <pt x="535" y="-8" on="0"/>
        <pt x="220" y="-8" on="0"/>
        <pt x="50" y="114" on="0"/>
        <pt x="50" y="237" on="1"/>
        <pt x="50" y="545" on="1"/>
        <pt x="50" y="566" on="0"/>
        <pt x="164" y="600" on="0"/>
        <pt x="277" y="600" on="0"/>
        <pt x="321" y="579" on="0"/>
        <pt x="329" y="563" on="0"/>
        <pt x="329" y="554" on="1"/>
        <pt x="329" y="305" on="1"/>
        <pt x="329" y="211" on="0"/>
        <pt x="349" y="146" on="0"/>
        <pt x="406" y="146" on="0"/>
        <pt x="425" y="210" on="0"/>
        <pt x="425" y="306" on="1"/>
        <pt x="425" y="545" on="1"/>
        <pt x="425" y="566" on="0"/>
        <pt x="539" y="600" on="0"/>
        <pt x="613" y="600" on="1"/>
        <pt x="705" y="600" on="0"/>
      </contour>
    </TTGlyph>
    <TTGlyph name="Uacute" xMin="45" yMin="-8" xMax="691" yMax="910">
      <contour>
        <pt x="691" y="135" on="0"/>
        <pt x="526" y="-8" on="0"/>
        <pt x="213" y="-8" on="0"/>
        <pt x="45" y="135" on="0"/>
        <pt x="45" y="279" on="1"/>
        <pt x="45" y="646" on="1"/>
        <pt x="45" y="671" on="0"/>
        <pt x="158" y="711" on="0"/>
        <pt x="233" y="711" on="1"/>
        <pt x="293" y="711" on="0"/>
        <pt x="311" y="688" on="1"/>
        <pt x="324" y="670" on="0"/>
        <pt x="324" y="657" on="1"/>
        <pt x="324" y="359" on="1"/>
        <pt x="324" y="246" on="0"/>
        <pt x="341" y="173" on="0"/>
        <pt x="397" y="173" on="0"/>
        <pt x="412" y="244" on="0"/>
        <pt x="412" y="360" on="1"/>
        <pt x="412" y="646" on="1"/>
        <pt x="412" y="671" on="0"/>
        <pt x="525" y="711" on="0"/>
        <pt x="599" y="711" on="1"/>
        <pt x="662" y="711" on="0"/>
        <pt x="678" y="688" on="1"/>
        <pt x="691" y="670" on="0"/>
        <pt x="691" y="657" on="1"/>
        <pt x="691" y="279" on="1"/>
      </contour>
      <contour>
        <pt x="488" y="910" on="1"/>
        <pt x="511" y="910" on="0"/>
        <pt x="558" y="834" on="0"/>
        <pt x="558" y="778" on="1"/>
        <pt x="558" y="763" on="0"/>
        <pt x="385" y="740" on="0"/>
        <pt x="328" y="740" on="1"/>
        <pt x="309" y="740" on="0"/>
        <pt x="278" y="788" on="0"/>
        <pt x="278" y="851" on="0"/>
        <pt x="427" y="910" on="0"/>
      </contour>
    </TTGlyph>
    <TTGlyph name="Ubreve" xMin="45" yMin="-8" xMax="691" yMax="900">
      <contour>
        <pt x="691" y="135" on="0"/>
        <pt x="526" y="-8" on="0"/>
        <pt x="213" y="-8" on="0"/>
        <pt x="45" y="135" on="0"/>
        <pt x="45" y="279" on="1"/>
        <pt x="45" y="646" on="1"/>
        <pt x="45" y="671" on="0"/>
        <pt x="158" y="711" on="0"/>
        <pt x="233" y="711" on="1"/>
        <pt x="293" y="711" on="0"/>
        <pt x="311" y="688" on="1"/>
        <pt x="324" y="670" on="0"/>
        <pt x="324" y="657" on="1"/>
        <pt x="324" y="359" on="1"/>
        <pt x="324" y="246" on="0"/>
        <pt x="341" y="173" on="0"/>
        <pt x="397" y="173" on="0"/>
        <pt x="412" y="244" on="0"/>
        <pt x="412" y="360" on="1"/>
        <pt x="412" y="646" on="1"/>
        <pt x="412" y="671" on="0"/>
        <pt x="525" y="711" on="0"/>
        <pt x="599" y="711" on="1"/>
        <pt x="662" y="711" on="0"/>
        <pt x="678" y="688" on="1"/>
        <pt x="691" y="670" on="0"/>
        <pt x="691" y="657" on="1"/>
        <pt x="691" y="279" on="1"/>
      </contour>
      <contour>
        <pt x="344" y="868" on="1"/>
        <pt x="344" y="821" on="0"/>
        <pt x="391" y="821" on="0"/>
        <pt x="391" y="868" on="1"/>
        <pt x="391" y="900" on="0"/>
        <pt x="510" y="900" on="0"/>
        <pt x="510" y="870" on="1"/>
        <pt x="510" y="795" on="0"/>
        <pt x="435" y="740" on="0"/>
        <pt x="299" y="740" on="0"/>
        <pt x="226" y="793" on="0"/>
        <pt x="226" y="870" on="1"/>
        <pt x="226" y="900" on="0"/>
        <pt x="344" y="900" on="0"/>
      </contour>
    </TTGlyph>
    <TTGlyph name="Ucircumflex" xMin="45" yMin="-8" xMax="691" yMax="900">
      <contour>
        <pt x="691" y="135" on="0"/>
        <pt x="526" y="-8" on="0"/>
        <pt x="213" y="-8" on="0"/>
        <pt x="45" y="135" on="0"/>
        <pt x="45" y="279" on="1"/>
        <pt x="45" y="646" on="1"/>
        <pt x="45" y="671" on="0"/>
        <pt x="158" y="711" on="0"/>
        <pt x="233" y="711" on="1"/>
        <pt x="293" y="711" on="0"/>
        <pt x="311" y="688" on="1"/>
        <pt x="324" y="670" on="0"/>
        <pt x="324" y="657" on="1"/>
        <pt x="324" y="359" on="1"/>
        <pt x="324" y="246" on="0"/>
        <pt x="341" y="173" on="0"/>
        <pt x="397" y="173" on="0"/>
        <pt x="412" y="244" on="0"/>
        <pt x="412" y="360" on="1"/>
        <pt x="412" y="646" on="1"/>
        <pt x="412" y="671" on="0"/>
        <pt x="525" y="711" on="0"/>
        <pt x="599" y="711" on="1"/>
        <pt x="662" y="711" on="0"/>
        <pt x="678" y="688" on="1"/>
        <pt x="691" y="670" on="0"/>
        <pt x="691" y="657" on="1"/>
        <pt x="691" y="279" on="1"/>
      </contour>
      <contour>
        <pt x="188" y="831" on="0"/>
        <pt x="335" y="900" on="0"/>
        <pt x="406" y="900" on="0"/>
        <pt x="548" y="832" on="0"/>
        <pt x="548" y="820" on="1"/>
        <pt x="548" y="785" on="0"/>
        <pt x="526" y="730" on="0"/>
        <pt x="508" y="730" on="1"/>
        <pt x="494" y="730" on="0"/>
        <pt x="368" y="769" on="1"/>
        <pt x="241" y="730" on="0"/>
        <pt x="228" y="730" on="1"/>
        <pt x="210" y="730" on="0"/>
        <pt x="188" y="785" on="0"/>
        <pt x="188" y="820" on="1"/>
      </contour>
    </TTGlyph>
    <TTGlyph name="Udieresis" xMin="45" yMin="-8" xMax="691" yMax="910">
      <contour>
        <pt x="691" y="135" on="0"/>
        <pt x="526" y="-8" on="0"/>
        <pt x="213" y="-8" on="0"/>
        <pt x="45" y="135" on="0"/>
        <pt x="45" y="279" on="1"/>
        <pt x="45" y="646" on="1"/>
        <pt x="45" y="671" on="0"/>
        <pt x="158" y="711" on="0"/>
        <pt x="233" y="711" on="1"/>
        <pt x="293" y="711" on="0"/>
        <pt x="311" y="688" on="1"/>
        <pt x="324" y="670" on="0"/>
        <pt x="324" y="657" on="1"/>
        <pt x="324" y="359" on="1"/>
        <pt x="324" y="246" on="0"/>
        <pt x="341" y="173" on="0"/>
        <pt x="397" y="173" on="0"/>
        <pt x="412" y="244" on="0"/>
        <pt x="412" y="360" on="1"/>
        <pt x="412" y="646" on="1"/>
        <pt x="412" y="671" on="0"/>
        <pt x="525" y="711" on="0"/>
        <pt x="599" y="711" on="1"/>
        <pt x="662" y="711" on="0"/>
        <pt x="678" y="688" on="1"/>
        <pt x="691" y="670" on="0"/>
        <pt x="691" y="657" on="1"/>
        <pt x="691" y="279" on="1"/>
      </contour>
      <contour>
        <pt x="281" y="730" on="0"/>
        <pt x="177" y="730" on="0"/>
        <pt x="123" y="769" on="0"/>
        <pt x="123" y="874" on="0"/>
        <pt x="178" y="910" on="0"/>
        <pt x="281" y="910" on="0"/>
        <pt x="336" y="874" on="0"/>
        <pt x="336" y="769" on="0"/>
      </contour>
      <contour>
        <pt x="558" y="730" on="0"/>
        <pt x="454" y="730" on="0"/>
        <pt x="400" y="769" on="0"/>
        <pt x="400" y="874" on="0"/>
        <pt x="455" y="910" on="0"/>
        <pt x="558" y="910" on="0"/>
        <pt x="613" y="874" on="0"/>
        <pt x="613" y="769" on="0"/>
      </contour>
    </TTGlyph>
    <TTGlyph name="Ugrave" xMin="45" yMin="-8" xMax="691" yMax="910">
      <contour>
        <pt x="691" y="135" on="0"/>
        <pt x="526" y="-8" on="0"/>
        <pt x="213" y="-8" on="0"/>
        <pt x="45" y="135" on="0"/>
        <pt x="45" y="279" on="1"/>
        <pt x="45" y="646" on="1"/>
        <pt x="45" y="671" on="0"/>
        <pt x="158" y="711" on="0"/>
        <pt x="233" y="711" on="1"/>
        <pt x="293" y="711" on="0"/>
        <pt x="311" y="688" on="1"/>
        <pt x="324" y="670" on="0"/>
        <pt x="324" y="657" on="1"/>
        <pt x="324" y="359" on="1"/>
        <pt x="324" y="246" on="0"/>
        <pt x="341" y="173" on="0"/>
        <pt x="397" y="173" on="0"/>
        <pt x="412" y="244" on="0"/>
        <pt x="412" y="360" on="1"/>
        <pt x="412" y="646" on="1"/>
        <pt x="412" y="671" on="0"/>
        <pt x="525" y="711" on="0"/>
        <pt x="599" y="711" on="1"/>
        <pt x="662" y="711" on="0"/>
        <pt x="678" y="688" on="1"/>
        <pt x="691" y="670" on="0"/>
        <pt x="691" y="657" on="1"/>
        <pt x="691" y="279" on="1"/>
      </contour>
      <contour>
        <pt x="258" y="910" on="1"/>
        <pt x="319" y="910" on="0"/>
        <pt x="468" y="851" on="0"/>
        <pt x="468" y="788" on="0"/>
        <pt x="437" y="740" on="0"/>
        <pt x="418" y="740" on="1"/>
        <pt x="361" y="740" on="0"/>
        <pt x="188" y="763" on="0"/>
        <pt x="188" y="778" on="1"/>
        <pt x="188" y="834" on="0"/>
        <pt x="235" y="910" on="0"/>
      </contour>
    </TTGlyph>
    <TTGlyph name="Uhungarumlaut" xMin="45" yMin="-8" xMax="691" yMax="910">
      <contour>
        <pt x="691" y="135" on="0"/>
        <pt x="526" y="-8" on="0"/>
        <pt x="213" y="-8" on="0"/>
        <pt x="45" y="135" on="0"/>
        <pt x="45" y="279" on="1"/>
        <pt x="45" y="646" on="1"/>
        <pt x="45" y="671" on="0"/>
        <pt x="158" y="711" on="0"/>
        <pt x="233" y="711" on="1"/>
        <pt x="293" y="711" on="0"/>
        <pt x="311" y="688" on="1"/>
        <pt x="324" y="670" on="0"/>
        <pt x="324" y="657" on="1"/>
        <pt x="324" y="359" on="1"/>
        <pt x="324" y="246" on="0"/>
        <pt x="341" y="173" on="0"/>
        <pt x="397" y="173" on="0"/>
        <pt x="412" y="244" on="0"/>
        <pt x="412" y="360" on="1"/>
        <pt x="412" y="646" on="1"/>
        <pt x="412" y="671" on="0"/>
        <pt x="525" y="711" on="0"/>
        <pt x="599" y="711" on="1"/>
        <pt x="662" y="711" on="0"/>
        <pt x="678" y="688" on="1"/>
        <pt x="691" y="670" on="0"/>
        <pt x="691" y="657" on="1"/>
        <pt x="691" y="279" on="1"/>
      </contour>
      <contour>
        <pt x="272" y="910" on="1"/>
        <pt x="295" y="910" on="0"/>
        <pt x="342" y="834" on="0"/>
        <pt x="342" y="778" on="1"/>
        <pt x="342" y="763" on="0"/>
        <pt x="187" y="740" on="0"/>
        <pt x="132" y="740" on="1"/>
        <pt x="113" y="740" on="0"/>
        <pt x="82" y="788" on="0"/>
        <pt x="82" y="852" on="0"/>
        <pt x="213" y="910" on="0"/>
      </contour>
      <contour>
        <pt x="583" y="910" on="1"/>
        <pt x="606" y="910" on="0"/>
        <pt x="653" y="834" on="0"/>
        <pt x="653" y="778" on="1"/>
        <pt x="653" y="763" on="0"/>
        <pt x="498" y="740" on="0"/>
        <pt x="443" y="740" on="1"/>
        <pt x="424" y="740" on="0"/>
        <pt x="393" y="788" on="0"/>
        <pt x="393" y="852" on="0"/>
        <pt x="524" y="910" on="0"/>
      </contour>
    </TTGlyph>
    <TTGlyph name="Umacron" xMin="45" yMin="-8" xMax="691" yMax="890">
      <contour>
        <pt x="691" y="135" on="0"/>
        <pt x="526" y="-8" on="0"/>
        <pt x="213" y="-8" on="0"/>
        <pt x="45" y="135" on="0"/>
        <pt x="45" y="279" on="1"/>
        <pt x="45" y="646" on="1"/>
        <pt x="45" y="671" on="0"/>
        <pt x="158" y="711" on="0"/>
        <pt x="233" y="711" on="1"/>
        <pt x="293" y="711" on="0"/>
        <pt x="311" y="688" on="1"/>
        <pt x="324" y="670" on="0"/>
        <pt x="324" y="657" on="1"/>
        <pt x="324" y="359" on="1"/>
        <pt x="324" y="246" on="0"/>
        <pt x="341" y="173" on="0"/>
        <pt x="397" y="173" on="0"/>
        <pt x="412" y="244" on="0"/>
        <pt x="412" y="360" on="1"/>
        <pt x="412" y="646" on="1"/>
        <pt x="412" y="671" on="0"/>
        <pt x="525" y="711" on="0"/>
        <pt x="599" y="711" on="1"/>
        <pt x="662" y="711" on="0"/>
        <pt x="678" y="688" on="1"/>
        <pt x="691" y="670" on="0"/>
        <pt x="691" y="657" on="1"/>
        <pt x="691" y="279" on="1"/>
      </contour>
      <contour>
        <pt x="556" y="730" on="1"/>
        <pt x="151" y="730" on="1"/>
        <pt x="140" y="730" on="0"/>
        <pt x="124" y="767" on="0"/>
        <pt x="124" y="829" on="0"/>
        <pt x="169" y="890" on="0"/>
        <pt x="189" y="890" on="1"/>
        <pt x="591" y="890" on="1"/>
        <pt x="617" y="890" on="0"/>
        <pt x="617" y="825" on="1"/>
        <pt x="617" y="793" on="0"/>
        <pt x="575" y="730" on="0"/>
      </contour>
    </TTGlyph>
    <TTGlyph name="Uogonek" xMin="45" yMin="-155" xMax="691" yMax="711">
      <contour>
        <pt x="526" y="-8" on="0"/>
        <pt x="691" y="135" on="0"/>
        <pt x="691" y="279" on="1"/>
        <pt x="691" y="657" on="1"/>
        <pt x="691" y="670" on="0"/>
        <pt x="678" y="688" on="1"/>
        <pt x="662" y="711" on="0"/>
        <pt x="599" y="711" on="1"/>
        <pt x="525" y="711" on="0"/>
        <pt x="412" y="671" on="0"/>
        <pt x="412" y="646" on="1"/>
        <pt x="412" y="360" on="1"/>
        <pt x="412" y="244" on="0"/>
        <pt x="397" y="173" on="0"/>
        <pt x="341" y="173" on="0"/>
        <pt x="324" y="246" on="0"/>
        <pt x="324" y="359" on="1"/>
        <pt x="324" y="657" on="1"/>
        <pt x="324" y="670" on="0"/>
        <pt x="311" y="688" on="1"/>
        <pt x="293" y="711" on="0"/>
        <pt x="233" y="711" on="1"/>
        <pt x="158" y="711" on="0"/>
        <pt x="45" y="671" on="0"/>
        <pt x="45" y="646" on="1"/>
        <pt x="45" y="279" on="1"/>
        <pt x="45" y="135" on="0"/>
        <pt x="213" y="-8" on="0"/>
      </contour>
      <contour>
        <pt x="358" y="-155" on="0"/>
        <pt x="259" y="-99" on="0"/>
        <pt x="259" y="19" on="0"/>
        <pt x="306" y="47" on="1"/>
        <pt x="323" y="47" on="0"/>
        <pt x="465" y="30" on="0"/>
        <pt x="465" y="14" on="0"/>
        <pt x="427" y="-13" on="0"/>
        <pt x="427" y="-23" on="1"/>
        <pt x="427" y="-39" on="0"/>
        <pt x="477" y="-39" on="0"/>
        <pt x="529" y="-30" on="0"/>
        <pt x="539" y="-30" on="0"/>
        <pt x="547" y="-42" on="1"/>
        <pt x="568" y="-72" on="0"/>
        <pt x="568" y="-131" on="1"/>
        <pt x="568" y="-144" on="0"/>
        <pt x="470" y="-155" on="0"/>
        <pt x="434" y="-155" on="1"/>
      </contour>
    </TTGlyph>
    <TTGlyph name="Uring" xMin="45" yMin="-8" xMax="691" yMax="910">
      <contour>
        <pt x="691" y="135" on="0"/>
        <pt x="526" y="-8" on="0"/>
        <pt x="213" y="-8" on="0"/>
        <pt x="45" y="135" on="0"/>
        <pt x="45" y="279" on="1"/>
        <pt x="45" y="646" on="1"/>
        <pt x="45" y="671" on="0"/>
        <pt x="158" y="711" on="0"/>
        <pt x="233" y="711" on="1"/>
        <pt x="293" y="711" on="0"/>
        <pt x="311" y="688" on="1"/>
        <pt x="324" y="670" on="0"/>
        <pt x="324" y="657" on="1"/>
        <pt x="324" y="359" on="1"/>
        <pt x="324" y="246" on="0"/>
        <pt x="341" y="173" on="0"/>
        <pt x="397" y="173" on="0"/>
        <pt x="412" y="244" on="0"/>
        <pt x="412" y="360" on="1"/>
        <pt x="412" y="646" on="1"/>
        <pt x="412" y="671" on="0"/>
        <pt x="525" y="711" on="0"/>
        <pt x="599" y="711" on="1"/>
        <pt x="662" y="711" on="0"/>
        <pt x="678" y="688" on="1"/>
        <pt x="691" y="670" on="0"/>
        <pt x="691" y="657" on="1"/>
        <pt x="691" y="279" on="1"/>
      </contour>
      <contour>
        <pt x="483" y="777" on="0"/>
        <pt x="427" y="740" on="0"/>
        <pt x="309" y="740" on="0"/>
        <pt x="253" y="777" on="0"/>
        <pt x="253" y="878" on="0"/>
        <pt x="309" y="910" on="0"/>
        <pt x="427" y="910" on="0"/>
        <pt x="483" y="878" on="0"/>
      </contour>
      <contour>
        <pt x="341" y="815" on="0"/>
        <pt x="352" y="807" on="0"/>
        <pt x="384" y="807" on="0"/>
        <pt x="395" y="815" on="0"/>
        <pt x="395" y="836" on="0"/>
        <pt x="383" y="843" on="0"/>
        <pt x="352" y="843" on="0"/>
        <pt x="341" y="836" on="0"/>
      </contour>
    </TTGlyph>
    <TTGlyph name="Utilde" xMin="45" yMin="-8" xMax="691" yMax="900">
      <contour>
        <pt x="691" y="135" on="0"/>
        <pt x="526" y="-8" on="0"/>
        <pt x="213" y="-8" on="0"/>
        <pt x="45" y="135" on="0"/>
        <pt x="45" y="279" on="1"/>
        <pt x="45" y="646" on="1"/>
        <pt x="45" y="671" on="0"/>
        <pt x="158" y="711" on="0"/>
        <pt x="233" y="711" on="1"/>
        <pt x="293" y="711" on="0"/>
        <pt x="311" y="688" on="1"/>
        <pt x="324" y="670" on="0"/>
        <pt x="324" y="657" on="1"/>
        <pt x="324" y="359" on="1"/>
        <pt x="324" y="246" on="0"/>
        <pt x="341" y="173" on="0"/>
        <pt x="397" y="173" on="0"/>
        <pt x="412" y="244" on="0"/>
        <pt x="412" y="360" on="1"/>
        <pt x="412" y="646" on="1"/>
        <pt x="412" y="671" on="0"/>
        <pt x="525" y="711" on="0"/>
        <pt x="599" y="711" on="1"/>
        <pt x="662" y="711" on="0"/>
        <pt x="678" y="688" on="1"/>
        <pt x="691" y="670" on="0"/>
        <pt x="691" y="657" on="1"/>
        <pt x="691" y="279" on="1"/>
      </contour>
      <contour>
        <pt x="611" y="794" on="0"/>
        <pt x="508" y="730" on="0"/>
        <pt x="431" y="730" on="0"/>
        <pt x="324" y="765" on="0"/>
        <pt x="293" y="765" on="0"/>
        <pt x="205" y="730" on="0"/>
        <pt x="169" y="730" on="0"/>
        <pt x="130" y="801" on="0"/>
        <pt x="130" y="820" on="1"/>
        <pt x="130" y="837" on="0"/>
        <pt x="239" y="900" on="0"/>
        <pt x="311" y="900" on="0"/>
        <pt x="416" y="866" on="0"/>
        <pt x="439" y="866" on="1"/>
        <pt x="446" y="866" on="0"/>
        <pt x="531" y="900" on="0"/>
        <pt x="570" y="900" on="0"/>
        <pt x="611" y="826" on="0"/>
        <pt x="611" y="809" on="1"/>
      </contour>
    </TTGlyph>
    <TTGlyph name="V" xMin="10" yMin="0" xMax="717" yMax="710">
      <contour>
        <pt x="10" y="639" on="1"/>
        <pt x="10" y="651" on="0"/>
        <pt x="62" y="684" on="0"/>
        <pt x="157" y="710" on="0"/>
        <pt x="269" y="710" on="0"/>
        <pt x="321" y="678" on="0"/>
        <pt x="323" y="659" on="1"/>
        <pt x="358" y="295" on="1"/>
        <pt x="372" y="295" on="1"/>
        <pt x="403" y="650" on="1"/>
        <pt x="406" y="678" on="0"/>
        <pt x="536" y="710" on="0"/>
        <pt x="648" y="710" on="0"/>
        <pt x="702" y="691" on="0"/>
        <pt x="717" y="671" on="0"/>
        <pt x="717" y="654" on="0"/>
        <pt x="688" y="577" on="0"/>
        <pt x="672" y="533" on="1"/>
        <pt x="619" y="393" on="0"/>
        <pt x="493" y="31" on="1"/>
        <pt x="482" y="0" on="0"/>
        <pt x="321" y="0" on="1"/>
        <pt x="271" y="0" on="0"/>
        <pt x="239" y="14" on="0"/>
        <pt x="233" y="31" on="1"/>
        <pt x="174" y="201" on="0"/>
        <pt x="10" y="633" on="0"/>
      </contour>
    </TTGlyph>
    <TTGlyph name="V.sc" xMin="20" yMin="0" xMax="728" yMax="600">
      <contour>
        <pt x="20" y="540" on="1"/>
        <pt x="20" y="550" on="0"/>
        <pt x="72" y="578" on="0"/>
        <pt x="167" y="600" on="0"/>
        <pt x="260" y="600" on="0"/>
        <pt x="287" y="592" on="1"/>
        <pt x="331" y="579" on="0"/>
        <pt x="333" y="556" on="1"/>
        <pt x="371" y="252" on="1"/>
        <pt x="380" y="252" on="1"/>
        <pt x="414" y="549" on="1"/>
        <pt x="417" y="573" on="0"/>
        <pt x="547" y="600" on="0"/>
        <pt x="659" y="600" on="0"/>
        <pt x="713" y="584" on="0"/>
        <pt x="728" y="566" on="0"/>
        <pt x="728" y="553" on="0"/>
        <pt x="720" y="536" on="1"/>
        <pt x="653" y="392" on="0"/>
        <pt x="504" y="26" on="1"/>
        <pt x="493" y="0" on="0"/>
        <pt x="331" y="0" on="1"/>
        <pt x="280" y="0" on="0"/>
        <pt x="249" y="11" on="0"/>
        <pt x="243" y="26" on="1"/>
        <pt x="170" y="205" on="0"/>
        <pt x="20" y="535" on="0"/>
      </contour>
    </TTGlyph>
    <TTGlyph name="W" xMin="10" yMin="0" xMax="1006" yMax="710">
      <contour>
        <pt x="315" y="0" on="1"/>
        <pt x="267" y="0" on="0"/>
        <pt x="237" y="14" on="0"/>
        <pt x="231" y="31" on="1"/>
        <pt x="10" y="641" on="1"/>
        <pt x="10" y="660" on="0"/>
        <pt x="153" y="710" on="0"/>
        <pt x="226" y="710" on="1"/>
        <pt x="320" y="710" on="0"/>
        <pt x="326" y="651" on="1"/>
        <pt x="360" y="334" on="1"/>
        <pt x="374" y="334" on="1"/>
        <pt x="402" y="651" on="1"/>
        <pt x="407" y="710" on="0"/>
        <pt x="537" y="710" on="1"/>
        <pt x="587" y="710" on="0"/>
        <pt x="621" y="683" on="0"/>
        <pt x="623" y="661" on="1"/>
        <pt x="656" y="334" on="1"/>
        <pt x="670" y="334" on="1"/>
        <pt x="696" y="651" on="1"/>
        <pt x="699" y="680" on="0"/>
        <pt x="830" y="710" on="0"/>
        <pt x="959" y="710" on="0"/>
        <pt x="1006" y="672" on="0"/>
        <pt x="1006" y="651" on="1"/>
        <pt x="792" y="31" on="1"/>
        <pt x="781" y="0" on="0"/>
        <pt x="644" y="0" on="1"/>
        <pt x="603" y="0" on="0"/>
        <pt x="575" y="14" on="0"/>
        <pt x="570" y="31" on="1"/>
        <pt x="518" y="205" on="1"/>
        <pt x="506" y="205" on="1"/>
        <pt x="453" y="31" on="1"/>
        <pt x="444" y="0" on="0"/>
      </contour>
    </TTGlyph>
    <TTGlyph name="W.sc" xMin="20" yMin="0" xMax="1015" yMax="600">
      <contour>
        <pt x="325" y="0" on="1"/>
        <pt x="277" y="0" on="0"/>
        <pt x="247" y="11" on="0"/>
        <pt x="241" y="26" on="1"/>
        <pt x="168" y="216" on="0"/>
        <pt x="53" y="460" on="1"/>
        <pt x="20" y="530" on="0"/>
        <pt x="20" y="534" on="1"/>
        <pt x="20" y="544" on="0"/>
        <pt x="83" y="575" on="0"/>
        <pt x="188" y="600" on="0"/>
        <pt x="236" y="600" on="1"/>
        <pt x="333" y="600" on="0"/>
        <pt x="336" y="550" on="1"/>
        <pt x="372" y="251" on="1"/>
        <pt x="382" y="251" on="1"/>
        <pt x="412" y="543" on="1"/>
        <pt x="415" y="570" on="0"/>
        <pt x="489" y="600" on="0"/>
        <pt x="580" y="600" on="0"/>
        <pt x="619" y="585" on="0"/>
        <pt x="628" y="572" on="0"/>
        <pt x="632" y="559" on="1"/>
        <pt x="668" y="251" on="1"/>
        <pt x="677" y="251" on="1"/>
        <pt x="705" y="543" on="1"/>
        <pt x="708" y="568" on="0"/>
        <pt x="844" y="600" on="0"/>
        <pt x="950" y="600" on="0"/>
        <pt x="1001" y="581" on="0"/>
        <pt x="1015" y="561" on="0"/>
        <pt x="1015" y="547" on="0"/>
        <pt x="1009" y="534" on="1"/>
        <pt x="948" y="404" on="0"/>
        <pt x="801" y="26" on="1"/>
        <pt x="790" y="0" on="0"/>
        <pt x="653" y="0" on="1"/>
        <pt x="612" y="0" on="0"/>
        <pt x="585" y="12" on="0"/>
        <pt x="579" y="26" on="1"/>
        <pt x="525" y="175" on="1"/>
        <pt x="517" y="175" on="1"/>
        <pt x="463" y="26" on="1"/>
        <pt x="454" y="0" on="0"/>
      </contour>
    </TTGlyph>
    <TTGlyph name="Wcircumflex" xMin="15" yMin="0" xMax="1011" yMax="910">
      <contour>
        <pt x="320" y="0" on="1"/>
        <pt x="272" y="0" on="0"/>
        <pt x="242" y="14" on="0"/>
        <pt x="236" y="31" on="1"/>
        <pt x="15" y="641" on="1"/>
        <pt x="15" y="660" on="0"/>
        <pt x="158" y="710" on="0"/>
        <pt x="231" y="710" on="1"/>
        <pt x="325" y="710" on="0"/>
        <pt x="331" y="651" on="1"/>
        <pt x="365" y="334" on="1"/>
        <pt x="379" y="334" on="1"/>
        <pt x="407" y="651" on="1"/>
        <pt x="412" y="710" on="0"/>
        <pt x="542" y="710" on="1"/>
        <pt x="592" y="710" on="0"/>
        <pt x="626" y="683" on="0"/>
        <pt x="628" y="661" on="1"/>
        <pt x="661" y="334" on="1"/>
        <pt x="675" y="334" on="1"/>
        <pt x="701" y="651" on="1"/>
        <pt x="704" y="680" on="0"/>
        <pt x="835" y="710" on="0"/>
        <pt x="964" y="710" on="0"/>
        <pt x="1011" y="672" on="0"/>
        <pt x="1011" y="651" on="1"/>
        <pt x="797" y="31" on="1"/>
        <pt x="786" y="0" on="0"/>
        <pt x="649" y="0" on="1"/>
        <pt x="608" y="0" on="0"/>
        <pt x="580" y="14" on="0"/>
        <pt x="575" y="31" on="1"/>
        <pt x="523" y="205" on="1"/>
        <pt x="511" y="205" on="1"/>
        <pt x="458" y="31" on="1"/>
        <pt x="449" y="0" on="0"/>
      </contour>
      <contour>
        <pt x="343" y="841" on="0"/>
        <pt x="490" y="910" on="0"/>
        <pt x="561" y="910" on="0"/>
        <pt x="703" y="842" on="0"/>
        <pt x="703" y="830" on="1"/>
        <pt x="703" y="795" on="0"/>
        <pt x="681" y="740" on="0"/>
        <pt x="663" y="740" on="1"/>
        <pt x="649" y="740" on="0"/>
        <pt x="523" y="779" on="1"/>
        <pt x="396" y="740" on="0"/>
        <pt x="383" y="740" on="1"/>
        <pt x="365" y="740" on="0"/>
        <pt x="343" y="795" on="0"/>
        <pt x="343" y="830" on="1"/>
      </contour>
    </TTGlyph>
    <TTGlyph name="X" xMin="10" yMin="0" xMax="711" yMax="710">
      <contour>
        <pt x="209" y="0" on="1"/>
        <pt x="136" y="0" on="0"/>
        <pt x="10" y="25" on="0"/>
        <pt x="10" y="49" on="1"/>
        <pt x="10" y="63" on="0"/>
        <pt x="93" y="218" on="0"/>
        <pt x="177" y="360" on="1"/>
        <pt x="27" y="642" on="0"/>
        <pt x="27" y="656" on="1"/>
        <pt x="27" y="678" on="0"/>
        <pt x="154" y="710" on="0"/>
        <pt x="259" y="710" on="0"/>
        <pt x="326" y="678" on="0"/>
        <pt x="329" y="662" on="1"/>
        <pt x="368" y="485" on="1"/>
        <pt x="373" y="485" on="1"/>
        <pt x="401" y="660" on="1"/>
        <pt x="402" y="667" on="0"/>
        <pt x="448" y="691" on="0"/>
        <pt x="525" y="710" on="0"/>
        <pt x="626" y="710" on="0"/>
        <pt x="694" y="686" on="0"/>
        <pt x="694" y="653" on="1"/>
        <pt x="694" y="636" on="0"/>
        <pt x="622" y="472" on="0"/>
        <pt x="549" y="326" on="1"/>
        <pt x="711" y="63" on="0"/>
        <pt x="711" y="49" on="1"/>
        <pt x="711" y="0" on="0"/>
        <pt x="592" y="0" on="1"/>
        <pt x="415" y="0" on="0"/>
        <pt x="402" y="48" on="1"/>
        <pt x="363" y="187" on="1"/>
        <pt x="357" y="187" on="1"/>
        <pt x="325" y="48" on="1"/>
        <pt x="314" y="0" on="0"/>
      </contour>
    </TTGlyph>
</ttFont>
